<?xml version="1.0" encoding="utf-8" standalone="no"?>
<!DOCTYPE svg PUBLIC "-//W3C//DTD SVG 1.1//EN"
  "http://www.w3.org/Graphics/SVG/1.1/DTD/svg11.dtd">
<svg xmlns:xlink="http://www.w3.org/1999/xlink" width="467.459375pt" height="213.828594pt" viewBox="0 0 467.459375 213.828594" xmlns="http://www.w3.org/2000/svg" version="1.1">
 <metadata>
  <rdf:RDF xmlns:dc="http://purl.org/dc/elements/1.1/" xmlns:cc="http://creativecommons.org/ns#" xmlns:rdf="http://www.w3.org/1999/02/22-rdf-syntax-ns#">
   <cc:Work>
    <dc:type rdf:resource="http://purl.org/dc/dcmitype/StillImage"/>
    <dc:date>2024-02-16T17:37:25.570983</dc:date>
    <dc:format>image/svg+xml</dc:format>
    <dc:creator>
     <cc:Agent>
      <dc:title>Matplotlib v3.7.2, https://matplotlib.org/</dc:title>
     </cc:Agent>
    </dc:creator>
   </cc:Work>
  </rdf:RDF>
 </metadata>
 <defs>
  <style type="text/css">*{stroke-linejoin: round; stroke-linecap: butt}</style>
 </defs>
 <g id="figure_1">
  <g id="patch_1">
   <path d="M 0 213.828594 
L 467.459375 213.828594 
L 467.459375 0 
L 0 0 
z
" style="fill: #ffffff"/>
  </g>
  <g id="axes_1">
   <g id="patch_2">
    <path d="M 47.325 177.098906 
L 326.325 177.098906 
L 326.325 10.778906 
L 47.325 10.778906 
z
" style="fill: #ffffff"/>
   </g>
   <g id="matplotlib.axis_1">
    <g id="xtick_1">
     <g id="line2d_1">
      <path d="M 67.253571 177.098906 
L 67.253571 10.778906 
" clip-path="url(#pf69953f56a)" style="fill: none; stroke: #cccccc; stroke-width: 0.8; stroke-linecap: round"/>
     </g>
     <g id="text_1">
      <!-- −1.5 -->
      <g style="fill: #262626" transform="translate(57.383259 191.256719) scale(0.1 -0.1)">
       <defs>
        <path id="ArialMT-2212" d="M 3381 1997 
L 356 1997 
L 356 2522 
L 3381 2522 
L 3381 1997 
z
" transform="scale(0.015625)"/>
        <path id="ArialMT-31" d="M 2384 0 
L 1822 0 
L 1822 3584 
Q 1619 3391 1289 3197 
Q 959 3003 697 2906 
L 697 3450 
Q 1169 3672 1522 3987 
Q 1875 4303 2022 4600 
L 2384 4600 
L 2384 0 
z
" transform="scale(0.015625)"/>
        <path id="ArialMT-2e" d="M 581 0 
L 581 641 
L 1222 641 
L 1222 0 
L 581 0 
z
" transform="scale(0.015625)"/>
        <path id="ArialMT-35" d="M 266 1200 
L 856 1250 
Q 922 819 1161 601 
Q 1400 384 1738 384 
Q 2144 384 2425 690 
Q 2706 997 2706 1503 
Q 2706 1984 2436 2262 
Q 2166 2541 1728 2541 
Q 1456 2541 1237 2417 
Q 1019 2294 894 2097 
L 366 2166 
L 809 4519 
L 3088 4519 
L 3088 3981 
L 1259 3981 
L 1013 2750 
Q 1425 3038 1878 3038 
Q 2478 3038 2890 2622 
Q 3303 2206 3303 1553 
Q 3303 931 2941 478 
Q 2500 -78 1738 -78 
Q 1113 -78 717 272 
Q 322 622 266 1200 
z
" transform="scale(0.015625)"/>
       </defs>
       <use xlink:href="#ArialMT-2212"/>
       <use xlink:href="#ArialMT-31" x="58.398438"/>
       <use xlink:href="#ArialMT-2e" x="114.013672"/>
       <use xlink:href="#ArialMT-35" x="141.796875"/>
      </g>
     </g>
    </g>
    <g id="xtick_2">
     <g id="line2d_2">
      <path d="M 107.110714 177.098906 
L 107.110714 10.778906 
" clip-path="url(#pf69953f56a)" style="fill: none; stroke: #cccccc; stroke-width: 0.8; stroke-linecap: round"/>
     </g>
     <g id="text_2">
      <!-- −1.0 -->
      <g style="fill: #262626" transform="translate(97.240402 191.256719) scale(0.1 -0.1)">
       <defs>
        <path id="ArialMT-30" d="M 266 2259 
Q 266 3072 433 3567 
Q 600 4063 929 4331 
Q 1259 4600 1759 4600 
Q 2128 4600 2406 4451 
Q 2684 4303 2865 4023 
Q 3047 3744 3150 3342 
Q 3253 2941 3253 2259 
Q 3253 1453 3087 958 
Q 2922 463 2592 192 
Q 2263 -78 1759 -78 
Q 1097 -78 719 397 
Q 266 969 266 2259 
z
M 844 2259 
Q 844 1131 1108 757 
Q 1372 384 1759 384 
Q 2147 384 2411 759 
Q 2675 1134 2675 2259 
Q 2675 3391 2411 3762 
Q 2147 4134 1753 4134 
Q 1366 4134 1134 3806 
Q 844 3388 844 2259 
z
" transform="scale(0.015625)"/>
       </defs>
       <use xlink:href="#ArialMT-2212"/>
       <use xlink:href="#ArialMT-31" x="58.398438"/>
       <use xlink:href="#ArialMT-2e" x="114.013672"/>
       <use xlink:href="#ArialMT-30" x="141.796875"/>
      </g>
     </g>
    </g>
    <g id="xtick_3">
     <g id="line2d_3">
      <path d="M 146.967857 177.098906 
L 146.967857 10.778906 
" clip-path="url(#pf69953f56a)" style="fill: none; stroke: #cccccc; stroke-width: 0.8; stroke-linecap: round"/>
     </g>
     <g id="text_3">
      <!-- −0.5 -->
      <g style="fill: #262626" transform="translate(137.097545 191.256719) scale(0.1 -0.1)">
       <use xlink:href="#ArialMT-2212"/>
       <use xlink:href="#ArialMT-30" x="58.398438"/>
       <use xlink:href="#ArialMT-2e" x="114.013672"/>
       <use xlink:href="#ArialMT-35" x="141.796875"/>
      </g>
     </g>
    </g>
    <g id="xtick_4">
     <g id="line2d_4">
      <path d="M 186.825 177.098906 
L 186.825 10.778906 
" clip-path="url(#pf69953f56a)" style="fill: none; stroke: #cccccc; stroke-width: 0.8; stroke-linecap: round"/>
     </g>
     <g id="text_4">
      <!-- 0.0 -->
      <g style="fill: #262626" transform="translate(179.875 191.256719) scale(0.1 -0.1)">
       <use xlink:href="#ArialMT-30"/>
       <use xlink:href="#ArialMT-2e" x="55.615234"/>
       <use xlink:href="#ArialMT-30" x="83.398438"/>
      </g>
     </g>
    </g>
    <g id="xtick_5">
     <g id="line2d_5">
      <path d="M 226.682143 177.098906 
L 226.682143 10.778906 
" clip-path="url(#pf69953f56a)" style="fill: none; stroke: #cccccc; stroke-width: 0.8; stroke-linecap: round"/>
     </g>
     <g id="text_5">
      <!-- 0.5 -->
      <g style="fill: #262626" transform="translate(219.732143 191.256719) scale(0.1 -0.1)">
       <use xlink:href="#ArialMT-30"/>
       <use xlink:href="#ArialMT-2e" x="55.615234"/>
       <use xlink:href="#ArialMT-35" x="83.398438"/>
      </g>
     </g>
    </g>
    <g id="xtick_6">
     <g id="line2d_6">
      <path d="M 266.539286 177.098906 
L 266.539286 10.778906 
" clip-path="url(#pf69953f56a)" style="fill: none; stroke: #cccccc; stroke-width: 0.8; stroke-linecap: round"/>
     </g>
     <g id="text_6">
      <!-- 1.0 -->
      <g style="fill: #262626" transform="translate(259.589286 191.256719) scale(0.1 -0.1)">
       <use xlink:href="#ArialMT-31"/>
       <use xlink:href="#ArialMT-2e" x="55.615234"/>
       <use xlink:href="#ArialMT-30" x="83.398438"/>
      </g>
     </g>
    </g>
    <g id="xtick_7">
     <g id="line2d_7">
      <path d="M 306.396429 177.098906 
L 306.396429 10.778906 
" clip-path="url(#pf69953f56a)" style="fill: none; stroke: #cccccc; stroke-width: 0.8; stroke-linecap: round"/>
     </g>
     <g id="text_7">
      <!-- 1.5 -->
      <g style="fill: #262626" transform="translate(299.446429 191.256719) scale(0.1 -0.1)">
       <use xlink:href="#ArialMT-31"/>
       <use xlink:href="#ArialMT-2e" x="55.615234"/>
       <use xlink:href="#ArialMT-35" x="83.398438"/>
      </g>
     </g>
    </g>
    <g id="text_8">
     <!-- Times (s) -->
     <g style="fill: #262626" transform="translate(166.183594 204.523906) scale(0.1 -0.1)">
      <defs>
       <path id="ArialMT-54" d="M 1659 0 
L 1659 4041 
L 150 4041 
L 150 4581 
L 3781 4581 
L 3781 4041 
L 2266 4041 
L 2266 0 
L 1659 0 
z
" transform="scale(0.015625)"/>
       <path id="ArialMT-69" d="M 425 3934 
L 425 4581 
L 988 4581 
L 988 3934 
L 425 3934 
z
M 425 0 
L 425 3319 
L 988 3319 
L 988 0 
L 425 0 
z
" transform="scale(0.015625)"/>
       <path id="ArialMT-6d" d="M 422 0 
L 422 3319 
L 925 3319 
L 925 2853 
Q 1081 3097 1340 3245 
Q 1600 3394 1931 3394 
Q 2300 3394 2536 3241 
Q 2772 3088 2869 2813 
Q 3263 3394 3894 3394 
Q 4388 3394 4653 3120 
Q 4919 2847 4919 2278 
L 4919 0 
L 4359 0 
L 4359 2091 
Q 4359 2428 4304 2576 
Q 4250 2725 4106 2815 
Q 3963 2906 3769 2906 
Q 3419 2906 3187 2673 
Q 2956 2441 2956 1928 
L 2956 0 
L 2394 0 
L 2394 2156 
Q 2394 2531 2256 2718 
Q 2119 2906 1806 2906 
Q 1569 2906 1367 2781 
Q 1166 2656 1075 2415 
Q 984 2175 984 1722 
L 984 0 
L 422 0 
z
" transform="scale(0.015625)"/>
       <path id="ArialMT-65" d="M 2694 1069 
L 3275 997 
Q 3138 488 2766 206 
Q 2394 -75 1816 -75 
Q 1088 -75 661 373 
Q 234 822 234 1631 
Q 234 2469 665 2931 
Q 1097 3394 1784 3394 
Q 2450 3394 2872 2941 
Q 3294 2488 3294 1666 
Q 3294 1616 3291 1516 
L 816 1516 
Q 847 969 1125 678 
Q 1403 388 1819 388 
Q 2128 388 2347 550 
Q 2566 713 2694 1069 
z
M 847 1978 
L 2700 1978 
Q 2663 2397 2488 2606 
Q 2219 2931 1791 2931 
Q 1403 2931 1139 2672 
Q 875 2413 847 1978 
z
" transform="scale(0.015625)"/>
       <path id="ArialMT-73" d="M 197 991 
L 753 1078 
Q 800 744 1014 566 
Q 1228 388 1613 388 
Q 2000 388 2187 545 
Q 2375 703 2375 916 
Q 2375 1106 2209 1216 
Q 2094 1291 1634 1406 
Q 1016 1563 777 1677 
Q 538 1791 414 1992 
Q 291 2194 291 2438 
Q 291 2659 392 2848 
Q 494 3038 669 3163 
Q 800 3259 1026 3326 
Q 1253 3394 1513 3394 
Q 1903 3394 2198 3281 
Q 2494 3169 2634 2976 
Q 2775 2784 2828 2463 
L 2278 2388 
Q 2241 2644 2061 2787 
Q 1881 2931 1553 2931 
Q 1166 2931 1000 2803 
Q 834 2675 834 2503 
Q 834 2394 903 2306 
Q 972 2216 1119 2156 
Q 1203 2125 1616 2013 
Q 2213 1853 2448 1751 
Q 2684 1650 2818 1456 
Q 2953 1263 2953 975 
Q 2953 694 2789 445 
Q 2625 197 2315 61 
Q 2006 -75 1616 -75 
Q 969 -75 630 194 
Q 291 463 197 991 
z
" transform="scale(0.015625)"/>
       <path id="ArialMT-20" transform="scale(0.015625)"/>
       <path id="ArialMT-28" d="M 1497 -1347 
Q 1031 -759 709 28 
Q 388 816 388 1659 
Q 388 2403 628 3084 
Q 909 3875 1497 4659 
L 1900 4659 
Q 1522 4009 1400 3731 
Q 1209 3300 1100 2831 
Q 966 2247 966 1656 
Q 966 153 1900 -1347 
L 1497 -1347 
z
" transform="scale(0.015625)"/>
       <path id="ArialMT-29" d="M 791 -1347 
L 388 -1347 
Q 1322 153 1322 1656 
Q 1322 2244 1188 2822 
Q 1081 3291 891 3722 
Q 769 4003 388 4659 
L 791 4659 
Q 1378 3875 1659 3084 
Q 1900 2403 1900 1659 
Q 1900 816 1576 28 
Q 1253 -759 791 -1347 
z
" transform="scale(0.015625)"/>
      </defs>
      <use xlink:href="#ArialMT-54"/>
      <use xlink:href="#ArialMT-69" x="57.333984"/>
      <use xlink:href="#ArialMT-6d" x="79.550781"/>
      <use xlink:href="#ArialMT-65" x="162.851562"/>
      <use xlink:href="#ArialMT-73" x="218.466797"/>
      <use xlink:href="#ArialMT-20" x="268.466797"/>
      <use xlink:href="#ArialMT-28" x="296.25"/>
      <use xlink:href="#ArialMT-73" x="329.550781"/>
      <use xlink:href="#ArialMT-29" x="379.550781"/>
     </g>
    </g>
   </g>
   <g id="matplotlib.axis_2">
    <g id="ytick_1">
     <g id="line2d_8">
      <path d="M 47.325 161.978906 
L 326.325 161.978906 
" clip-path="url(#pf69953f56a)" style="fill: none; stroke: #cccccc; stroke-width: 0.8; stroke-linecap: round"/>
     </g>
     <g id="text_9">
      <!-- −0.3 -->
      <g style="fill: #262626" transform="translate(20.584375 165.557813) scale(0.1 -0.1)">
       <defs>
        <path id="ArialMT-33" d="M 269 1209 
L 831 1284 
Q 928 806 1161 595 
Q 1394 384 1728 384 
Q 2125 384 2398 659 
Q 2672 934 2672 1341 
Q 2672 1728 2419 1979 
Q 2166 2231 1775 2231 
Q 1616 2231 1378 2169 
L 1441 2663 
Q 1497 2656 1531 2656 
Q 1891 2656 2178 2843 
Q 2466 3031 2466 3422 
Q 2466 3731 2256 3934 
Q 2047 4138 1716 4138 
Q 1388 4138 1169 3931 
Q 950 3725 888 3313 
L 325 3413 
Q 428 3978 793 4289 
Q 1159 4600 1703 4600 
Q 2078 4600 2393 4439 
Q 2709 4278 2876 4000 
Q 3044 3722 3044 3409 
Q 3044 3113 2884 2869 
Q 2725 2625 2413 2481 
Q 2819 2388 3044 2092 
Q 3269 1797 3269 1353 
Q 3269 753 2831 336 
Q 2394 -81 1725 -81 
Q 1122 -81 723 278 
Q 325 638 269 1209 
z
" transform="scale(0.015625)"/>
       </defs>
       <use xlink:href="#ArialMT-2212"/>
       <use xlink:href="#ArialMT-30" x="58.398438"/>
       <use xlink:href="#ArialMT-2e" x="114.013672"/>
       <use xlink:href="#ArialMT-33" x="141.796875"/>
      </g>
     </g>
    </g>
    <g id="ytick_2">
     <g id="line2d_9">
      <path d="M 47.325 131.738906 
L 326.325 131.738906 
" clip-path="url(#pf69953f56a)" style="fill: none; stroke: #cccccc; stroke-width: 0.8; stroke-linecap: round"/>
     </g>
     <g id="text_10">
      <!-- −0.2 -->
      <g style="fill: #262626" transform="translate(20.584375 135.317813) scale(0.1 -0.1)">
       <defs>
        <path id="ArialMT-32" d="M 3222 541 
L 3222 0 
L 194 0 
Q 188 203 259 391 
Q 375 700 629 1000 
Q 884 1300 1366 1694 
Q 2113 2306 2375 2664 
Q 2638 3022 2638 3341 
Q 2638 3675 2398 3904 
Q 2159 4134 1775 4134 
Q 1369 4134 1125 3890 
Q 881 3647 878 3216 
L 300 3275 
Q 359 3922 746 4261 
Q 1134 4600 1788 4600 
Q 2447 4600 2831 4234 
Q 3216 3869 3216 3328 
Q 3216 3053 3103 2787 
Q 2991 2522 2730 2228 
Q 2469 1934 1863 1422 
Q 1356 997 1212 845 
Q 1069 694 975 541 
L 3222 541 
z
" transform="scale(0.015625)"/>
       </defs>
       <use xlink:href="#ArialMT-2212"/>
       <use xlink:href="#ArialMT-30" x="58.398438"/>
       <use xlink:href="#ArialMT-2e" x="114.013672"/>
       <use xlink:href="#ArialMT-32" x="141.796875"/>
      </g>
     </g>
    </g>
    <g id="ytick_3">
     <g id="line2d_10">
      <path d="M 47.325 101.498906 
L 326.325 101.498906 
" clip-path="url(#pf69953f56a)" style="fill: none; stroke: #cccccc; stroke-width: 0.8; stroke-linecap: round"/>
     </g>
     <g id="text_11">
      <!-- −0.1 -->
      <g style="fill: #262626" transform="translate(20.584375 105.077813) scale(0.1 -0.1)">
       <use xlink:href="#ArialMT-2212"/>
       <use xlink:href="#ArialMT-30" x="58.398438"/>
       <use xlink:href="#ArialMT-2e" x="114.013672"/>
       <use xlink:href="#ArialMT-31" x="141.796875"/>
      </g>
     </g>
    </g>
    <g id="ytick_4">
     <g id="line2d_11">
      <path d="M 47.325 71.258906 
L 326.325 71.258906 
" clip-path="url(#pf69953f56a)" style="fill: none; stroke: #cccccc; stroke-width: 0.8; stroke-linecap: round"/>
     </g>
     <g id="text_12">
      <!-- 0.0 -->
      <g style="fill: #262626" transform="translate(26.425 74.837813) scale(0.1 -0.1)">
       <use xlink:href="#ArialMT-30"/>
       <use xlink:href="#ArialMT-2e" x="55.615234"/>
       <use xlink:href="#ArialMT-30" x="83.398438"/>
      </g>
     </g>
    </g>
    <g id="ytick_5">
     <g id="line2d_12">
      <path d="M 47.325 41.018906 
L 326.325 41.018906 
" clip-path="url(#pf69953f56a)" style="fill: none; stroke: #cccccc; stroke-width: 0.8; stroke-linecap: round"/>
     </g>
     <g id="text_13">
      <!-- 0.1 -->
      <g style="fill: #262626" transform="translate(26.425 44.597813) scale(0.1 -0.1)">
       <use xlink:href="#ArialMT-30"/>
       <use xlink:href="#ArialMT-2e" x="55.615234"/>
       <use xlink:href="#ArialMT-31" x="83.398438"/>
      </g>
     </g>
    </g>
    <g id="ytick_6">
     <g id="line2d_13">
      <path d="M 47.325 10.778906 
L 326.325 10.778906 
" clip-path="url(#pf69953f56a)" style="fill: none; stroke: #cccccc; stroke-width: 0.8; stroke-linecap: round"/>
     </g>
     <g id="text_14">
      <!-- 0.2 -->
      <g style="fill: #262626" transform="translate(26.425 14.357812) scale(0.1 -0.1)">
       <use xlink:href="#ArialMT-30"/>
       <use xlink:href="#ArialMT-2e" x="55.615234"/>
       <use xlink:href="#ArialMT-32" x="83.398438"/>
      </g>
     </g>
    </g>
    <g id="text_15">
     <!-- Power (dB) -->
     <g style="fill: #262626" transform="translate(14.479687 118.945156) rotate(-90) scale(0.1 -0.1)">
      <defs>
       <path id="ArialMT-50" d="M 494 0 
L 494 4581 
L 2222 4581 
Q 2678 4581 2919 4538 
Q 3256 4481 3484 4323 
Q 3713 4166 3852 3881 
Q 3991 3597 3991 3256 
Q 3991 2672 3619 2267 
Q 3247 1863 2275 1863 
L 1100 1863 
L 1100 0 
L 494 0 
z
M 1100 2403 
L 2284 2403 
Q 2872 2403 3119 2622 
Q 3366 2841 3366 3238 
Q 3366 3525 3220 3729 
Q 3075 3934 2838 4000 
Q 2684 4041 2272 4041 
L 1100 4041 
L 1100 2403 
z
" transform="scale(0.015625)"/>
       <path id="ArialMT-6f" d="M 213 1659 
Q 213 2581 725 3025 
Q 1153 3394 1769 3394 
Q 2453 3394 2887 2945 
Q 3322 2497 3322 1706 
Q 3322 1066 3130 698 
Q 2938 331 2570 128 
Q 2203 -75 1769 -75 
Q 1072 -75 642 372 
Q 213 819 213 1659 
z
M 791 1659 
Q 791 1022 1069 705 
Q 1347 388 1769 388 
Q 2188 388 2466 706 
Q 2744 1025 2744 1678 
Q 2744 2294 2464 2611 
Q 2184 2928 1769 2928 
Q 1347 2928 1069 2612 
Q 791 2297 791 1659 
z
" transform="scale(0.015625)"/>
       <path id="ArialMT-77" d="M 1034 0 
L 19 3319 
L 600 3319 
L 1128 1403 
L 1325 691 
Q 1338 744 1497 1375 
L 2025 3319 
L 2603 3319 
L 3100 1394 
L 3266 759 
L 3456 1400 
L 4025 3319 
L 4572 3319 
L 3534 0 
L 2950 0 
L 2422 1988 
L 2294 2553 
L 1622 0 
L 1034 0 
z
" transform="scale(0.015625)"/>
       <path id="ArialMT-72" d="M 416 0 
L 416 3319 
L 922 3319 
L 922 2816 
Q 1116 3169 1280 3281 
Q 1444 3394 1641 3394 
Q 1925 3394 2219 3213 
L 2025 2691 
Q 1819 2813 1613 2813 
Q 1428 2813 1281 2702 
Q 1134 2591 1072 2394 
Q 978 2094 978 1738 
L 978 0 
L 416 0 
z
" transform="scale(0.015625)"/>
       <path id="ArialMT-64" d="M 2575 0 
L 2575 419 
Q 2259 -75 1647 -75 
Q 1250 -75 917 144 
Q 584 363 401 755 
Q 219 1147 219 1656 
Q 219 2153 384 2558 
Q 550 2963 881 3178 
Q 1213 3394 1622 3394 
Q 1922 3394 2156 3267 
Q 2391 3141 2538 2938 
L 2538 4581 
L 3097 4581 
L 3097 0 
L 2575 0 
z
M 797 1656 
Q 797 1019 1065 703 
Q 1334 388 1700 388 
Q 2069 388 2326 689 
Q 2584 991 2584 1609 
Q 2584 2291 2321 2609 
Q 2059 2928 1675 2928 
Q 1300 2928 1048 2622 
Q 797 2316 797 1656 
z
" transform="scale(0.015625)"/>
       <path id="ArialMT-42" d="M 469 0 
L 469 4581 
L 2188 4581 
Q 2713 4581 3030 4442 
Q 3347 4303 3526 4014 
Q 3706 3725 3706 3409 
Q 3706 3116 3547 2856 
Q 3388 2597 3066 2438 
Q 3481 2316 3704 2022 
Q 3928 1728 3928 1328 
Q 3928 1006 3792 729 
Q 3656 453 3456 303 
Q 3256 153 2954 76 
Q 2653 0 2216 0 
L 469 0 
z
M 1075 2656 
L 2066 2656 
Q 2469 2656 2644 2709 
Q 2875 2778 2992 2937 
Q 3109 3097 3109 3338 
Q 3109 3566 3000 3739 
Q 2891 3913 2687 3977 
Q 2484 4041 1991 4041 
L 1075 4041 
L 1075 2656 
z
M 1075 541 
L 2216 541 
Q 2509 541 2628 563 
Q 2838 600 2978 687 
Q 3119 775 3209 942 
Q 3300 1109 3300 1328 
Q 3300 1584 3169 1773 
Q 3038 1963 2805 2039 
Q 2572 2116 2134 2116 
L 1075 2116 
L 1075 541 
z
" transform="scale(0.015625)"/>
      </defs>
      <use xlink:href="#ArialMT-50"/>
      <use xlink:href="#ArialMT-6f" x="66.699219"/>
      <use xlink:href="#ArialMT-77" x="122.314453"/>
      <use xlink:href="#ArialMT-65" x="194.53125"/>
      <use xlink:href="#ArialMT-72" x="250.146484"/>
      <use xlink:href="#ArialMT-20" x="283.447266"/>
      <use xlink:href="#ArialMT-28" x="311.230469"/>
      <use xlink:href="#ArialMT-64" x="344.53125"/>
      <use xlink:href="#ArialMT-42" x="400.146484"/>
      <use xlink:href="#ArialMT-29" x="466.845703"/>
     </g>
    </g>
   </g>
   <g id="PolyCollection_1"/>
   <g id="PolyCollection_2"/>
   <g id="PolyCollection_3"/>
   <g id="PolyCollection_4"/>
   <g id="PolyCollection_5"/>
   <g id="PolyCollection_6"/>
   <g id="line2d_14">
    <path d="M 47.723571 91.836615 
L 48.919286 90.229932 
L 51.310714 86.872774 
L 52.107857 86.061522 
L 52.905 85.520111 
L 53.702143 85.289755 
L 54.499286 85.394222 
L 55.296429 85.841908 
L 56.093571 86.627999 
L 56.890714 87.736484 
L 58.086429 89.944903 
L 59.282143 92.693596 
L 61.275 97.983501 
L 63.267857 103.190367 
L 64.463571 105.753854 
L 65.260714 107.080518 
L 66.057857 108.044986 
L 66.855 108.623877 
L 67.652143 108.817928 
L 68.449286 108.650495 
L 69.246429 108.162305 
L 70.043571 107.404517 
L 71.239286 105.88273 
L 72.833571 103.40773 
L 75.623571 98.945965 
L 76.819286 97.452674 
L 77.616429 96.733668 
L 78.413571 96.28183 
L 79.210714 96.115287 
L 80.007857 96.22871 
L 80.805 96.591623 
L 82.000714 97.479767 
L 84.790714 99.796153 
L 85.986429 100.355664 
L 87.182143 100.555445 
L 88.377857 100.497165 
L 91.965 99.947682 
L 93.160714 99.607989 
L 93.957857 99.218176 
L 94.755 98.642024 
L 95.552143 97.851246 
L 96.747857 96.271078 
L 98.740714 93.025117 
L 99.936429 91.21981 
L 100.733571 90.289623 
L 101.530714 89.669682 
L 102.327857 89.40339 
L 103.125 89.500575 
L 103.922143 89.942131 
L 104.719286 90.689644 
L 105.915 92.284442 
L 107.110714 94.324763 
L 108.705 97.574188 
L 110.697857 102.240688 
L 113.487857 108.849936 
L 114.683571 111.192321 
L 115.879286 113.000631 
L 116.676429 113.873038 
L 117.473571 114.485244 
L 118.270714 114.867643 
L 119.466429 115.119913 
L 121.459286 115.158965 
L 124.249286 115.055551 
L 125.046429 114.857986 
L 125.843571 114.487692 
L 126.640714 113.902917 
L 127.437857 113.086122 
L 128.633571 111.460758 
L 130.626429 108.147903 
L 132.220714 105.648388 
L 133.416429 104.190644 
L 134.612143 103.151042 
L 135.807857 102.42498 
L 138.199286 101.090147 
L 139.395 100.113048 
L 140.590714 98.828116 
L 142.185 96.711607 
L 146.170714 91.020239 
L 147.366429 89.795353 
L 148.163571 89.251776 
L 148.960714 88.971997 
L 149.757857 88.979842 
L 150.555 89.280941 
L 151.352143 89.860156 
L 152.149286 90.681591 
L 153.345 92.249611 
L 157.729286 98.517308 
L 161.316429 102.755155 
L 163.707857 105.49003 
L 164.903571 106.576211 
L 165.700714 107.101552 
L 166.497857 107.437837 
L 167.295 107.577517 
L 168.092143 107.527502 
L 168.889286 107.304373 
L 170.085 106.68921 
L 171.280714 105.786979 
L 172.476429 104.628594 
L 174.070714 102.713625 
L 176.063571 99.845581 
L 178.853571 95.754616 
L 180.049286 94.42822 
L 180.846429 93.837405 
L 181.643571 93.550333 
L 182.440714 93.613574 
L 183.237857 94.054496 
L 184.035 94.874336 
L 184.832143 96.042028 
L 186.027857 98.291646 
L 188.419286 103.174197 
L 189.216429 104.455425 
L 190.013571 105.406411 
L 190.810714 105.996376 
L 191.607857 106.243154 
L 192.405 106.20315 
L 193.202143 105.952024 
L 194.397857 105.334919 
L 195.992143 104.277129 
L 197.187857 103.300502 
L 198.383571 102.040324 
L 199.579286 100.384632 
L 200.775 98.322889 
L 204.362143 91.603541 
L 205.159286 90.564259 
L 205.956429 89.85504 
L 206.753571 89.506588 
L 207.550714 89.516301 
L 208.347857 89.849016 
L 209.145 90.440227 
L 210.739286 92.046825 
L 212.333571 93.598887 
L 213.130714 94.164085 
L 213.927857 94.535431 
L 214.725 94.710053 
L 215.920714 94.661031 
L 217.515 94.260998 
L 219.507857 93.756243 
L 221.102143 93.621795 
L 222.297857 93.718456 
L 223.493571 93.984427 
L 224.689286 94.423797 
L 225.885 95.050501 
L 227.479286 96.167101 
L 230.269286 98.252305 
L 231.066429 98.599071 
L 231.863571 98.712069 
L 232.660714 98.54093 
L 233.457857 98.061192 
L 234.255 97.278618 
L 235.450714 95.619543 
L 237.045 92.861911 
L 239.037857 89.436703 
L 240.233571 87.740752 
L 241.429286 86.371335 
L 243.023571 84.899321 
L 249.400714 79.600175 
L 250.596429 78.939528 
L 251.792143 78.561976 
L 252.589286 78.500015 
L 253.386429 78.603538 
L 254.183571 78.872342 
L 255.379286 79.548993 
L 256.973571 80.788729 
L 260.162143 83.33924 
L 263.749286 85.992081 
L 266.937857 88.761169 
L 267.735 89.198592 
L 268.532143 89.430475 
L 269.329286 89.458633 
L 270.525 89.225013 
L 272.119286 88.864494 
L 272.916429 88.880494 
L 273.713571 89.121648 
L 274.510714 89.613044 
L 275.307857 90.335541 
L 276.902143 92.207476 
L 278.496429 93.997554 
L 279.293571 94.622676 
L 280.090714 94.98404 
L 280.887857 95.059817 
L 281.685 94.861031 
L 282.482143 94.426292 
L 283.677857 93.462872 
L 287.663571 89.898181 
L 289.656429 88.573115 
L 291.250714 87.786551 
L 292.446429 87.451891 
L 293.243571 87.400372 
L 294.040714 87.510866 
L 294.837857 87.792702 
L 296.033571 88.520909 
L 297.627857 89.909031 
L 300.019286 92.076298 
L 301.215 92.801417 
L 302.012143 93.058461 
L 302.809286 93.1117 
L 303.606429 92.959623 
L 304.403571 92.618267 
L 305.599286 91.826049 
L 309.186429 89.075273 
L 310.382143 88.497697 
L 311.976429 88.023289 
L 313.570714 87.787285 
L 314.766429 87.814951 
L 315.563571 87.994128 
L 316.360714 88.345742 
L 317.157857 88.894182 
L 317.955 89.647186 
L 319.150714 91.138587 
L 320.346429 92.993658 
L 322.339286 96.611337 
L 325.129286 101.76817 
L 325.926429 102.944943 
L 325.926429 102.944943 
" clip-path="url(#pf69953f56a)" style="fill: none; stroke: #1f77b4; stroke-opacity: 0.5; stroke-width: 1.5; stroke-linecap: round"/>
   </g>
   <g id="line2d_15">
    <path d="M 47.723571 94.30891 
L 48.520714 93.863214 
L 49.317857 93.672322 
L 50.115 93.747103 
L 50.912143 94.075058 
L 51.709286 94.622657 
L 52.905 95.739009 
L 55.296429 98.159399 
L 56.492143 98.995831 
L 57.289286 99.314826 
L 58.086429 99.44166 
L 59.282143 99.348523 
L 61.673571 98.942324 
L 62.470714 98.997394 
L 63.267857 99.236304 
L 64.065 99.684647 
L 64.862143 100.347222 
L 66.057857 101.704658 
L 67.652143 103.976691 
L 69.645 106.832412 
L 70.442143 107.727252 
L 71.239286 108.363958 
L 72.036429 108.683688 
L 72.833571 108.656383 
L 73.630714 108.291986 
L 74.427857 107.645742 
L 77.616429 104.444069 
L 78.413571 104.059012 
L 79.210714 103.971249 
L 80.007857 104.167505 
L 80.805 104.590063 
L 83.993571 106.605839 
L 84.790714 106.748161 
L 85.587857 106.654399 
L 86.385 106.328351 
L 87.182143 105.790747 
L 88.377857 104.646948 
L 89.573571 103.167838 
L 91.167857 100.764935 
L 93.160714 97.223863 
L 97.146429 89.868154 
L 98.342143 88.14877 
L 99.537857 86.876047 
L 100.335 86.303797 
L 101.132143 85.95281 
L 101.929286 85.810489 
L 102.726429 85.857532 
L 103.523571 86.073673 
L 104.719286 86.680952 
L 105.915 87.608512 
L 107.110714 88.869485 
L 108.306429 90.495524 
L 109.502143 92.510222 
L 110.697857 94.906311 
L 112.292143 98.588105 
L 115.480714 106.155232 
L 116.676429 108.252391 
L 117.473571 109.190158 
L 118.270714 109.690362 
L 118.669286 109.768618 
L 119.466429 109.589841 
L 120.263571 109.00877 
L 121.060714 108.115257 
L 124.249286 103.945978 
L 125.046429 103.341437 
L 125.843571 103.059317 
L 126.640714 103.119547 
L 127.437857 103.51868 
L 128.235 104.237777 
L 129.032143 105.247751 
L 130.227857 107.224025 
L 131.822143 110.45696 
L 135.010714 117.144052 
L 136.206429 119.180045 
L 137.402143 120.796003 
L 138.597857 121.950676 
L 139.395 122.454596 
L 140.192143 122.742952 
L 140.989286 122.814686 
L 141.786429 122.670774 
L 142.583571 122.315898 
L 143.380714 121.760664 
L 144.576429 120.600379 
L 146.569286 118.156392 
L 148.163571 116.311451 
L 149.359286 115.313897 
L 150.156429 114.887882 
L 151.352143 114.571352 
L 154.939286 114.14562 
L 156.135 113.574765 
L 157.330714 112.706156 
L 158.925 111.216494 
L 166.497857 103.567685 
L 168.490714 101.666004 
L 170.085 99.809578 
L 174.070714 94.653882 
L 174.867857 94.10763 
L 175.665 93.921495 
L 176.462143 94.139883 
L 177.259286 94.768376 
L 178.056429 95.771975 
L 179.252143 97.82018 
L 183.636429 106.1763 
L 184.832143 107.807571 
L 186.027857 109.027992 
L 186.825 109.580095 
L 187.622143 109.887475 
L 188.419286 109.917115 
L 189.216429 109.642743 
L 190.013571 109.053545 
L 190.810714 108.161983 
L 192.006429 106.35641 
L 195.195 101.046999 
L 195.992143 100.227724 
L 196.789286 99.791421 
L 197.586429 99.766704 
L 198.383571 100.139253 
L 199.180714 100.85638 
L 200.376429 102.394854 
L 203.166429 106.406234 
L 204.362143 107.622159 
L 205.159286 108.139182 
L 205.956429 108.408074 
L 206.753571 108.441582 
L 207.550714 108.271343 
L 208.746429 107.737512 
L 211.935 106.058788 
L 212.732143 105.887028 
L 213.529286 105.894338 
L 214.326429 106.084108 
L 215.522143 106.6371 
L 217.116429 107.458092 
L 217.913571 107.652751 
L 218.710714 107.547435 
L 219.507857 107.050598 
L 220.305 106.11155 
L 221.102143 104.731155 
L 222.297857 101.96418 
L 225.885 92.612322 
L 226.682143 91.167452 
L 227.479286 90.141322 
L 228.276429 89.553424 
L 229.073571 89.388737 
L 229.870714 89.603304 
L 230.667857 90.132277 
L 231.863571 91.345655 
L 236.247857 96.411794 
L 237.443571 97.275801 
L 238.639286 97.828101 
L 239.835 98.100221 
L 241.030714 98.13649 
L 242.226429 97.977354 
L 243.820714 97.512739 
L 245.415 96.804009 
L 247.407857 95.646575 
L 249.002143 94.484256 
L 250.197857 93.394657 
L 251.393571 92.051455 
L 252.987857 89.908441 
L 254.980714 87.227814 
L 255.777857 86.401707 
L 256.575 85.822935 
L 257.372143 85.535494 
L 258.169286 85.55527 
L 258.966429 85.871372 
L 259.763571 86.451726 
L 260.959286 87.708377 
L 264.546429 92.00608 
L 265.343571 92.540285 
L 266.140714 92.777599 
L 266.937857 92.703821 
L 267.735 92.345646 
L 268.930714 91.426145 
L 271.322143 89.386631 
L 272.119286 88.941187 
L 272.916429 88.670897 
L 274.112143 88.540371 
L 276.105 88.509747 
L 276.902143 88.319469 
L 277.699286 87.917792 
L 278.496429 87.264227 
L 279.293571 86.350448 
L 280.489286 84.552795 
L 282.482143 80.941045 
L 284.076429 78.212991 
L 285.272143 76.661008 
L 286.069286 75.980482 
L 286.866429 75.643118 
L 287.663571 75.691226 
L 288.460714 76.159099 
L 289.257857 77.07054 
L 290.055 78.434682 
L 290.852143 80.24199 
L 292.047857 83.706268 
L 293.642143 89.345475 
L 296.033571 98.036742 
L 297.229286 101.48128 
L 298.026429 103.196473 
L 298.823571 104.386524 
L 299.620714 105.04508 
L 300.019286 105.183348 
L 300.816429 105.111478 
L 301.613571 104.637335 
L 302.410714 103.852189 
L 303.606429 102.320987 
L 305.599286 99.681885 
L 306.795 98.481996 
L 307.592143 97.941545 
L 308.389286 97.632535 
L 309.186429 97.559017 
L 309.983571 97.713602 
L 310.780714 98.07682 
L 311.976429 98.932737 
L 315.165 101.528022 
L 315.962143 101.842943 
L 316.759286 101.905526 
L 317.556429 101.695994 
L 318.353571 101.223183 
L 319.150714 100.521778 
L 320.346429 99.163026 
L 323.535 95.298281 
L 324.730714 94.218304 
L 325.926429 93.31859 
L 325.926429 93.31859 
" clip-path="url(#pf69953f56a)" style="fill: none; stroke: #ff7f0e; stroke-opacity: 0.5; stroke-width: 1.5; stroke-linecap: round"/>
   </g>
   <g id="line2d_16">
    <path d="M 47.723571 105.125741 
L 48.919286 106.342234 
L 50.115 107.176265 
L 51.310714 107.679692 
L 52.506429 107.878997 
L 53.303571 107.837361 
L 54.100714 107.643157 
L 54.897857 107.285566 
L 56.093571 106.442224 
L 57.289286 105.290999 
L 60.876429 101.54973 
L 62.470714 100.364706 
L 66.456429 97.718404 
L 68.847857 95.574849 
L 70.442143 94.302669 
L 71.637857 93.702495 
L 72.435 93.530821 
L 73.232143 93.548277 
L 74.427857 93.879911 
L 77.616429 95.224786 
L 78.413571 95.284715 
L 79.210714 95.115071 
L 80.007857 94.690984 
L 80.805 94.016081 
L 82.000714 92.61124 
L 85.587857 87.82578 
L 86.385 87.147563 
L 87.182143 86.733395 
L 87.979286 86.604656 
L 88.776429 86.761989 
L 89.573571 87.188106 
L 90.370714 87.85238 
L 91.566429 89.205785 
L 93.559286 91.996984 
L 95.552143 94.679399 
L 96.747857 95.867471 
L 97.545 96.408082 
L 98.342143 96.748669 
L 99.537857 96.977564 
L 101.132143 97.175235 
L 101.929286 97.439841 
L 102.726429 97.918338 
L 103.523571 98.647905 
L 104.719286 100.191844 
L 106.712143 103.442722 
L 108.306429 105.870896 
L 109.502143 107.256966 
L 110.697857 108.238234 
L 111.893571 108.929151 
L 115.082143 110.369112 
L 117.075 111.096379 
L 118.270714 111.296705 
L 119.466429 111.26384 
L 121.060714 110.927948 
L 124.647857 110.012451 
L 126.242143 109.886703 
L 128.235 109.992789 
L 132.619286 110.37592 
L 134.213571 110.19247 
L 135.807857 109.718652 
L 137.800714 108.839531 
L 143.779286 105.909935 
L 145.373571 104.680502 
L 146.967857 103.135365 
L 150.953571 99.061411 
L 152.149286 98.15914 
L 153.345 97.548047 
L 154.142143 97.339919 
L 154.939286 97.318068 
L 155.736429 97.504259 
L 156.533571 97.916796 
L 157.330714 98.567224 
L 158.127857 99.455591 
L 159.323571 101.192491 
L 160.917857 104.012275 
L 162.512143 106.819171 
L 163.707857 108.452197 
L 164.505 109.166604 
L 165.302143 109.540152 
L 166.099286 109.587734 
L 166.896429 109.369713 
L 168.490714 108.548014 
L 169.686429 108.056378 
L 170.483571 107.968747 
L 171.280714 108.13055 
L 172.077857 108.543967 
L 173.273571 109.550278 
L 176.860714 113.110849 
L 177.657857 113.605904 
L 178.455 113.907884 
L 179.252143 113.992498 
L 180.049286 113.835742 
L 180.846429 113.412664 
L 181.643571 112.70145 
L 182.440714 111.688509 
L 183.237857 110.372107 
L 184.433571 107.861968 
L 185.629286 104.809831 
L 187.622143 98.96118 
L 190.412143 90.72224 
L 191.607857 87.779394 
L 192.803571 85.474052 
L 193.600714 84.343447 
L 194.397857 83.53817 
L 195.195 83.028429 
L 195.992143 82.761693 
L 197.187857 82.667675 
L 201.572143 82.917117 
L 202.369286 83.122164 
L 203.166429 83.530438 
L 203.963571 84.212812 
L 204.760714 85.217361 
L 205.557857 86.560766 
L 206.753571 89.162415 
L 208.347857 93.383196 
L 210.739286 99.744121 
L 211.935 102.261654 
L 212.732143 103.568784 
L 213.529286 104.572934 
L 214.326429 105.301387 
L 215.123571 105.800143 
L 216.319286 106.227853 
L 217.515 106.376075 
L 218.710714 106.252322 
L 219.507857 105.96256 
L 220.305 105.439642 
L 221.102143 104.618344 
L 221.899286 103.440797 
L 222.696429 101.869763 
L 223.493571 99.899715 
L 224.689286 96.279334 
L 227.080714 87.826071 
L 228.675 82.715561 
L 229.472143 80.697155 
L 230.269286 79.155627 
L 231.066429 78.140715 
L 231.863571 77.66922 
L 232.262143 77.634134 
L 232.660714 77.727695 
L 233.457857 78.276248 
L 234.255 79.253717 
L 235.052143 80.58517 
L 236.247857 83.067744 
L 241.429286 94.72571 
L 242.625 96.46692 
L 243.422143 97.234669 
L 244.219286 97.641358 
L 245.016429 97.664647 
L 245.813571 97.304479 
L 246.610714 96.586233 
L 247.407857 95.561449 
L 248.603571 93.611428 
L 253.386429 85.136352 
L 258.169286 77.688778 
L 259.365 76.216706 
L 260.162143 75.492798 
L 260.959286 75.028938 
L 261.756429 74.850559 
L 262.553571 74.9579 
L 263.350714 75.32345 
L 264.546429 76.229511 
L 267.735 78.962585 
L 271.322143 81.348596 
L 272.517857 82.638835 
L 273.713571 84.327398 
L 277.300714 89.882924 
L 278.097857 90.690208 
L 278.895 91.194796 
L 279.692143 91.366248 
L 280.489286 91.199008 
L 281.286429 90.712798 
L 282.083571 89.949471 
L 283.279286 88.41318 
L 287.265 82.632493 
L 288.460714 81.488074 
L 289.257857 81.011863 
L 290.055 80.780939 
L 290.852143 80.782829 
L 292.047857 81.123716 
L 294.040714 81.888334 
L 294.837857 81.951962 
L 295.635 81.729567 
L 296.432143 81.166237 
L 297.229286 80.259018 
L 298.425 78.384411 
L 300.816429 74.346765 
L 301.613571 73.44656 
L 302.410714 72.95766 
L 302.809286 72.885867 
L 303.207857 72.933074 
L 304.005 73.378922 
L 304.802143 74.2588 
L 305.599286 75.502049 
L 306.795 77.834464 
L 309.186429 82.78237 
L 310.382143 84.66885 
L 311.179286 85.509729 
L 311.976429 85.955121 
L 312.773571 85.984165 
L 313.570714 85.609553 
L 314.367857 84.881188 
L 315.563571 83.319147 
L 317.556429 80.455994 
L 318.353571 79.579655 
L 319.150714 79.010109 
L 319.947857 78.813347 
L 320.745 79.023976 
L 321.542143 79.646691 
L 322.339286 80.658398 
L 323.136429 82.010149 
L 324.332143 84.515836 
L 325.926429 88.224292 
L 325.926429 88.224292 
" clip-path="url(#pf69953f56a)" style="fill: none; stroke: #2ca02c; stroke-opacity: 0.5; stroke-width: 1.5; stroke-linecap: round"/>
   </g>
   <g id="line2d_17">
    <path d="M 47.723571 91.68769 
L 50.513571 88.951244 
L 55.296429 84.675729 
L 56.492143 83.823345 
L 57.289286 83.462206 
L 58.086429 83.361396 
L 58.883571 83.604182 
L 59.680714 84.261814 
L 60.477857 85.380433 
L 61.275 86.971016 
L 62.072143 89.003333 
L 63.267857 92.713604 
L 66.855 104.639274 
L 67.652143 106.622936 
L 68.449286 108.173937 
L 69.246429 109.266154 
L 70.043571 109.903866 
L 70.840714 110.113486 
L 71.637857 109.934531 
L 72.435 109.41227 
L 73.232143 108.593694 
L 74.427857 106.917572 
L 76.022143 104.136317 
L 78.413571 99.86185 
L 79.609286 98.170804 
L 80.406429 97.333358 
L 81.203571 96.767784 
L 82.000714 96.493309 
L 82.797857 96.517346 
L 83.595 96.837133 
L 84.392143 97.441322 
L 85.189286 98.31146 
L 86.385 100.059359 
L 87.580714 102.240693 
L 89.573571 106.488981 
L 93.160714 114.359541 
L 94.755 117.25024 
L 95.950714 118.927332 
L 96.747857 119.747689 
L 97.545 120.290517 
L 98.342143 120.523374 
L 99.139286 120.418952 
L 99.936429 119.960561 
L 100.733571 119.146601 
L 101.530714 117.992957 
L 102.726429 115.704088 
L 104.320714 111.91868 
L 106.712143 106.041767 
L 107.907857 103.698003 
L 108.705 102.522585 
L 109.502143 101.695029 
L 110.299286 101.214968 
L 111.096429 101.05503 
L 111.893571 101.165188 
L 113.089286 101.687685 
L 115.879286 103.240292 
L 117.075 103.562591 
L 118.270714 103.586998 
L 122.256429 103.219672 
L 123.452143 103.56516 
L 124.647857 104.196178 
L 127.836429 106.161899 
L 129.032143 106.512032 
L 130.227857 106.546048 
L 133.416429 106.312421 
L 134.213571 106.58576 
L 135.010714 107.124923 
L 135.807857 107.955467 
L 136.605 109.063231 
L 138.199286 111.829223 
L 139.395 113.896562 
L 140.192143 114.987262 
L 140.989286 115.689489 
L 141.387857 115.865652 
L 141.786429 115.916936 
L 142.185 115.842251 
L 142.982143 115.330941 
L 143.779286 114.399062 
L 144.975 112.460903 
L 147.765 107.565576 
L 148.960714 105.937718 
L 150.555 104.234178 
L 153.345 101.736264 
L 154.540714 100.837383 
L 155.337857 100.415418 
L 156.135 100.218931 
L 156.932143 100.311381 
L 157.729286 100.734933 
L 158.526429 101.502202 
L 159.323571 102.59245 
L 160.519286 104.707772 
L 163.707857 110.856424 
L 164.505 111.937625 
L 165.302143 112.670421 
L 166.099286 113.014942 
L 166.896429 112.961413 
L 167.693571 112.529294 
L 168.490714 111.763703 
L 169.686429 110.136244 
L 174.070714 103.303206 
L 175.266429 102.122958 
L 176.462143 101.362881 
L 177.657857 100.924531 
L 185.230714 99.069845 
L 186.426429 99.121462 
L 187.622143 99.375183 
L 191.209286 100.397173 
L 192.405 100.439037 
L 193.600714 100.241855 
L 195.195 99.703277 
L 197.586429 98.85173 
L 198.782143 98.654173 
L 199.977857 98.697276 
L 201.173571 98.97155 
L 203.166429 99.734357 
L 205.159286 100.462535 
L 206.355 100.713216 
L 207.550714 100.748249 
L 208.746429 100.524507 
L 209.942143 100.02589 
L 211.137857 99.278013 
L 213.130714 97.698305 
L 215.123571 96.193215 
L 216.319286 95.571236 
L 217.515 95.263581 
L 218.710714 95.276811 
L 219.906429 95.538728 
L 222.696429 96.302437 
L 223.892143 96.332987 
L 225.087857 96.045091 
L 226.283571 95.434616 
L 227.877857 94.25981 
L 230.269286 92.439067 
L 231.465 91.800434 
L 232.660714 91.408773 
L 234.255 91.154406 
L 236.247857 90.842434 
L 237.842143 90.339366 
L 240.233571 89.505479 
L 241.030714 89.422105 
L 241.827857 89.527678 
L 242.625 89.853064 
L 243.422143 90.402705 
L 244.617857 91.584924 
L 247.806429 95.12887 
L 248.603571 95.618537 
L 249.400714 95.793302 
L 250.197857 95.608252 
L 250.995 95.044183 
L 251.792143 94.108143 
L 252.589286 92.832684 
L 253.785 90.409031 
L 256.176429 84.716576 
L 257.770714 81.206265 
L 258.966429 79.107349 
L 259.763571 78.040224 
L 260.560714 77.262124 
L 261.357857 76.776579 
L 262.155 76.574881 
L 262.952143 76.638651 
L 263.749286 76.942671 
L 264.546429 77.457685 
L 265.742143 78.558026 
L 266.937857 79.966429 
L 268.532143 82.207787 
L 270.525 85.478825 
L 273.713571 90.917668 
L 274.909286 92.392978 
L 275.706429 93.050024 
L 276.503571 93.438374 
L 277.300714 93.598415 
L 278.496429 93.581136 
L 280.090714 93.562299 
L 281.286429 93.839824 
L 282.482143 94.393171 
L 284.475 95.381995 
L 285.272143 95.565997 
L 286.069286 95.544461 
L 286.866429 95.312401 
L 288.062143 94.661724 
L 290.055 93.490954 
L 290.852143 93.287102 
L 291.649286 93.363769 
L 292.446429 93.77515 
L 293.243571 94.545241 
L 294.040714 95.665119 
L 295.236429 97.900279 
L 298.823571 105.453035 
L 299.620714 106.502528 
L 300.417857 107.093402 
L 300.816429 107.201468 
L 301.215 107.18252 
L 301.613571 107.038913 
L 302.410714 106.402203 
L 303.207857 105.367014 
L 304.403571 103.31023 
L 307.193571 98.143608 
L 308.787857 95.763288 
L 311.577857 92.231668 
L 314.766429 88.363759 
L 315.962143 87.237912 
L 317.157857 86.44255 
L 318.353571 85.988379 
L 319.549286 85.813267 
L 321.542143 85.849676 
L 323.933571 85.877741 
L 325.926429 85.683213 
L 325.926429 85.683213 
" clip-path="url(#pf69953f56a)" style="fill: none; stroke: #d62728; stroke-opacity: 0.5; stroke-width: 1.5; stroke-linecap: round"/>
   </g>
   <g id="line2d_18">
    <path d="M 47.723571 109.88532 
L 48.520714 109.862332 
L 49.317857 110.01866 
L 50.513571 110.550174 
L 52.905 111.801092 
L 53.702143 111.954254 
L 54.499286 111.878654 
L 55.296429 111.575128 
L 56.492143 110.802085 
L 58.086429 109.663721 
L 58.883571 109.290833 
L 59.680714 109.17577 
L 60.477857 109.381522 
L 61.275 109.935397 
L 62.072143 110.825183 
L 63.267857 112.663844 
L 66.057857 117.390142 
L 66.855 118.298438 
L 67.652143 118.845635 
L 68.449286 119.005552 
L 69.246429 118.794125 
L 70.043571 118.260476 
L 70.840714 117.472691 
L 72.036429 115.966899 
L 74.029286 112.978495 
L 75.623571 110.223914 
L 77.217857 106.997718 
L 79.609286 101.427277 
L 81.203571 97.896609 
L 82.399286 95.770212 
L 83.196429 94.697502 
L 83.993571 93.921354 
L 84.790714 93.430676 
L 85.587857 93.193481 
L 86.385 93.164933 
L 87.580714 93.405864 
L 89.175 94.033983 
L 91.965 95.453151 
L 95.950714 97.488327 
L 97.545 98.000518 
L 99.139286 98.209986 
L 102.726429 98.404241 
L 103.523571 98.70761 
L 104.320714 99.204032 
L 105.117857 99.906713 
L 106.313571 101.304948 
L 109.900714 106.024855 
L 111.096429 107.052077 
L 111.893571 107.503198 
L 113.089286 107.872346 
L 114.285 107.965826 
L 115.879286 107.838643 
L 117.872143 107.466052 
L 119.466429 107.003656 
L 121.060714 106.309566 
L 122.655 105.33152 
L 126.242143 102.909164 
L 127.039286 102.649768 
L 127.836429 102.607938 
L 128.633571 102.814344 
L 129.430714 103.271459 
L 130.626429 104.34746 
L 133.017857 106.839877 
L 133.815 107.386745 
L 134.612143 107.662127 
L 135.409286 107.651952 
L 136.206429 107.391874 
L 137.402143 106.704043 
L 138.996429 105.734532 
L 140.192143 105.292734 
L 141.387857 105.16315 
L 143.380714 105.144016 
L 144.177857 104.94126 
L 144.975 104.507891 
L 145.772143 103.817022 
L 146.967857 102.378876 
L 148.960714 99.802258 
L 149.757857 99.096618 
L 150.555 98.73709 
L 151.352143 98.768756 
L 152.149286 99.179563 
L 152.946429 99.901288 
L 156.135 103.279229 
L 156.932143 103.574036 
L 157.729286 103.494296 
L 158.526429 103.056391 
L 159.323571 102.32797 
L 160.917857 100.427866 
L 162.113571 99.065633 
L 162.910714 98.358474 
L 163.707857 97.869122 
L 164.505 97.60667 
L 165.302143 97.548629 
L 166.497857 97.740984 
L 170.882143 98.847426 
L 172.476429 99.224436 
L 173.672143 99.75457 
L 174.867857 100.621816 
L 176.063571 101.84828 
L 178.056429 104.39684 
L 179.650714 106.272925 
L 180.447857 106.924534 
L 181.245 107.286751 
L 182.042143 107.314005 
L 182.839286 106.992719 
L 183.636429 106.343907 
L 184.433571 105.420705 
L 186.027857 103.076849 
L 188.020714 100.173429 
L 188.817857 99.287317 
L 189.615 98.647271 
L 190.412143 98.287409 
L 191.209286 98.222373 
L 192.006429 98.446164 
L 192.803571 98.932744 
L 193.999286 100.053323 
L 197.985 104.424921 
L 198.782143 104.952009 
L 199.579286 105.283413 
L 200.376429 105.415112 
L 201.173571 105.352128 
L 201.970714 105.103311 
L 202.767857 104.677177 
L 203.963571 103.721069 
L 205.159286 102.412278 
L 206.753571 100.230754 
L 209.942143 95.59037 
L 211.137857 94.308277 
L 211.935 93.730634 
L 212.732143 93.413402 
L 213.529286 93.368652 
L 214.326429 93.585383 
L 215.123571 94.028103 
L 216.319286 94.984781 
L 218.710714 97.01833 
L 219.906429 97.670442 
L 221.102143 97.988733 
L 224.290714 98.391999 
L 225.087857 98.752873 
L 225.885 99.306557 
L 227.080714 100.470579 
L 229.472143 103.128894 
L 230.269286 103.710996 
L 231.066429 103.94774 
L 231.465 103.907961 
L 231.863571 103.752074 
L 232.660714 103.076748 
L 233.457857 101.920802 
L 234.255 100.329594 
L 235.450714 97.321793 
L 239.037857 87.484428 
L 240.233571 85.030543 
L 241.030714 83.80048 
L 241.827857 82.931354 
L 242.625 82.444214 
L 243.422143 82.351643 
L 244.219286 82.65702 
L 245.016429 83.353271 
L 245.813571 84.420226 
L 246.610714 85.822352 
L 247.806429 88.437992 
L 249.799286 93.55099 
L 251.792143 98.453628 
L 252.987857 100.809623 
L 253.785 102.040145 
L 254.582143 102.975164 
L 255.379286 103.609285 
L 256.176429 103.946231 
L 256.973571 103.996009 
L 257.770714 103.774376 
L 258.567857 103.305831 
L 259.763571 102.224155 
L 261.756429 99.890871 
L 263.350714 98.186017 
L 264.147857 97.575323 
L 264.945 97.195843 
L 265.742143 97.081254 
L 266.539286 97.246551 
L 267.336429 97.686636 
L 268.133571 98.375477 
L 269.329286 99.766002 
L 272.119286 103.296869 
L 272.916429 103.97386 
L 273.713571 104.361049 
L 274.510714 104.417322 
L 275.307857 104.133537 
L 276.105 103.531372 
L 276.902143 102.658556 
L 278.097857 100.986824 
L 282.083571 94.900991 
L 283.279286 93.490112 
L 284.475 92.375348 
L 285.670714 91.536291 
L 286.866429 90.926312 
L 288.460714 90.391377 
L 289.656429 90.196569 
L 290.852143 90.253906 
L 291.649286 90.487426 
L 292.446429 90.910986 
L 293.243571 91.533643 
L 294.439286 92.788371 
L 296.830714 95.554193 
L 297.627857 96.19181 
L 298.425 96.546354 
L 299.222143 96.582819 
L 300.019286 96.3114 
L 300.816429 95.787176 
L 304.005 93.165716 
L 304.802143 92.876745 
L 305.599286 92.857829 
L 306.396429 93.114945 
L 307.193571 93.625071 
L 308.389286 94.761973 
L 310.382143 97.150989 
L 312.375 99.416705 
L 313.570714 100.43405 
L 314.367857 100.900643 
L 315.165 101.172086 
L 315.962143 101.23829 
L 316.759286 101.102373 
L 317.556429 100.778511 
L 318.752143 99.991551 
L 320.346429 98.543803 
L 323.535 95.452156 
L 324.730714 94.676806 
L 325.926429 94.235972 
L 325.926429 94.235972 
" clip-path="url(#pf69953f56a)" style="fill: none; stroke: #9467bd; stroke-opacity: 0.5; stroke-width: 1.5; stroke-linecap: round"/>
   </g>
   <g id="line2d_19">
    <path d="M 47.723571 98.568855 
L 49.716429 97.903537 
L 51.310714 97.622806 
L 53.702143 97.529923 
L 58.485 97.422466 
L 59.282143 97.643291 
L 60.079286 98.041414 
L 60.876429 98.640142 
L 62.072143 99.910959 
L 63.666429 102.12225 
L 65.659286 104.994908 
L 66.855 106.348382 
L 67.652143 106.987139 
L 68.449286 107.388306 
L 69.246429 107.551497 
L 70.043571 107.491499 
L 70.840714 107.232209 
L 72.036429 106.529058 
L 73.232143 105.52668 
L 74.826429 103.870598 
L 78.413571 99.951112 
L 79.609286 98.941648 
L 80.805 98.186897 
L 82.000714 97.68881 
L 83.196429 97.41327 
L 84.790714 97.30902 
L 86.385 97.431881 
L 87.979286 97.758158 
L 89.972143 98.434192 
L 93.957857 99.982233 
L 95.153571 100.17577 
L 96.349286 100.117513 
L 97.545 99.793087 
L 99.139286 99.037533 
L 101.530714 97.805918 
L 102.726429 97.45827 
L 103.523571 97.399102 
L 104.320714 97.493942 
L 105.516429 97.923947 
L 106.712143 98.667132 
L 107.907857 99.665726 
L 109.502143 101.286556 
L 111.893571 104.078319 
L 114.683571 107.280804 
L 115.879286 108.342503 
L 117.075 109.05613 
L 117.872143 109.305848 
L 118.669286 109.373685 
L 119.865 109.178617 
L 121.459286 108.562502 
L 123.850714 107.565464 
L 125.445 107.166535 
L 127.039286 107.021896 
L 128.633571 107.090539 
L 130.227857 107.355438 
L 132.220714 107.941528 
L 137.402143 109.701587 
L 138.996429 109.99132 
L 140.192143 110.009007 
L 141.387857 109.763163 
L 142.185 109.414924 
L 143.380714 108.58545 
L 144.576429 107.403821 
L 146.170714 105.454085 
L 148.163571 103.032575 
L 149.359286 101.944022 
L 150.156429 101.45272 
L 150.953571 101.160192 
L 151.750714 101.052876 
L 152.946429 101.171683 
L 154.540714 101.644736 
L 159.323571 103.468405 
L 161.316429 104.487402 
L 163.707857 105.768919 
L 164.903571 106.179563 
L 166.099286 106.29449 
L 167.295 106.073751 
L 168.490714 105.549109 
L 170.085 104.537852 
L 172.875 102.722622 
L 174.070714 102.210809 
L 175.266429 101.957872 
L 176.462143 101.972775 
L 177.657857 102.210119 
L 181.643571 103.23895 
L 182.839286 103.256064 
L 184.433571 103.032855 
L 186.426429 102.516679 
L 188.419286 101.787222 
L 190.013571 100.968785 
L 194.796429 98.148846 
L 195.992143 97.812749 
L 197.586429 97.662409 
L 203.565 97.517829 
L 205.557857 97.500859 
L 207.152143 97.680831 
L 209.543571 98.221123 
L 213.130714 99.038891 
L 218.312143 99.994274 
L 219.507857 99.938501 
L 220.305 99.734529 
L 221.102143 99.374303 
L 222.297857 98.542377 
L 223.892143 97.016228 
L 226.283571 94.581662 
L 227.479286 93.651544 
L 228.675 93.037899 
L 229.870714 92.727787 
L 231.465 92.626564 
L 233.856429 92.526509 
L 235.450714 92.19249 
L 237.443571 91.485601 
L 239.835 90.661256 
L 241.429286 90.393704 
L 243.023571 90.40409 
L 245.813571 90.769606 
L 247.806429 90.938713 
L 249.400714 90.839777 
L 250.596429 90.565484 
L 251.792143 90.091346 
L 253.386429 89.163302 
L 256.176429 87.116647 
L 258.169286 85.81129 
L 259.365 85.25335 
L 260.560714 84.936846 
L 261.756429 84.907929 
L 262.952143 85.183152 
L 264.147857 85.725981 
L 266.539286 87.202096 
L 268.532143 88.335642 
L 271.720714 90.053911 
L 274.112143 91.747287 
L 275.706429 92.765589 
L 276.902143 93.222038 
L 277.699286 93.319894 
L 278.496429 93.23888 
L 279.293571 92.984855 
L 280.489286 92.323493 
L 282.083571 91.077199 
L 286.467857 87.364146 
L 287.663571 86.663478 
L 288.859286 86.257706 
L 289.656429 86.201133 
L 290.453571 86.347872 
L 291.250714 86.716671 
L 292.047857 87.312403 
L 293.243571 88.595028 
L 294.837857 90.788388 
L 296.432143 92.997495 
L 297.627857 94.282032 
L 298.425 94.849504 
L 299.222143 95.154035 
L 300.019286 95.198272 
L 300.816429 95.009663 
L 302.012143 94.397933 
L 305.599286 92.176555 
L 306.795 91.86474 
L 307.990714 91.852552 
L 309.585 92.166745 
L 311.976429 92.729977 
L 313.172143 92.804126 
L 314.367857 92.673505 
L 315.962143 92.239133 
L 319.150714 91.23619 
L 320.346429 91.073442 
L 321.542143 91.112693 
L 322.737857 91.373985 
L 323.933571 91.846112 
L 325.926429 92.881402 
L 325.926429 92.881402 
" clip-path="url(#pf69953f56a)" style="fill: none; stroke: #000000; stroke-width: 1.5; stroke-linecap: round"/>
   </g>
   <g id="patch_3">
    <path d="M 47.325 177.098906 
L 47.325 10.778906 
" style="fill: none; stroke: #cccccc; stroke-width: 0.8; stroke-linejoin: miter; stroke-linecap: square"/>
   </g>
   <g id="patch_4">
    <path d="M 326.325 177.098906 
L 326.325 10.778906 
" style="fill: none; stroke: #cccccc; stroke-width: 0.8; stroke-linejoin: miter; stroke-linecap: square"/>
   </g>
   <g id="patch_5">
    <path d="M 47.325 177.098906 
L 326.325 177.098906 
" style="fill: none; stroke: #cccccc; stroke-width: 0.8; stroke-linejoin: miter; stroke-linecap: square"/>
   </g>
   <g id="patch_6">
    <path d="M 47.325 10.778906 
L 326.325 10.778906 
" style="fill: none; stroke: #cccccc; stroke-width: 0.8; stroke-linejoin: miter; stroke-linecap: square"/>
   </g>
   <g id="legend_1">
    <g id="patch_7">
     <path d="M 333.325 104.532031 
L 458.259375 104.532031 
Q 460.259375 104.532031 460.259375 102.532031 
L 460.259375 17.778906 
Q 460.259375 15.778906 458.259375 15.778906 
L 333.325 15.778906 
Q 331.325 15.778906 331.325 17.778906 
L 331.325 102.532031 
Q 331.325 104.532031 333.325 104.532031 
z
" style="fill: #ffffff; opacity: 0.8; stroke: #cccccc; stroke-linejoin: miter"/>
    </g>
    <g id="line2d_20">
     <path d="M 335.325 23.466406 
L 345.325 23.466406 
L 355.325 23.466406 
" style="fill: none; stroke: #1f77b4; stroke-opacity: 0.5; stroke-width: 1.5; stroke-linecap: round"/>
    </g>
    <g id="text_16">
     <!-- Finger 1, var = 0.001 -->
     <g style="fill: #262626" transform="translate(363.325 26.966406) scale(0.1 -0.1)">
      <defs>
       <path id="ArialMT-46" d="M 525 0 
L 525 4581 
L 3616 4581 
L 3616 4041 
L 1131 4041 
L 1131 2622 
L 3281 2622 
L 3281 2081 
L 1131 2081 
L 1131 0 
L 525 0 
z
" transform="scale(0.015625)"/>
       <path id="ArialMT-6e" d="M 422 0 
L 422 3319 
L 928 3319 
L 928 2847 
Q 1294 3394 1984 3394 
Q 2284 3394 2536 3286 
Q 2788 3178 2913 3003 
Q 3038 2828 3088 2588 
Q 3119 2431 3119 2041 
L 3119 0 
L 2556 0 
L 2556 2019 
Q 2556 2363 2490 2533 
Q 2425 2703 2258 2804 
Q 2091 2906 1866 2906 
Q 1506 2906 1245 2678 
Q 984 2450 984 1813 
L 984 0 
L 422 0 
z
" transform="scale(0.015625)"/>
       <path id="ArialMT-67" d="M 319 -275 
L 866 -356 
Q 900 -609 1056 -725 
Q 1266 -881 1628 -881 
Q 2019 -881 2231 -725 
Q 2444 -569 2519 -288 
Q 2563 -116 2559 434 
Q 2191 0 1641 0 
Q 956 0 581 494 
Q 206 988 206 1678 
Q 206 2153 378 2554 
Q 550 2956 876 3175 
Q 1203 3394 1644 3394 
Q 2231 3394 2613 2919 
L 2613 3319 
L 3131 3319 
L 3131 450 
Q 3131 -325 2973 -648 
Q 2816 -972 2473 -1159 
Q 2131 -1347 1631 -1347 
Q 1038 -1347 672 -1080 
Q 306 -813 319 -275 
z
M 784 1719 
Q 784 1066 1043 766 
Q 1303 466 1694 466 
Q 2081 466 2343 764 
Q 2606 1063 2606 1700 
Q 2606 2309 2336 2618 
Q 2066 2928 1684 2928 
Q 1309 2928 1046 2623 
Q 784 2319 784 1719 
z
" transform="scale(0.015625)"/>
       <path id="ArialMT-2c" d="M 569 0 
L 569 641 
L 1209 641 
L 1209 0 
Q 1209 -353 1084 -570 
Q 959 -788 688 -906 
L 531 -666 
Q 709 -588 793 -436 
Q 878 -284 888 0 
L 569 0 
z
" transform="scale(0.015625)"/>
       <path id="ArialMT-76" d="M 1344 0 
L 81 3319 
L 675 3319 
L 1388 1331 
Q 1503 1009 1600 663 
Q 1675 925 1809 1294 
L 2547 3319 
L 3125 3319 
L 1869 0 
L 1344 0 
z
" transform="scale(0.015625)"/>
       <path id="ArialMT-61" d="M 2588 409 
Q 2275 144 1986 34 
Q 1697 -75 1366 -75 
Q 819 -75 525 192 
Q 231 459 231 875 
Q 231 1119 342 1320 
Q 453 1522 633 1644 
Q 813 1766 1038 1828 
Q 1203 1872 1538 1913 
Q 2219 1994 2541 2106 
Q 2544 2222 2544 2253 
Q 2544 2597 2384 2738 
Q 2169 2928 1744 2928 
Q 1347 2928 1158 2789 
Q 969 2650 878 2297 
L 328 2372 
Q 403 2725 575 2942 
Q 747 3159 1072 3276 
Q 1397 3394 1825 3394 
Q 2250 3394 2515 3294 
Q 2781 3194 2906 3042 
Q 3031 2891 3081 2659 
Q 3109 2516 3109 2141 
L 3109 1391 
Q 3109 606 3145 398 
Q 3181 191 3288 0 
L 2700 0 
Q 2613 175 2588 409 
z
M 2541 1666 
Q 2234 1541 1622 1453 
Q 1275 1403 1131 1340 
Q 988 1278 909 1158 
Q 831 1038 831 891 
Q 831 666 1001 516 
Q 1172 366 1500 366 
Q 1825 366 2078 508 
Q 2331 650 2450 897 
Q 2541 1088 2541 1459 
L 2541 1666 
z
" transform="scale(0.015625)"/>
       <path id="ArialMT-3d" d="M 3381 2694 
L 356 2694 
L 356 3219 
L 3381 3219 
L 3381 2694 
z
M 3381 1303 
L 356 1303 
L 356 1828 
L 3381 1828 
L 3381 1303 
z
" transform="scale(0.015625)"/>
      </defs>
      <use xlink:href="#ArialMT-46"/>
      <use xlink:href="#ArialMT-69" x="61.083984"/>
      <use xlink:href="#ArialMT-6e" x="83.300781"/>
      <use xlink:href="#ArialMT-67" x="138.916016"/>
      <use xlink:href="#ArialMT-65" x="194.53125"/>
      <use xlink:href="#ArialMT-72" x="250.146484"/>
      <use xlink:href="#ArialMT-20" x="283.447266"/>
      <use xlink:href="#ArialMT-31" x="311.230469"/>
      <use xlink:href="#ArialMT-2c" x="366.845703"/>
      <use xlink:href="#ArialMT-20" x="394.628906"/>
      <use xlink:href="#ArialMT-76" x="422.412109"/>
      <use xlink:href="#ArialMT-61" x="472.412109"/>
      <use xlink:href="#ArialMT-72" x="528.027344"/>
      <use xlink:href="#ArialMT-20" x="561.328125"/>
      <use xlink:href="#ArialMT-3d" x="589.111328"/>
      <use xlink:href="#ArialMT-20" x="647.509766"/>
      <use xlink:href="#ArialMT-30" x="675.292969"/>
      <use xlink:href="#ArialMT-2e" x="730.908203"/>
      <use xlink:href="#ArialMT-30" x="758.691406"/>
      <use xlink:href="#ArialMT-30" x="814.306641"/>
      <use xlink:href="#ArialMT-31" x="869.921875"/>
     </g>
    </g>
    <g id="line2d_21">
     <path d="M 335.325 37.758594 
L 345.325 37.758594 
L 355.325 37.758594 
" style="fill: none; stroke: #ff7f0e; stroke-opacity: 0.5; stroke-width: 1.5; stroke-linecap: round"/>
    </g>
    <g id="text_17">
     <!-- Finger 2, var = 0.001 -->
     <g style="fill: #262626" transform="translate(363.325 41.258594) scale(0.1 -0.1)">
      <use xlink:href="#ArialMT-46"/>
      <use xlink:href="#ArialMT-69" x="61.083984"/>
      <use xlink:href="#ArialMT-6e" x="83.300781"/>
      <use xlink:href="#ArialMT-67" x="138.916016"/>
      <use xlink:href="#ArialMT-65" x="194.53125"/>
      <use xlink:href="#ArialMT-72" x="250.146484"/>
      <use xlink:href="#ArialMT-20" x="283.447266"/>
      <use xlink:href="#ArialMT-32" x="311.230469"/>
      <use xlink:href="#ArialMT-2c" x="366.845703"/>
      <use xlink:href="#ArialMT-20" x="394.628906"/>
      <use xlink:href="#ArialMT-76" x="422.412109"/>
      <use xlink:href="#ArialMT-61" x="472.412109"/>
      <use xlink:href="#ArialMT-72" x="528.027344"/>
      <use xlink:href="#ArialMT-20" x="561.328125"/>
      <use xlink:href="#ArialMT-3d" x="589.111328"/>
      <use xlink:href="#ArialMT-20" x="647.509766"/>
      <use xlink:href="#ArialMT-30" x="675.292969"/>
      <use xlink:href="#ArialMT-2e" x="730.908203"/>
      <use xlink:href="#ArialMT-30" x="758.691406"/>
      <use xlink:href="#ArialMT-30" x="814.306641"/>
      <use xlink:href="#ArialMT-31" x="869.921875"/>
     </g>
    </g>
    <g id="line2d_22">
     <path d="M 335.325 52.050781 
L 345.325 52.050781 
L 355.325 52.050781 
" style="fill: none; stroke: #2ca02c; stroke-opacity: 0.5; stroke-width: 1.5; stroke-linecap: round"/>
    </g>
    <g id="text_18">
     <!-- Finger 3, var = 0.001 -->
     <g style="fill: #262626" transform="translate(363.325 55.550781) scale(0.1 -0.1)">
      <use xlink:href="#ArialMT-46"/>
      <use xlink:href="#ArialMT-69" x="61.083984"/>
      <use xlink:href="#ArialMT-6e" x="83.300781"/>
      <use xlink:href="#ArialMT-67" x="138.916016"/>
      <use xlink:href="#ArialMT-65" x="194.53125"/>
      <use xlink:href="#ArialMT-72" x="250.146484"/>
      <use xlink:href="#ArialMT-20" x="283.447266"/>
      <use xlink:href="#ArialMT-33" x="311.230469"/>
      <use xlink:href="#ArialMT-2c" x="366.845703"/>
      <use xlink:href="#ArialMT-20" x="394.628906"/>
      <use xlink:href="#ArialMT-76" x="422.412109"/>
      <use xlink:href="#ArialMT-61" x="472.412109"/>
      <use xlink:href="#ArialMT-72" x="528.027344"/>
      <use xlink:href="#ArialMT-20" x="561.328125"/>
      <use xlink:href="#ArialMT-3d" x="589.111328"/>
      <use xlink:href="#ArialMT-20" x="647.509766"/>
      <use xlink:href="#ArialMT-30" x="675.292969"/>
      <use xlink:href="#ArialMT-2e" x="730.908203"/>
      <use xlink:href="#ArialMT-30" x="758.691406"/>
      <use xlink:href="#ArialMT-30" x="814.306641"/>
      <use xlink:href="#ArialMT-31" x="869.921875"/>
     </g>
    </g>
    <g id="line2d_23">
     <path d="M 335.325 66.342969 
L 345.325 66.342969 
L 355.325 66.342969 
" style="fill: none; stroke: #d62728; stroke-opacity: 0.5; stroke-width: 1.5; stroke-linecap: round"/>
    </g>
    <g id="text_19">
     <!-- Finger 4, var = 0.001 -->
     <g style="fill: #262626" transform="translate(363.325 69.842969) scale(0.1 -0.1)">
      <defs>
       <path id="ArialMT-34" d="M 2069 0 
L 2069 1097 
L 81 1097 
L 81 1613 
L 2172 4581 
L 2631 4581 
L 2631 1613 
L 3250 1613 
L 3250 1097 
L 2631 1097 
L 2631 0 
L 2069 0 
z
M 2069 1613 
L 2069 3678 
L 634 1613 
L 2069 1613 
z
" transform="scale(0.015625)"/>
      </defs>
      <use xlink:href="#ArialMT-46"/>
      <use xlink:href="#ArialMT-69" x="61.083984"/>
      <use xlink:href="#ArialMT-6e" x="83.300781"/>
      <use xlink:href="#ArialMT-67" x="138.916016"/>
      <use xlink:href="#ArialMT-65" x="194.53125"/>
      <use xlink:href="#ArialMT-72" x="250.146484"/>
      <use xlink:href="#ArialMT-20" x="283.447266"/>
      <use xlink:href="#ArialMT-34" x="311.230469"/>
      <use xlink:href="#ArialMT-2c" x="366.845703"/>
      <use xlink:href="#ArialMT-20" x="394.628906"/>
      <use xlink:href="#ArialMT-76" x="422.412109"/>
      <use xlink:href="#ArialMT-61" x="472.412109"/>
      <use xlink:href="#ArialMT-72" x="528.027344"/>
      <use xlink:href="#ArialMT-20" x="561.328125"/>
      <use xlink:href="#ArialMT-3d" x="589.111328"/>
      <use xlink:href="#ArialMT-20" x="647.509766"/>
      <use xlink:href="#ArialMT-30" x="675.292969"/>
      <use xlink:href="#ArialMT-2e" x="730.908203"/>
      <use xlink:href="#ArialMT-30" x="758.691406"/>
      <use xlink:href="#ArialMT-30" x="814.306641"/>
      <use xlink:href="#ArialMT-31" x="869.921875"/>
     </g>
    </g>
    <g id="line2d_24">
     <path d="M 335.325 80.635156 
L 345.325 80.635156 
L 355.325 80.635156 
" style="fill: none; stroke: #9467bd; stroke-opacity: 0.5; stroke-width: 1.5; stroke-linecap: round"/>
    </g>
    <g id="text_20">
     <!-- Finger 5, var = 0.000 -->
     <g style="fill: #262626" transform="translate(363.325 84.135156) scale(0.1 -0.1)">
      <use xlink:href="#ArialMT-46"/>
      <use xlink:href="#ArialMT-69" x="61.083984"/>
      <use xlink:href="#ArialMT-6e" x="83.300781"/>
      <use xlink:href="#ArialMT-67" x="138.916016"/>
      <use xlink:href="#ArialMT-65" x="194.53125"/>
      <use xlink:href="#ArialMT-72" x="250.146484"/>
      <use xlink:href="#ArialMT-20" x="283.447266"/>
      <use xlink:href="#ArialMT-35" x="311.230469"/>
      <use xlink:href="#ArialMT-2c" x="366.845703"/>
      <use xlink:href="#ArialMT-20" x="394.628906"/>
      <use xlink:href="#ArialMT-76" x="422.412109"/>
      <use xlink:href="#ArialMT-61" x="472.412109"/>
      <use xlink:href="#ArialMT-72" x="528.027344"/>
      <use xlink:href="#ArialMT-20" x="561.328125"/>
      <use xlink:href="#ArialMT-3d" x="589.111328"/>
      <use xlink:href="#ArialMT-20" x="647.509766"/>
      <use xlink:href="#ArialMT-30" x="675.292969"/>
      <use xlink:href="#ArialMT-2e" x="730.908203"/>
      <use xlink:href="#ArialMT-30" x="758.691406"/>
      <use xlink:href="#ArialMT-30" x="814.306641"/>
      <use xlink:href="#ArialMT-30" x="869.921875"/>
     </g>
    </g>
    <g id="line2d_25">
     <path d="M 335.325 94.927344 
L 345.325 94.927344 
L 355.325 94.927344 
" style="fill: none; stroke: #000000; stroke-width: 1.5; stroke-linecap: round"/>
    </g>
    <g id="text_21">
     <!-- Average, var = 0.000 -->
     <g style="fill: #262626" transform="translate(363.325 98.427344) scale(0.1 -0.1)">
      <defs>
       <path id="ArialMT-41" d="M -9 0 
L 1750 4581 
L 2403 4581 
L 4278 0 
L 3588 0 
L 3053 1388 
L 1138 1388 
L 634 0 
L -9 0 
z
M 1313 1881 
L 2866 1881 
L 2388 3150 
Q 2169 3728 2063 4100 
Q 1975 3659 1816 3225 
L 1313 1881 
z
" transform="scale(0.015625)"/>
      </defs>
      <use xlink:href="#ArialMT-41"/>
      <use xlink:href="#ArialMT-76" x="64.949219"/>
      <use xlink:href="#ArialMT-65" x="114.949219"/>
      <use xlink:href="#ArialMT-72" x="170.564453"/>
      <use xlink:href="#ArialMT-61" x="203.865234"/>
      <use xlink:href="#ArialMT-67" x="259.480469"/>
      <use xlink:href="#ArialMT-65" x="315.095703"/>
      <use xlink:href="#ArialMT-2c" x="370.710938"/>
      <use xlink:href="#ArialMT-20" x="398.494141"/>
      <use xlink:href="#ArialMT-76" x="426.277344"/>
      <use xlink:href="#ArialMT-61" x="476.277344"/>
      <use xlink:href="#ArialMT-72" x="531.892578"/>
      <use xlink:href="#ArialMT-20" x="565.193359"/>
      <use xlink:href="#ArialMT-3d" x="592.976562"/>
      <use xlink:href="#ArialMT-20" x="651.375"/>
      <use xlink:href="#ArialMT-30" x="679.158203"/>
      <use xlink:href="#ArialMT-2e" x="734.773438"/>
      <use xlink:href="#ArialMT-30" x="762.556641"/>
      <use xlink:href="#ArialMT-30" x="818.171875"/>
      <use xlink:href="#ArialMT-30" x="873.787109"/>
     </g>
    </g>
   </g>
  </g>
 </g>
 <defs>
  <clipPath id="pf69953f56a">
   <rect x="47.325" y="10.778906" width="279" height="166.32"/>
  </clipPath>
 </defs>
</svg>
