<?xml version="1.0" encoding="utf-8" standalone="no"?>
<!DOCTYPE svg PUBLIC "-//W3C//DTD SVG 1.1//EN"
  "http://www.w3.org/Graphics/SVG/1.1/DTD/svg11.dtd">
<svg xmlns:xlink="http://www.w3.org/1999/xlink" width="467.459375pt" height="213.828594pt" viewBox="0 0 467.459375 213.828594" xmlns="http://www.w3.org/2000/svg" version="1.1">
 <metadata>
  <rdf:RDF xmlns:dc="http://purl.org/dc/elements/1.1/" xmlns:cc="http://creativecommons.org/ns#" xmlns:rdf="http://www.w3.org/1999/02/22-rdf-syntax-ns#">
   <cc:Work>
    <dc:type rdf:resource="http://purl.org/dc/dcmitype/StillImage"/>
    <dc:date>2024-02-16T17:37:33.599354</dc:date>
    <dc:format>image/svg+xml</dc:format>
    <dc:creator>
     <cc:Agent>
      <dc:title>Matplotlib v3.7.2, https://matplotlib.org/</dc:title>
     </cc:Agent>
    </dc:creator>
   </cc:Work>
  </rdf:RDF>
 </metadata>
 <defs>
  <style type="text/css">*{stroke-linejoin: round; stroke-linecap: butt}</style>
 </defs>
 <g id="figure_1">
  <g id="patch_1">
   <path d="M 0 213.828594 
L 467.459375 213.828594 
L 467.459375 0 
L 0 0 
z
" style="fill: #ffffff"/>
  </g>
  <g id="axes_1">
   <g id="patch_2">
    <path d="M 47.325 177.098906 
L 326.325 177.098906 
L 326.325 10.778906 
L 47.325 10.778906 
z
" style="fill: #ffffff"/>
   </g>
   <g id="matplotlib.axis_1">
    <g id="xtick_1">
     <g id="line2d_1">
      <path d="M 67.253571 177.098906 
L 67.253571 10.778906 
" clip-path="url(#p8fd0fac961)" style="fill: none; stroke: #cccccc; stroke-width: 0.8; stroke-linecap: round"/>
     </g>
     <g id="text_1">
      <!-- −1.5 -->
      <g style="fill: #262626" transform="translate(57.383259 191.256719) scale(0.1 -0.1)">
       <defs>
        <path id="ArialMT-2212" d="M 3381 1997 
L 356 1997 
L 356 2522 
L 3381 2522 
L 3381 1997 
z
" transform="scale(0.015625)"/>
        <path id="ArialMT-31" d="M 2384 0 
L 1822 0 
L 1822 3584 
Q 1619 3391 1289 3197 
Q 959 3003 697 2906 
L 697 3450 
Q 1169 3672 1522 3987 
Q 1875 4303 2022 4600 
L 2384 4600 
L 2384 0 
z
" transform="scale(0.015625)"/>
        <path id="ArialMT-2e" d="M 581 0 
L 581 641 
L 1222 641 
L 1222 0 
L 581 0 
z
" transform="scale(0.015625)"/>
        <path id="ArialMT-35" d="M 266 1200 
L 856 1250 
Q 922 819 1161 601 
Q 1400 384 1738 384 
Q 2144 384 2425 690 
Q 2706 997 2706 1503 
Q 2706 1984 2436 2262 
Q 2166 2541 1728 2541 
Q 1456 2541 1237 2417 
Q 1019 2294 894 2097 
L 366 2166 
L 809 4519 
L 3088 4519 
L 3088 3981 
L 1259 3981 
L 1013 2750 
Q 1425 3038 1878 3038 
Q 2478 3038 2890 2622 
Q 3303 2206 3303 1553 
Q 3303 931 2941 478 
Q 2500 -78 1738 -78 
Q 1113 -78 717 272 
Q 322 622 266 1200 
z
" transform="scale(0.015625)"/>
       </defs>
       <use xlink:href="#ArialMT-2212"/>
       <use xlink:href="#ArialMT-31" x="58.398438"/>
       <use xlink:href="#ArialMT-2e" x="114.013672"/>
       <use xlink:href="#ArialMT-35" x="141.796875"/>
      </g>
     </g>
    </g>
    <g id="xtick_2">
     <g id="line2d_2">
      <path d="M 107.110714 177.098906 
L 107.110714 10.778906 
" clip-path="url(#p8fd0fac961)" style="fill: none; stroke: #cccccc; stroke-width: 0.8; stroke-linecap: round"/>
     </g>
     <g id="text_2">
      <!-- −1.0 -->
      <g style="fill: #262626" transform="translate(97.240402 191.256719) scale(0.1 -0.1)">
       <defs>
        <path id="ArialMT-30" d="M 266 2259 
Q 266 3072 433 3567 
Q 600 4063 929 4331 
Q 1259 4600 1759 4600 
Q 2128 4600 2406 4451 
Q 2684 4303 2865 4023 
Q 3047 3744 3150 3342 
Q 3253 2941 3253 2259 
Q 3253 1453 3087 958 
Q 2922 463 2592 192 
Q 2263 -78 1759 -78 
Q 1097 -78 719 397 
Q 266 969 266 2259 
z
M 844 2259 
Q 844 1131 1108 757 
Q 1372 384 1759 384 
Q 2147 384 2411 759 
Q 2675 1134 2675 2259 
Q 2675 3391 2411 3762 
Q 2147 4134 1753 4134 
Q 1366 4134 1134 3806 
Q 844 3388 844 2259 
z
" transform="scale(0.015625)"/>
       </defs>
       <use xlink:href="#ArialMT-2212"/>
       <use xlink:href="#ArialMT-31" x="58.398438"/>
       <use xlink:href="#ArialMT-2e" x="114.013672"/>
       <use xlink:href="#ArialMT-30" x="141.796875"/>
      </g>
     </g>
    </g>
    <g id="xtick_3">
     <g id="line2d_3">
      <path d="M 146.967857 177.098906 
L 146.967857 10.778906 
" clip-path="url(#p8fd0fac961)" style="fill: none; stroke: #cccccc; stroke-width: 0.8; stroke-linecap: round"/>
     </g>
     <g id="text_3">
      <!-- −0.5 -->
      <g style="fill: #262626" transform="translate(137.097545 191.256719) scale(0.1 -0.1)">
       <use xlink:href="#ArialMT-2212"/>
       <use xlink:href="#ArialMT-30" x="58.398438"/>
       <use xlink:href="#ArialMT-2e" x="114.013672"/>
       <use xlink:href="#ArialMT-35" x="141.796875"/>
      </g>
     </g>
    </g>
    <g id="xtick_4">
     <g id="line2d_4">
      <path d="M 186.825 177.098906 
L 186.825 10.778906 
" clip-path="url(#p8fd0fac961)" style="fill: none; stroke: #cccccc; stroke-width: 0.8; stroke-linecap: round"/>
     </g>
     <g id="text_4">
      <!-- 0.0 -->
      <g style="fill: #262626" transform="translate(179.875 191.256719) scale(0.1 -0.1)">
       <use xlink:href="#ArialMT-30"/>
       <use xlink:href="#ArialMT-2e" x="55.615234"/>
       <use xlink:href="#ArialMT-30" x="83.398438"/>
      </g>
     </g>
    </g>
    <g id="xtick_5">
     <g id="line2d_5">
      <path d="M 226.682143 177.098906 
L 226.682143 10.778906 
" clip-path="url(#p8fd0fac961)" style="fill: none; stroke: #cccccc; stroke-width: 0.8; stroke-linecap: round"/>
     </g>
     <g id="text_5">
      <!-- 0.5 -->
      <g style="fill: #262626" transform="translate(219.732143 191.256719) scale(0.1 -0.1)">
       <use xlink:href="#ArialMT-30"/>
       <use xlink:href="#ArialMT-2e" x="55.615234"/>
       <use xlink:href="#ArialMT-35" x="83.398438"/>
      </g>
     </g>
    </g>
    <g id="xtick_6">
     <g id="line2d_6">
      <path d="M 266.539286 177.098906 
L 266.539286 10.778906 
" clip-path="url(#p8fd0fac961)" style="fill: none; stroke: #cccccc; stroke-width: 0.8; stroke-linecap: round"/>
     </g>
     <g id="text_6">
      <!-- 1.0 -->
      <g style="fill: #262626" transform="translate(259.589286 191.256719) scale(0.1 -0.1)">
       <use xlink:href="#ArialMT-31"/>
       <use xlink:href="#ArialMT-2e" x="55.615234"/>
       <use xlink:href="#ArialMT-30" x="83.398438"/>
      </g>
     </g>
    </g>
    <g id="xtick_7">
     <g id="line2d_7">
      <path d="M 306.396429 177.098906 
L 306.396429 10.778906 
" clip-path="url(#p8fd0fac961)" style="fill: none; stroke: #cccccc; stroke-width: 0.8; stroke-linecap: round"/>
     </g>
     <g id="text_7">
      <!-- 1.5 -->
      <g style="fill: #262626" transform="translate(299.446429 191.256719) scale(0.1 -0.1)">
       <use xlink:href="#ArialMT-31"/>
       <use xlink:href="#ArialMT-2e" x="55.615234"/>
       <use xlink:href="#ArialMT-35" x="83.398438"/>
      </g>
     </g>
    </g>
    <g id="text_8">
     <!-- Times (s) -->
     <g style="fill: #262626" transform="translate(166.183594 204.523906) scale(0.1 -0.1)">
      <defs>
       <path id="ArialMT-54" d="M 1659 0 
L 1659 4041 
L 150 4041 
L 150 4581 
L 3781 4581 
L 3781 4041 
L 2266 4041 
L 2266 0 
L 1659 0 
z
" transform="scale(0.015625)"/>
       <path id="ArialMT-69" d="M 425 3934 
L 425 4581 
L 988 4581 
L 988 3934 
L 425 3934 
z
M 425 0 
L 425 3319 
L 988 3319 
L 988 0 
L 425 0 
z
" transform="scale(0.015625)"/>
       <path id="ArialMT-6d" d="M 422 0 
L 422 3319 
L 925 3319 
L 925 2853 
Q 1081 3097 1340 3245 
Q 1600 3394 1931 3394 
Q 2300 3394 2536 3241 
Q 2772 3088 2869 2813 
Q 3263 3394 3894 3394 
Q 4388 3394 4653 3120 
Q 4919 2847 4919 2278 
L 4919 0 
L 4359 0 
L 4359 2091 
Q 4359 2428 4304 2576 
Q 4250 2725 4106 2815 
Q 3963 2906 3769 2906 
Q 3419 2906 3187 2673 
Q 2956 2441 2956 1928 
L 2956 0 
L 2394 0 
L 2394 2156 
Q 2394 2531 2256 2718 
Q 2119 2906 1806 2906 
Q 1569 2906 1367 2781 
Q 1166 2656 1075 2415 
Q 984 2175 984 1722 
L 984 0 
L 422 0 
z
" transform="scale(0.015625)"/>
       <path id="ArialMT-65" d="M 2694 1069 
L 3275 997 
Q 3138 488 2766 206 
Q 2394 -75 1816 -75 
Q 1088 -75 661 373 
Q 234 822 234 1631 
Q 234 2469 665 2931 
Q 1097 3394 1784 3394 
Q 2450 3394 2872 2941 
Q 3294 2488 3294 1666 
Q 3294 1616 3291 1516 
L 816 1516 
Q 847 969 1125 678 
Q 1403 388 1819 388 
Q 2128 388 2347 550 
Q 2566 713 2694 1069 
z
M 847 1978 
L 2700 1978 
Q 2663 2397 2488 2606 
Q 2219 2931 1791 2931 
Q 1403 2931 1139 2672 
Q 875 2413 847 1978 
z
" transform="scale(0.015625)"/>
       <path id="ArialMT-73" d="M 197 991 
L 753 1078 
Q 800 744 1014 566 
Q 1228 388 1613 388 
Q 2000 388 2187 545 
Q 2375 703 2375 916 
Q 2375 1106 2209 1216 
Q 2094 1291 1634 1406 
Q 1016 1563 777 1677 
Q 538 1791 414 1992 
Q 291 2194 291 2438 
Q 291 2659 392 2848 
Q 494 3038 669 3163 
Q 800 3259 1026 3326 
Q 1253 3394 1513 3394 
Q 1903 3394 2198 3281 
Q 2494 3169 2634 2976 
Q 2775 2784 2828 2463 
L 2278 2388 
Q 2241 2644 2061 2787 
Q 1881 2931 1553 2931 
Q 1166 2931 1000 2803 
Q 834 2675 834 2503 
Q 834 2394 903 2306 
Q 972 2216 1119 2156 
Q 1203 2125 1616 2013 
Q 2213 1853 2448 1751 
Q 2684 1650 2818 1456 
Q 2953 1263 2953 975 
Q 2953 694 2789 445 
Q 2625 197 2315 61 
Q 2006 -75 1616 -75 
Q 969 -75 630 194 
Q 291 463 197 991 
z
" transform="scale(0.015625)"/>
       <path id="ArialMT-20" transform="scale(0.015625)"/>
       <path id="ArialMT-28" d="M 1497 -1347 
Q 1031 -759 709 28 
Q 388 816 388 1659 
Q 388 2403 628 3084 
Q 909 3875 1497 4659 
L 1900 4659 
Q 1522 4009 1400 3731 
Q 1209 3300 1100 2831 
Q 966 2247 966 1656 
Q 966 153 1900 -1347 
L 1497 -1347 
z
" transform="scale(0.015625)"/>
       <path id="ArialMT-29" d="M 791 -1347 
L 388 -1347 
Q 1322 153 1322 1656 
Q 1322 2244 1188 2822 
Q 1081 3291 891 3722 
Q 769 4003 388 4659 
L 791 4659 
Q 1378 3875 1659 3084 
Q 1900 2403 1900 1659 
Q 1900 816 1576 28 
Q 1253 -759 791 -1347 
z
" transform="scale(0.015625)"/>
      </defs>
      <use xlink:href="#ArialMT-54"/>
      <use xlink:href="#ArialMT-69" x="57.333984"/>
      <use xlink:href="#ArialMT-6d" x="79.550781"/>
      <use xlink:href="#ArialMT-65" x="162.851562"/>
      <use xlink:href="#ArialMT-73" x="218.466797"/>
      <use xlink:href="#ArialMT-20" x="268.466797"/>
      <use xlink:href="#ArialMT-28" x="296.25"/>
      <use xlink:href="#ArialMT-73" x="329.550781"/>
      <use xlink:href="#ArialMT-29" x="379.550781"/>
     </g>
    </g>
   </g>
   <g id="matplotlib.axis_2">
    <g id="ytick_1">
     <g id="line2d_8">
      <path d="M 47.325 161.978906 
L 326.325 161.978906 
" clip-path="url(#p8fd0fac961)" style="fill: none; stroke: #cccccc; stroke-width: 0.8; stroke-linecap: round"/>
     </g>
     <g id="text_9">
      <!-- −0.3 -->
      <g style="fill: #262626" transform="translate(20.584375 165.557813) scale(0.1 -0.1)">
       <defs>
        <path id="ArialMT-33" d="M 269 1209 
L 831 1284 
Q 928 806 1161 595 
Q 1394 384 1728 384 
Q 2125 384 2398 659 
Q 2672 934 2672 1341 
Q 2672 1728 2419 1979 
Q 2166 2231 1775 2231 
Q 1616 2231 1378 2169 
L 1441 2663 
Q 1497 2656 1531 2656 
Q 1891 2656 2178 2843 
Q 2466 3031 2466 3422 
Q 2466 3731 2256 3934 
Q 2047 4138 1716 4138 
Q 1388 4138 1169 3931 
Q 950 3725 888 3313 
L 325 3413 
Q 428 3978 793 4289 
Q 1159 4600 1703 4600 
Q 2078 4600 2393 4439 
Q 2709 4278 2876 4000 
Q 3044 3722 3044 3409 
Q 3044 3113 2884 2869 
Q 2725 2625 2413 2481 
Q 2819 2388 3044 2092 
Q 3269 1797 3269 1353 
Q 3269 753 2831 336 
Q 2394 -81 1725 -81 
Q 1122 -81 723 278 
Q 325 638 269 1209 
z
" transform="scale(0.015625)"/>
       </defs>
       <use xlink:href="#ArialMT-2212"/>
       <use xlink:href="#ArialMT-30" x="58.398438"/>
       <use xlink:href="#ArialMT-2e" x="114.013672"/>
       <use xlink:href="#ArialMT-33" x="141.796875"/>
      </g>
     </g>
    </g>
    <g id="ytick_2">
     <g id="line2d_9">
      <path d="M 47.325 131.738906 
L 326.325 131.738906 
" clip-path="url(#p8fd0fac961)" style="fill: none; stroke: #cccccc; stroke-width: 0.8; stroke-linecap: round"/>
     </g>
     <g id="text_10">
      <!-- −0.2 -->
      <g style="fill: #262626" transform="translate(20.584375 135.317813) scale(0.1 -0.1)">
       <defs>
        <path id="ArialMT-32" d="M 3222 541 
L 3222 0 
L 194 0 
Q 188 203 259 391 
Q 375 700 629 1000 
Q 884 1300 1366 1694 
Q 2113 2306 2375 2664 
Q 2638 3022 2638 3341 
Q 2638 3675 2398 3904 
Q 2159 4134 1775 4134 
Q 1369 4134 1125 3890 
Q 881 3647 878 3216 
L 300 3275 
Q 359 3922 746 4261 
Q 1134 4600 1788 4600 
Q 2447 4600 2831 4234 
Q 3216 3869 3216 3328 
Q 3216 3053 3103 2787 
Q 2991 2522 2730 2228 
Q 2469 1934 1863 1422 
Q 1356 997 1212 845 
Q 1069 694 975 541 
L 3222 541 
z
" transform="scale(0.015625)"/>
       </defs>
       <use xlink:href="#ArialMT-2212"/>
       <use xlink:href="#ArialMT-30" x="58.398438"/>
       <use xlink:href="#ArialMT-2e" x="114.013672"/>
       <use xlink:href="#ArialMT-32" x="141.796875"/>
      </g>
     </g>
    </g>
    <g id="ytick_3">
     <g id="line2d_10">
      <path d="M 47.325 101.498906 
L 326.325 101.498906 
" clip-path="url(#p8fd0fac961)" style="fill: none; stroke: #cccccc; stroke-width: 0.8; stroke-linecap: round"/>
     </g>
     <g id="text_11">
      <!-- −0.1 -->
      <g style="fill: #262626" transform="translate(20.584375 105.077813) scale(0.1 -0.1)">
       <use xlink:href="#ArialMT-2212"/>
       <use xlink:href="#ArialMT-30" x="58.398438"/>
       <use xlink:href="#ArialMT-2e" x="114.013672"/>
       <use xlink:href="#ArialMT-31" x="141.796875"/>
      </g>
     </g>
    </g>
    <g id="ytick_4">
     <g id="line2d_11">
      <path d="M 47.325 71.258906 
L 326.325 71.258906 
" clip-path="url(#p8fd0fac961)" style="fill: none; stroke: #cccccc; stroke-width: 0.8; stroke-linecap: round"/>
     </g>
     <g id="text_12">
      <!-- 0.0 -->
      <g style="fill: #262626" transform="translate(26.425 74.837813) scale(0.1 -0.1)">
       <use xlink:href="#ArialMT-30"/>
       <use xlink:href="#ArialMT-2e" x="55.615234"/>
       <use xlink:href="#ArialMT-30" x="83.398438"/>
      </g>
     </g>
    </g>
    <g id="ytick_5">
     <g id="line2d_12">
      <path d="M 47.325 41.018906 
L 326.325 41.018906 
" clip-path="url(#p8fd0fac961)" style="fill: none; stroke: #cccccc; stroke-width: 0.8; stroke-linecap: round"/>
     </g>
     <g id="text_13">
      <!-- 0.1 -->
      <g style="fill: #262626" transform="translate(26.425 44.597813) scale(0.1 -0.1)">
       <use xlink:href="#ArialMT-30"/>
       <use xlink:href="#ArialMT-2e" x="55.615234"/>
       <use xlink:href="#ArialMT-31" x="83.398438"/>
      </g>
     </g>
    </g>
    <g id="ytick_6">
     <g id="line2d_13">
      <path d="M 47.325 10.778906 
L 326.325 10.778906 
" clip-path="url(#p8fd0fac961)" style="fill: none; stroke: #cccccc; stroke-width: 0.8; stroke-linecap: round"/>
     </g>
     <g id="text_14">
      <!-- 0.2 -->
      <g style="fill: #262626" transform="translate(26.425 14.357812) scale(0.1 -0.1)">
       <use xlink:href="#ArialMT-30"/>
       <use xlink:href="#ArialMT-2e" x="55.615234"/>
       <use xlink:href="#ArialMT-32" x="83.398438"/>
      </g>
     </g>
    </g>
    <g id="text_15">
     <!-- Power (dB) -->
     <g style="fill: #262626" transform="translate(14.479687 118.945156) rotate(-90) scale(0.1 -0.1)">
      <defs>
       <path id="ArialMT-50" d="M 494 0 
L 494 4581 
L 2222 4581 
Q 2678 4581 2919 4538 
Q 3256 4481 3484 4323 
Q 3713 4166 3852 3881 
Q 3991 3597 3991 3256 
Q 3991 2672 3619 2267 
Q 3247 1863 2275 1863 
L 1100 1863 
L 1100 0 
L 494 0 
z
M 1100 2403 
L 2284 2403 
Q 2872 2403 3119 2622 
Q 3366 2841 3366 3238 
Q 3366 3525 3220 3729 
Q 3075 3934 2838 4000 
Q 2684 4041 2272 4041 
L 1100 4041 
L 1100 2403 
z
" transform="scale(0.015625)"/>
       <path id="ArialMT-6f" d="M 213 1659 
Q 213 2581 725 3025 
Q 1153 3394 1769 3394 
Q 2453 3394 2887 2945 
Q 3322 2497 3322 1706 
Q 3322 1066 3130 698 
Q 2938 331 2570 128 
Q 2203 -75 1769 -75 
Q 1072 -75 642 372 
Q 213 819 213 1659 
z
M 791 1659 
Q 791 1022 1069 705 
Q 1347 388 1769 388 
Q 2188 388 2466 706 
Q 2744 1025 2744 1678 
Q 2744 2294 2464 2611 
Q 2184 2928 1769 2928 
Q 1347 2928 1069 2612 
Q 791 2297 791 1659 
z
" transform="scale(0.015625)"/>
       <path id="ArialMT-77" d="M 1034 0 
L 19 3319 
L 600 3319 
L 1128 1403 
L 1325 691 
Q 1338 744 1497 1375 
L 2025 3319 
L 2603 3319 
L 3100 1394 
L 3266 759 
L 3456 1400 
L 4025 3319 
L 4572 3319 
L 3534 0 
L 2950 0 
L 2422 1988 
L 2294 2553 
L 1622 0 
L 1034 0 
z
" transform="scale(0.015625)"/>
       <path id="ArialMT-72" d="M 416 0 
L 416 3319 
L 922 3319 
L 922 2816 
Q 1116 3169 1280 3281 
Q 1444 3394 1641 3394 
Q 1925 3394 2219 3213 
L 2025 2691 
Q 1819 2813 1613 2813 
Q 1428 2813 1281 2702 
Q 1134 2591 1072 2394 
Q 978 2094 978 1738 
L 978 0 
L 416 0 
z
" transform="scale(0.015625)"/>
       <path id="ArialMT-64" d="M 2575 0 
L 2575 419 
Q 2259 -75 1647 -75 
Q 1250 -75 917 144 
Q 584 363 401 755 
Q 219 1147 219 1656 
Q 219 2153 384 2558 
Q 550 2963 881 3178 
Q 1213 3394 1622 3394 
Q 1922 3394 2156 3267 
Q 2391 3141 2538 2938 
L 2538 4581 
L 3097 4581 
L 3097 0 
L 2575 0 
z
M 797 1656 
Q 797 1019 1065 703 
Q 1334 388 1700 388 
Q 2069 388 2326 689 
Q 2584 991 2584 1609 
Q 2584 2291 2321 2609 
Q 2059 2928 1675 2928 
Q 1300 2928 1048 2622 
Q 797 2316 797 1656 
z
" transform="scale(0.015625)"/>
       <path id="ArialMT-42" d="M 469 0 
L 469 4581 
L 2188 4581 
Q 2713 4581 3030 4442 
Q 3347 4303 3526 4014 
Q 3706 3725 3706 3409 
Q 3706 3116 3547 2856 
Q 3388 2597 3066 2438 
Q 3481 2316 3704 2022 
Q 3928 1728 3928 1328 
Q 3928 1006 3792 729 
Q 3656 453 3456 303 
Q 3256 153 2954 76 
Q 2653 0 2216 0 
L 469 0 
z
M 1075 2656 
L 2066 2656 
Q 2469 2656 2644 2709 
Q 2875 2778 2992 2937 
Q 3109 3097 3109 3338 
Q 3109 3566 3000 3739 
Q 2891 3913 2687 3977 
Q 2484 4041 1991 4041 
L 1075 4041 
L 1075 2656 
z
M 1075 541 
L 2216 541 
Q 2509 541 2628 563 
Q 2838 600 2978 687 
Q 3119 775 3209 942 
Q 3300 1109 3300 1328 
Q 3300 1584 3169 1773 
Q 3038 1963 2805 2039 
Q 2572 2116 2134 2116 
L 1075 2116 
L 1075 541 
z
" transform="scale(0.015625)"/>
      </defs>
      <use xlink:href="#ArialMT-50"/>
      <use xlink:href="#ArialMT-6f" x="66.699219"/>
      <use xlink:href="#ArialMT-77" x="122.314453"/>
      <use xlink:href="#ArialMT-65" x="194.53125"/>
      <use xlink:href="#ArialMT-72" x="250.146484"/>
      <use xlink:href="#ArialMT-20" x="283.447266"/>
      <use xlink:href="#ArialMT-28" x="311.230469"/>
      <use xlink:href="#ArialMT-64" x="344.53125"/>
      <use xlink:href="#ArialMT-42" x="400.146484"/>
      <use xlink:href="#ArialMT-29" x="466.845703"/>
     </g>
    </g>
   </g>
   <g id="PolyCollection_1"/>
   <g id="PolyCollection_2"/>
   <g id="PolyCollection_3"/>
   <g id="PolyCollection_4"/>
   <g id="PolyCollection_5"/>
   <g id="PolyCollection_6"/>
   <g id="line2d_14">
    <path d="M 47.723571 67.801566 
L 48.122143 67.600737 
L 48.520714 67.529618 
L 48.919286 67.592105 
L 49.317857 67.789485 
L 50.115 68.581557 
L 50.912143 69.867524 
L 51.709286 71.576062 
L 52.905 74.718002 
L 56.890714 85.980409 
L 58.086429 88.649739 
L 59.282143 90.857075 
L 60.477857 92.640049 
L 61.673571 94.039107 
L 62.869286 95.085607 
L 64.065 95.819366 
L 65.260714 96.305562 
L 66.855 96.707656 
L 68.847857 96.994024 
L 70.442143 97.020437 
L 71.637857 96.814385 
L 72.833571 96.312718 
L 73.630714 95.771927 
L 74.826429 94.60707 
L 76.022143 93.007761 
L 77.616429 90.316785 
L 80.805 84.600395 
L 82.000714 82.941988 
L 83.196429 81.710465 
L 84.392143 80.874229 
L 85.587857 80.322717 
L 88.776429 79.056553 
L 89.972143 78.267846 
L 91.167857 77.199057 
L 92.762143 75.397268 
L 95.552143 72.072602 
L 96.747857 71.034607 
L 97.545 70.584957 
L 98.342143 70.361935 
L 99.139286 70.381767 
L 99.936429 70.652227 
L 100.733571 71.174632 
L 101.530714 71.945546 
L 102.327857 72.956732 
L 103.523571 74.888666 
L 105.117857 78.074762 
L 107.907857 83.939908 
L 109.103571 85.803307 
L 109.900714 86.619809 
L 110.697857 87.04057 
L 111.495 87.056128 
L 112.292143 86.69116 
L 113.089286 85.999091 
L 114.285 84.507654 
L 116.277857 81.456976 
L 118.270714 78.551258 
L 119.466429 77.15732 
L 120.662143 76.136274 
L 121.459286 75.684182 
L 122.256429 75.413976 
L 123.053571 75.312371 
L 124.249286 75.425118 
L 125.445 75.76846 
L 129.829286 77.343376 
L 130.626429 77.364498 
L 131.423571 77.191542 
L 132.220714 76.793621 
L 133.017857 76.167309 
L 134.213571 74.882085 
L 136.206429 72.554717 
L 137.003571 71.896811 
L 137.800714 71.561354 
L 138.597857 71.628167 
L 139.395 72.143047 
L 140.192143 73.114381 
L 140.989286 74.512639 
L 142.185 77.259137 
L 146.170714 87.355352 
L 146.967857 88.669977 
L 147.765 89.590252 
L 148.562143 90.129749 
L 149.359286 90.345641 
L 150.156429 90.329645 
L 152.547857 90.020387 
L 153.345 90.167735 
L 154.142143 90.542453 
L 154.939286 91.148322 
L 156.135 92.39863 
L 158.127857 94.657754 
L 158.925 95.315968 
L 159.722143 95.709218 
L 160.519286 95.811267 
L 161.316429 95.654359 
L 163.707857 94.785173 
L 164.505 94.916981 
L 164.903571 95.157731 
L 165.700714 96.06933 
L 166.497857 97.619181 
L 167.295 99.825227 
L 168.092143 102.635191 
L 169.287857 107.710669 
L 172.077857 120.297841 
L 173.273571 124.570521 
L 174.070714 126.78905 
L 174.867857 128.494347 
L 175.665 129.726844 
L 176.462143 130.553108 
L 177.259286 131.04951 
L 178.056429 131.28953 
L 178.853571 131.336418 
L 180.049286 131.150846 
L 181.643571 130.592757 
L 183.237857 129.790561 
L 184.832143 128.760439 
L 186.426429 127.478663 
L 188.419286 125.572869 
L 192.006429 121.774324 
L 193.202143 120.271914 
L 194.397857 118.40809 
L 195.593571 116.016128 
L 196.789286 113.014474 
L 198.383571 108.176711 
L 202.369286 95.387182 
L 203.565 92.531788 
L 204.362143 91.093927 
L 205.159286 90.065171 
L 205.956429 89.447009 
L 206.753571 89.210414 
L 207.550714 89.295692 
L 208.347857 89.615903 
L 211.137857 90.997426 
L 211.935 91.053155 
L 212.732143 90.855035 
L 213.529286 90.4108 
L 214.725 89.389149 
L 217.515 86.678782 
L 218.710714 85.863256 
L 220.305 85.136247 
L 222.297857 84.249841 
L 223.493571 83.428656 
L 224.689286 82.323221 
L 226.682143 80.083921 
L 229.073571 77.447677 
L 232.660714 73.740433 
L 233.856429 72.137332 
L 235.052143 70.210309 
L 238.639286 63.912091 
L 239.436429 62.999143 
L 240.233571 62.498128 
L 240.632143 62.429179 
L 241.030714 62.491839 
L 241.429286 62.691076 
L 242.226429 63.505637 
L 243.023571 64.857201 
L 243.820714 66.68484 
L 245.016429 70.086344 
L 247.806429 78.498029 
L 248.603571 80.323145 
L 249.400714 81.664564 
L 250.197857 82.45968 
L 250.596429 82.646055 
L 250.995 82.694235 
L 251.393571 82.609461 
L 252.190714 82.072278 
L 252.987857 81.110705 
L 253.785 79.812113 
L 254.980714 77.411718 
L 256.575 73.689196 
L 262.155 60.13505 
L 262.952143 58.798384 
L 263.749286 57.792099 
L 264.546429 57.148522 
L 265.343571 56.876209 
L 266.140714 56.960785 
L 266.937857 57.370038 
L 267.735 58.061159 
L 268.930714 59.528218 
L 270.126429 61.401108 
L 271.720714 64.398167 
L 273.713571 68.778163 
L 276.503571 75.1074 
L 277.699286 77.295891 
L 278.496429 78.420008 
L 279.293571 79.238949 
L 280.090714 79.755333 
L 280.887857 80.003546 
L 281.685 80.045089 
L 283.677857 79.776545 
L 284.873571 79.746228 
L 286.069286 80.017609 
L 287.265 80.605604 
L 289.257857 81.974601 
L 290.852143 82.979984 
L 292.047857 83.516054 
L 293.642143 83.948809 
L 295.236429 84.131821 
L 296.432143 84.036756 
L 297.229286 83.775955 
L 298.026429 83.285545 
L 298.823571 82.512144 
L 299.620714 81.427679 
L 300.816429 79.24928 
L 302.809286 74.766652 
L 304.005 72.203487 
L 305.200714 70.202965 
L 305.997857 69.298344 
L 306.795 68.760882 
L 307.592143 68.565995 
L 308.389286 68.658463 
L 309.186429 68.965678 
L 310.780714 69.926078 
L 317.157857 74.28019 
L 318.752143 75.739821 
L 319.947857 77.107471 
L 321.143571 78.844626 
L 322.339286 81.076124 
L 323.535 83.850576 
L 325.527857 89.319978 
L 325.926429 90.433735 
L 325.926429 90.433735 
" clip-path="url(#p8fd0fac961)" style="fill: none; stroke: #1f77b4; stroke-opacity: 0.5; stroke-width: 1.5; stroke-linecap: round"/>
   </g>
   <g id="line2d_15">
    <path d="M 47.723571 79.832051 
L 48.919286 78.268542 
L 50.115 77.092316 
L 50.912143 76.602064 
L 51.709286 76.385644 
L 52.506429 76.462019 
L 53.303571 76.834529 
L 54.100714 77.487617 
L 55.296429 78.905389 
L 58.883571 83.748029 
L 59.680714 84.313006 
L 60.477857 84.537333 
L 61.275 84.41877 
L 62.072143 84.002403 
L 63.267857 83.015681 
L 64.862143 81.630739 
L 65.659286 81.154067 
L 66.456429 80.924845 
L 67.253571 80.981734 
L 68.050714 81.332836 
L 68.847857 81.95983 
L 70.043571 83.32644 
L 71.637857 85.625162 
L 73.630714 88.485405 
L 74.826429 89.840762 
L 76.022143 90.804077 
L 77.217857 91.407482 
L 80.406429 92.633096 
L 81.203571 93.244096 
L 82.000714 94.095391 
L 82.797857 95.206991 
L 83.993571 97.324452 
L 87.182143 103.65157 
L 87.979286 104.69188 
L 88.776429 105.250975 
L 89.175 105.32189 
L 89.573571 105.244512 
L 89.972143 105.01592 
L 90.769286 104.109422 
L 91.566429 102.640321 
L 92.363571 100.685763 
L 93.559286 97.076129 
L 97.545 84.162259 
L 98.342143 82.290411 
L 99.139286 80.86946 
L 99.936429 79.945852 
L 100.733571 79.531948 
L 101.132143 79.509666 
L 101.929286 79.800294 
L 102.726429 80.466081 
L 103.922143 81.916754 
L 105.915 84.422442 
L 106.712143 85.109436 
L 107.509286 85.515108 
L 108.306429 85.641817 
L 109.103571 85.543656 
L 111.495 84.933334 
L 112.292143 85.001929 
L 113.089286 85.351395 
L 113.886429 86.018538 
L 114.683571 86.999943 
L 115.879286 88.954774 
L 118.669286 93.949588 
L 119.466429 94.916753 
L 120.263571 95.491935 
L 121.060714 95.639488 
L 121.857857 95.3769 
L 122.655 94.769756 
L 123.850714 93.437165 
L 125.843571 91.041962 
L 127.039286 89.984007 
L 127.836429 89.516574 
L 129.032143 89.135679 
L 130.626429 88.988411 
L 135.010714 88.925553 
L 135.807857 89.156733 
L 136.605 89.582627 
L 137.402143 90.232787 
L 138.199286 91.113737 
L 139.395 92.826227 
L 140.989286 95.623072 
L 144.177857 101.858046 
L 145.772143 105.316335 
L 147.366429 109.332237 
L 149.757857 116.240837 
L 151.352143 120.465915 
L 152.149286 122.087313 
L 152.946429 123.232434 
L 153.743571 123.836813 
L 154.142143 123.929956 
L 154.540714 123.886982 
L 155.337857 123.420599 
L 156.135 122.518661 
L 157.330714 120.598697 
L 160.120714 115.712427 
L 160.917857 114.727925 
L 161.715 114.08414 
L 162.512143 113.833423 
L 163.309286 114.005577 
L 164.106429 114.60696 
L 164.903571 115.620106 
L 165.700714 117.004565 
L 166.896429 119.636617 
L 171.280714 130.204838 
L 172.476429 132.128323 
L 173.672143 133.534355 
L 175.266429 134.972296 
L 179.252143 138.247186 
L 180.049286 138.438665 
L 180.447857 138.378665 
L 180.846429 138.194913 
L 181.245 137.875685 
L 182.042143 136.801515 
L 182.839286 135.137562 
L 183.636429 132.929992 
L 184.832143 128.832845 
L 188.817857 113.962499 
L 190.013571 110.454354 
L 191.209286 107.646507 
L 192.006429 106.178676 
L 192.803571 105.036681 
L 193.600714 104.21737 
L 194.397857 103.710234 
L 195.195 103.493777 
L 195.992143 103.533164 
L 196.789286 103.779831 
L 197.985 104.406494 
L 200.775 106.016151 
L 201.970714 106.455558 
L 203.565 106.770381 
L 205.159286 106.858808 
L 206.355 106.768754 
L 207.550714 106.461289 
L 208.347857 106.08316 
L 209.145 105.536291 
L 210.340714 104.384503 
L 211.935 102.35662 
L 214.326429 99.203999 
L 215.522143 98.007604 
L 216.717857 97.168941 
L 217.913571 96.617082 
L 220.305 95.642226 
L 221.500714 94.796111 
L 222.696429 93.556722 
L 224.689286 90.925625 
L 225.885 89.480686 
L 226.682143 88.793168 
L 227.479286 88.433632 
L 228.276429 88.462453 
L 229.073571 88.900265 
L 229.870714 89.722442 
L 231.066429 91.511376 
L 233.457857 95.511959 
L 234.255 96.463594 
L 235.052143 97.053446 
L 235.849286 97.242497 
L 236.646429 97.035018 
L 237.443571 96.468358 
L 238.240714 95.601366 
L 239.436429 93.892605 
L 243.422143 87.615703 
L 244.617857 86.33504 
L 245.415 85.727393 
L 246.610714 85.157651 
L 247.806429 84.897324 
L 250.197857 84.569156 
L 250.995 84.281724 
L 251.792143 83.807627 
L 252.589286 83.109845 
L 253.386429 82.176426 
L 254.582143 80.3857 
L 257.372143 75.778534 
L 258.169286 74.881792 
L 258.966429 74.390866 
L 259.365 74.324863 
L 259.763571 74.388283 
L 260.162143 74.58512 
L 260.959286 75.381013 
L 261.756429 76.689011 
L 262.553571 78.444989 
L 263.749286 81.700537 
L 267.336429 92.076285 
L 268.532143 94.570384 
L 269.329286 95.803995 
L 270.126429 96.686672 
L 270.923571 97.228091 
L 271.720714 97.444172 
L 272.517857 97.352895 
L 273.315 96.975149 
L 274.112143 96.339105 
L 275.307857 94.992352 
L 279.293571 89.855248 
L 280.090714 89.246446 
L 280.887857 88.886706 
L 281.685 88.781878 
L 282.482143 88.915012 
L 283.279286 89.248065 
L 284.475 89.99614 
L 286.467857 91.294753 
L 287.265 91.609955 
L 288.062143 91.708341 
L 288.859286 91.544481 
L 289.656429 91.096756 
L 290.453571 90.371187 
L 291.649286 88.843021 
L 293.642143 85.665768 
L 295.635 82.576053 
L 297.229286 80.477315 
L 302.012143 74.530013 
L 304.403571 71.364597 
L 305.599286 70.111466 
L 306.396429 69.518309 
L 307.193571 69.178849 
L 307.990714 69.138304 
L 308.787857 69.43134 
L 309.585 70.075604 
L 310.382143 71.065299 
L 311.179286 72.367579 
L 312.375 74.766239 
L 315.165 80.708222 
L 316.360714 82.609156 
L 317.157857 83.526535 
L 317.955 84.176205 
L 318.752143 84.605236 
L 319.947857 84.986506 
L 321.940714 85.545881 
L 323.136429 86.172505 
L 323.933571 86.795254 
L 325.129286 88.08171 
L 325.926429 89.172491 
L 325.926429 89.172491 
" clip-path="url(#p8fd0fac961)" style="fill: none; stroke: #ff7f0e; stroke-opacity: 0.5; stroke-width: 1.5; stroke-linecap: round"/>
   </g>
   <g id="line2d_16">
    <path d="M 47.723571 72.761702 
L 49.317857 71.805881 
L 51.310714 70.56745 
L 52.107857 70.292222 
L 52.905 70.260328 
L 53.702143 70.524945 
L 54.499286 71.106025 
L 55.296429 71.98534 
L 56.492143 73.735182 
L 59.282143 78.125003 
L 60.079286 78.989103 
L 60.876429 79.532514 
L 61.673571 79.720595 
L 62.470714 79.554154 
L 63.267857 79.068067 
L 64.065 78.323746 
L 65.260714 76.886426 
L 72.435 67.530778 
L 73.630714 66.420636 
L 74.427857 65.947324 
L 75.225 65.752146 
L 76.022143 65.870826 
L 76.819286 66.31523 
L 77.616429 67.071272 
L 78.413571 68.100284 
L 79.609286 70.021366 
L 82.399286 74.826844 
L 83.595 76.35376 
L 84.392143 77.043497 
L 85.189286 77.441352 
L 85.986429 77.544454 
L 86.783571 77.365582 
L 87.580714 76.928845 
L 88.377857 76.266301 
L 89.573571 74.93753 
L 93.160714 70.543782 
L 93.957857 70.057603 
L 94.755 69.967586 
L 95.153571 70.097285 
L 95.552143 70.354037 
L 96.349286 71.267318 
L 97.146429 72.718396 
L 97.943571 74.673302 
L 99.139286 78.368826 
L 103.523571 93.212641 
L 104.719286 96.240408 
L 106.313571 99.59422 
L 108.705 103.953593 
L 110.299286 106.431709 
L 111.096429 107.379835 
L 111.893571 108.034722 
L 112.690714 108.3349 
L 113.487857 108.242087 
L 114.285 107.746416 
L 115.082143 106.866992 
L 115.879286 105.64818 
L 117.075 103.324696 
L 119.466429 97.858505 
L 121.060714 94.513346 
L 121.857857 93.180719 
L 122.655 92.168956 
L 123.452143 91.523915 
L 124.249286 91.260434 
L 125.046429 91.355657 
L 125.843571 91.745857 
L 127.437857 92.971448 
L 128.633571 93.734178 
L 129.430714 93.917209 
L 130.227857 93.73205 
L 131.025 93.142111 
L 131.822143 92.164595 
L 133.017857 90.122973 
L 136.605 83.198019 
L 137.800714 81.630786 
L 138.597857 80.935596 
L 139.395 80.540188 
L 140.192143 80.451642 
L 140.989286 80.669124 
L 141.786429 81.181623 
L 142.583571 81.964988 
L 143.779286 83.55884 
L 145.772143 86.827269 
L 147.366429 89.372047 
L 148.562143 90.955891 
L 149.757857 92.186273 
L 150.953571 93.095752 
L 152.547857 93.967706 
L 155.337857 95.352189 
L 156.533571 96.237717 
L 157.729286 97.484688 
L 158.925 99.149149 
L 160.519286 101.876642 
L 162.512143 105.249046 
L 163.309286 106.265014 
L 164.106429 106.962068 
L 164.903571 107.296236 
L 165.700714 107.265202 
L 166.497857 106.911176 
L 167.693571 105.966322 
L 169.287857 104.573256 
L 170.085 104.100499 
L 170.882143 103.903388 
L 171.679286 104.025833 
L 172.476429 104.464087 
L 173.273571 105.16996 
L 174.867857 107.035966 
L 176.462143 108.844733 
L 177.657857 109.806852 
L 178.455 110.215183 
L 179.650714 110.541552 
L 183.237857 111.157393 
L 186.426429 112.181337 
L 187.223571 112.174711 
L 188.020714 111.941013 
L 188.817857 111.446623 
L 189.615 110.683065 
L 190.810714 109.077603 
L 192.405 106.338538 
L 195.992143 99.887403 
L 198.782143 95.020166 
L 200.376429 91.703477 
L 202.767857 86.047167 
L 205.159286 80.561389 
L 207.949286 74.873623 
L 212.333571 66.258384 
L 213.529286 64.461169 
L 214.326429 63.596637 
L 215.123571 63.054812 
L 215.920714 62.858706 
L 216.717857 63.004414 
L 217.515 63.460784 
L 218.312143 64.173241 
L 219.507857 65.564406 
L 222.297857 68.997604 
L 223.493571 70.09132 
L 224.689286 70.829792 
L 225.486429 71.118556 
L 226.283571 71.24883 
L 227.479286 71.161443 
L 228.675 70.759347 
L 229.870714 70.087411 
L 231.465 68.909948 
L 233.856429 67.100861 
L 235.450714 66.198569 
L 239.037857 64.489758 
L 240.233571 63.521082 
L 241.429286 62.235285 
L 245.415 57.476511 
L 246.610714 56.607681 
L 247.407857 56.282443 
L 248.205 56.178067 
L 249.002143 56.305662 
L 249.799286 56.674111 
L 250.596429 57.288483 
L 251.393571 58.146593 
L 252.589286 59.854399 
L 254.183571 62.697507 
L 256.176429 66.33879 
L 257.372143 68.040514 
L 258.169286 68.828327 
L 258.966429 69.30921 
L 259.763571 69.498461 
L 260.560714 69.439605 
L 261.756429 69.011741 
L 262.952143 68.320598 
L 264.147857 67.429378 
L 265.343571 66.299695 
L 266.539286 64.862915 
L 267.735 63.105165 
L 272.517857 55.525658 
L 273.315 54.706552 
L 274.112143 54.112165 
L 274.909286 53.7491 
L 275.706429 53.610215 
L 276.503571 53.675646 
L 277.699286 54.089849 
L 279.293571 55.021484 
L 281.685 56.501957 
L 282.880714 57.020762 
L 284.076429 57.331126 
L 285.670714 57.492258 
L 289.656429 57.536289 
L 290.852143 57.363547 
L 291.649286 57.089372 
L 292.446429 56.645819 
L 293.642143 55.636767 
L 294.837857 54.269075 
L 298.425 49.779314 
L 299.620714 48.781074 
L 300.417857 48.352763 
L 301.215 48.116847 
L 302.012143 48.057057 
L 303.207857 48.224858 
L 306.795 49.058979 
L 307.990714 49.035829 
L 311.179286 48.758546 
L 312.375 48.955318 
L 313.969286 49.520508 
L 316.360714 50.391316 
L 319.150714 51.212395 
L 319.947857 51.733572 
L 320.745 52.545106 
L 321.542143 53.714998 
L 322.339286 55.277749 
L 323.535 58.328552 
L 325.129286 63.311527 
L 325.926429 65.896578 
L 325.926429 65.896578 
" clip-path="url(#p8fd0fac961)" style="fill: none; stroke: #2ca02c; stroke-opacity: 0.5; stroke-width: 1.5; stroke-linecap: round"/>
   </g>
   <g id="line2d_17">
    <path d="M 47.723571 71.575007 
L 49.716429 68.283634 
L 50.513571 67.317122 
L 51.310714 66.748444 
L 51.709286 66.647895 
L 52.107857 66.684354 
L 52.506429 66.865657 
L 52.905 67.196969 
L 53.702143 68.315825 
L 54.499286 70.024391 
L 55.296429 72.260911 
L 56.492143 76.375149 
L 60.477857 91.012672 
L 61.673571 94.171604 
L 62.470714 95.7895 
L 63.267857 97.022392 
L 64.065 97.89372 
L 64.862143 98.43434 
L 65.659286 98.675044 
L 66.456429 98.641495 
L 67.253571 98.352304 
L 68.050714 97.819643 
L 68.847857 97.051985 
L 70.043571 95.482565 
L 71.239286 93.466818 
L 72.833571 90.26826 
L 76.420714 82.712751 
L 77.616429 80.692934 
L 78.413571 79.635848 
L 79.210714 78.865014 
L 80.007857 78.417584 
L 80.805 78.31651 
L 81.602143 78.5643 
L 82.399286 79.137173 
L 83.196429 79.981054 
L 84.790714 82.113625 
L 85.986429 83.619035 
L 86.783571 84.3361 
L 87.580714 84.705514 
L 88.377857 84.676359 
L 89.175 84.256598 
L 89.972143 83.514432 
L 92.762143 80.322539 
L 93.559286 79.862006 
L 94.356429 79.817359 
L 94.755 79.969295 
L 95.552143 80.633383 
L 96.349286 81.762454 
L 97.146429 83.306946 
L 98.342143 86.22882 
L 102.327857 97.018061 
L 103.125 98.610392 
L 103.922143 99.837475 
L 104.719286 100.668947 
L 105.516429 101.103802 
L 106.313571 101.169673 
L 107.110714 100.918767 
L 107.907857 100.420707 
L 109.103571 99.379262 
L 113.487857 95.257949 
L 115.480714 93.372078 
L 117.075 91.544675 
L 120.263571 87.675159 
L 121.060714 86.98669 
L 121.857857 86.536324 
L 122.655 86.366688 
L 123.452143 86.493033 
L 124.249286 86.895743 
L 125.445 87.883908 
L 127.437857 89.68218 
L 128.235 90.107839 
L 129.032143 90.224489 
L 129.829286 89.990535 
L 130.626429 89.410963 
L 131.423571 88.532493 
L 132.619286 86.826927 
L 135.010714 83.182038 
L 136.206429 81.803141 
L 137.003571 81.171557 
L 137.800714 80.790162 
L 138.597857 80.648959 
L 139.395 80.716208 
L 140.590714 81.098736 
L 144.177857 82.544745 
L 147.366429 83.419955 
L 148.163571 83.891355 
L 148.960714 84.571443 
L 149.757857 85.479918 
L 150.953571 87.225521 
L 153.345 91.060355 
L 154.142143 91.968753 
L 154.939286 92.473002 
L 155.337857 92.54663 
L 155.736429 92.494781 
L 156.533571 92.022623 
L 157.330714 91.116973 
L 158.526429 89.219421 
L 160.519286 85.920286 
L 161.316429 84.947904 
L 162.113571 84.303656 
L 162.910714 84.024217 
L 163.707857 84.117058 
L 164.505 84.568814 
L 165.302143 85.353461 
L 166.099286 86.439388 
L 167.295 88.562919 
L 168.490714 91.189861 
L 170.085 95.304694 
L 173.273571 104.511627 
L 175.266429 109.801578 
L 176.462143 112.463294 
L 177.657857 114.688225 
L 178.853571 116.520132 
L 180.447857 118.493089 
L 182.042143 120.062875 
L 183.237857 120.984761 
L 184.433571 121.633862 
L 185.230714 121.874878 
L 186.027857 121.92912 
L 186.825 121.767341 
L 187.622143 121.362925 
L 188.419286 120.696635 
L 189.216429 119.762132 
L 190.412143 117.882448 
L 191.607857 115.5159 
L 193.202143 111.846385 
L 198.782143 98.433626 
L 201.572143 92.540247 
L 203.963571 87.957654 
L 205.159286 86.074896 
L 205.956429 85.099188 
L 206.753571 84.417479 
L 207.550714 84.078935 
L 208.347857 84.115187 
L 209.145 84.535992 
L 209.942143 85.327548 
L 210.739286 86.454716 
L 211.935 88.657042 
L 213.529286 92.182858 
L 215.522143 96.625319 
L 216.717857 98.802857 
L 217.515 99.899996 
L 218.312143 100.663228 
L 219.109286 101.082424 
L 219.906429 101.17741 
L 220.703571 100.991267 
L 221.500714 100.579184 
L 222.696429 99.654971 
L 224.290714 98.047702 
L 225.885 96.132203 
L 227.877857 93.382911 
L 233.856429 84.83108 
L 235.849286 81.807028 
L 237.443571 78.925364 
L 239.835 73.951856 
L 241.827857 69.900594 
L 243.023571 67.862488 
L 244.219286 66.249829 
L 245.415 65.051069 
L 247.009286 63.888019 
L 252.190714 60.611868 
L 252.987857 60.350082 
L 253.785 60.293054 
L 254.582143 60.488584 
L 255.379286 60.970263 
L 256.176429 61.752646 
L 256.973571 62.825797 
L 258.169286 64.887507 
L 261.357857 70.929331 
L 262.155 71.999404 
L 262.952143 72.736239 
L 263.749286 73.115261 
L 264.546429 73.146076 
L 265.343571 72.86648 
L 266.140714 72.33517 
L 267.336429 71.22627 
L 269.727857 68.892558 
L 270.525 68.359447 
L 271.322143 68.039559 
L 272.119286 67.9556 
L 272.916429 68.105858 
L 273.713571 68.468523 
L 274.909286 69.334498 
L 276.503571 70.882341 
L 279.692143 74.182822 
L 280.887857 75.03068 
L 281.685 75.324059 
L 282.482143 75.334459 
L 283.279286 75.022285 
L 284.076429 74.374648 
L 284.873571 73.41312 
L 286.069286 71.516421 
L 289.257857 66.069612 
L 290.453571 64.623775 
L 291.649286 63.572911 
L 296.432143 59.971992 
L 297.627857 59.049408 
L 298.425 58.624685 
L 299.222143 58.451202 
L 300.019286 58.602339 
L 300.816429 59.132031 
L 301.613571 60.069431 
L 302.410714 61.414897 
L 303.207857 63.136997 
L 304.403571 66.280052 
L 307.592143 75.345836 
L 308.787857 77.898901 
L 309.585 79.149311 
L 310.382143 80.038679 
L 311.179286 80.611383 
L 311.976429 80.940719 
L 313.172143 81.174569 
L 314.766429 81.45604 
L 315.962143 81.915161 
L 317.157857 82.66568 
L 320.745 85.314314 
L 321.542143 85.528778 
L 322.339286 85.472807 
L 323.136429 85.125382 
L 323.933571 84.495634 
L 325.129286 83.111328 
L 325.926429 81.99376 
L 325.926429 81.99376 
" clip-path="url(#p8fd0fac961)" style="fill: none; stroke: #d62728; stroke-opacity: 0.5; stroke-width: 1.5; stroke-linecap: round"/>
   </g>
   <g id="line2d_18">
    <path d="M 47.723571 71.095114 
L 50.115 70.624586 
L 50.912143 70.734563 
L 51.709286 71.141904 
L 52.506429 71.908499 
L 53.303571 73.060619 
L 54.100714 74.586067 
L 55.296429 77.457129 
L 59.282143 87.889019 
L 60.079286 89.285968 
L 60.876429 90.252678 
L 61.673571 90.754033 
L 62.072143 90.828044 
L 62.869286 90.636689 
L 63.666429 90.034737 
L 64.463571 89.096642 
L 65.659286 87.271202 
L 68.050714 83.391518 
L 69.246429 81.883054 
L 70.442143 80.811927 
L 71.637857 80.098307 
L 74.427857 78.649904 
L 75.623571 77.68687 
L 77.217857 76.04733 
L 80.805 72.169252 
L 82.797857 70.347346 
L 84.392143 69.155087 
L 85.587857 68.546519 
L 86.385 68.348579 
L 87.182143 68.361863 
L 87.979286 68.617426 
L 88.776429 69.13446 
L 89.573571 69.916541 
L 90.769286 71.547777 
L 92.363571 74.330413 
L 94.356429 77.875671 
L 95.153571 78.999511 
L 95.950714 79.826331 
L 96.747857 80.309652 
L 97.545 80.447642 
L 98.342143 80.287437 
L 99.537857 79.695243 
L 101.132143 78.896769 
L 101.929286 78.750899 
L 102.726429 78.870914 
L 103.523571 79.274841 
L 104.320714 79.936279 
L 105.516429 81.269348 
L 108.306429 84.581433 
L 112.690714 89.153231 
L 113.886429 91.046574 
L 115.879286 94.827449 
L 117.473571 97.647292 
L 118.270714 98.670948 
L 119.067857 99.286594 
L 119.466429 99.413606 
L 119.865 99.409518 
L 120.263571 99.26973 
L 120.662143 98.992609 
L 121.459286 98.035611 
L 122.256429 96.587986 
L 123.452143 93.71591 
L 126.242143 86.401517 
L 127.039286 84.903509 
L 127.836429 83.93199 
L 128.235 83.67418 
L 128.633571 83.579422 
L 129.032143 83.652549 
L 129.430714 83.895521 
L 129.829286 84.307395 
L 130.626429 85.619779 
L 131.423571 87.527045 
L 132.619286 91.276139 
L 134.612143 98.730923 
L 136.206429 104.430329 
L 137.402143 107.870222 
L 138.199286 109.600609 
L 138.996429 110.825819 
L 139.793571 111.532215 
L 140.192143 111.693954 
L 140.590714 111.73266 
L 141.387857 111.462075 
L 142.185 110.773918 
L 142.982143 109.739349 
L 144.177857 107.738523 
L 146.170714 104.186271 
L 146.967857 103.075842 
L 147.765 102.330845 
L 148.562143 102.04552 
L 148.960714 102.094752 
L 149.359286 102.277021 
L 150.156429 103.03924 
L 150.953571 104.302513 
L 151.750714 105.999134 
L 152.946429 109.140819 
L 156.533571 119.292815 
L 157.729286 121.820004 
L 158.526429 123.062295 
L 159.323571 123.90594 
L 160.120714 124.338808 
L 160.917857 124.378043 
L 161.715 124.072149 
L 162.512143 123.497793 
L 164.106429 121.928762 
L 165.700714 120.395808 
L 166.896429 119.525163 
L 168.092143 118.904727 
L 170.085 118.169635 
L 172.476429 117.458663 
L 174.070714 117.228014 
L 175.266429 117.278201 
L 176.860714 117.592499 
L 178.455 117.916227 
L 179.252143 117.944447 
L 180.049286 117.804315 
L 180.846429 117.442017 
L 181.643571 116.814448 
L 182.440714 115.892643 
L 183.237857 114.664932 
L 184.433571 112.27537 
L 185.629286 109.343529 
L 190.013571 97.972088 
L 191.209286 95.811076 
L 192.405 94.263842 
L 193.600714 93.213195 
L 196.390714 91.211918 
L 197.187857 90.354046 
L 197.985 89.248302 
L 199.180714 87.09466 
L 200.376429 84.437619 
L 203.963571 76.029697 
L 205.159286 73.997592 
L 205.956429 73.01734 
L 206.753571 72.36388 
L 207.550714 72.046592 
L 208.347857 72.064832 
L 209.145 72.409314 
L 209.942143 73.062708 
L 210.739286 73.999136 
L 211.935 75.857286 
L 213.529286 78.955502 
L 219.109286 90.642918 
L 220.305 92.501952 
L 221.500714 93.888629 
L 222.297857 94.519509 
L 223.095 94.9182 
L 223.892143 95.11177 
L 225.087857 95.131473 
L 227.080714 95.033166 
L 228.276429 95.239251 
L 229.472143 95.734091 
L 232.262143 97.15896 
L 233.059286 97.317567 
L 233.856429 97.266844 
L 234.653571 96.994351 
L 235.450714 96.515289 
L 236.646429 95.496543 
L 240.233571 92.045989 
L 241.827857 90.990137 
L 243.820714 89.798434 
L 245.016429 88.758441 
L 245.813571 87.803657 
L 247.009286 85.913102 
L 248.205 83.507027 
L 250.197857 78.771228 
L 252.190714 74.019825 
L 253.386429 71.611865 
L 254.183571 70.325551 
L 254.980714 69.358701 
L 255.777857 68.753077 
L 256.575 68.533277 
L 257.372143 68.701822 
L 258.169286 69.233641 
L 258.966429 70.072761 
L 260.162143 71.713765 
L 262.155 74.489781 
L 262.952143 75.271206 
L 263.749286 75.742648 
L 264.546429 75.882744 
L 265.343571 75.719077 
L 266.140714 75.319209 
L 269.727857 73.013121 
L 270.525 72.792734 
L 271.720714 72.750355 
L 272.916429 72.979917 
L 275.706429 73.907846 
L 277.699286 74.428185 
L 279.293571 74.606972 
L 280.489286 74.551486 
L 281.685 74.301025 
L 283.279286 73.679529 
L 285.670714 72.608773 
L 286.467857 72.417275 
L 287.265 72.396844 
L 288.062143 72.584507 
L 288.859286 73.000701 
L 289.656429 73.649174 
L 290.852143 75.030381 
L 292.047857 76.829148 
L 293.642143 79.682955 
L 296.432143 84.823122 
L 297.627857 86.478379 
L 298.425 87.207913 
L 299.222143 87.575637 
L 300.019286 87.564161 
L 300.816429 87.197532 
L 301.613571 86.541527 
L 303.207857 84.778747 
L 304.403571 83.526834 
L 305.200714 82.917196 
L 305.997857 82.563227 
L 306.795 82.492579 
L 307.592143 82.705416 
L 308.389286 83.184053 
L 309.186429 83.902692 
L 310.382143 85.378552 
L 311.577857 87.288125 
L 312.773571 89.609166 
L 314.367857 93.291055 
L 318.752143 104.127245 
L 319.549286 105.427618 
L 320.346429 106.268236 
L 320.745 106.492722 
L 321.143571 106.578882 
L 321.542143 106.524474 
L 321.940714 106.33041 
L 322.737857 105.542875 
L 323.535 104.283823 
L 324.730714 101.73641 
L 325.926429 98.725749 
L 325.926429 98.725749 
" clip-path="url(#p8fd0fac961)" style="fill: none; stroke: #9467bd; stroke-opacity: 0.5; stroke-width: 1.5; stroke-linecap: round"/>
   </g>
   <g id="line2d_19">
    <path d="M 47.723571 72.613088 
L 48.919286 71.65228 
L 49.716429 71.204938 
L 50.513571 70.991208 
L 51.310714 71.068986 
L 52.107857 71.480104 
L 52.905 72.244654 
L 53.702143 73.357112 
L 54.897857 75.599698 
L 56.492143 79.298891 
L 58.485 84.002338 
L 59.680714 86.298797 
L 60.477857 87.46399 
L 61.275 88.296302 
L 62.072143 88.793179 
L 62.869286 88.979457 
L 63.666429 88.902622 
L 64.463571 88.624802 
L 66.057857 87.730163 
L 68.847857 86.075078 
L 74.826429 82.913003 
L 78.413571 80.615216 
L 79.609286 80.169526 
L 80.805 80.030832 
L 82.000714 80.220397 
L 83.196429 80.695117 
L 87.182143 82.704073 
L 87.979286 82.824247 
L 88.776429 82.763338 
L 89.573571 82.515801 
L 90.769286 81.835752 
L 92.762143 80.251307 
L 94.356429 79.093397 
L 95.552143 78.558139 
L 96.349286 78.425088 
L 97.146429 78.494627 
L 97.943571 78.77622 
L 98.740714 79.27055 
L 99.537857 79.969519 
L 100.733571 81.360703 
L 102.327857 83.690255 
L 105.915 89.196996 
L 107.110714 90.599897 
L 108.306429 91.644819 
L 109.502143 92.337917 
L 110.697857 92.739024 
L 112.292143 92.969526 
L 114.285 93.005704 
L 116.277857 92.833572 
L 117.473571 92.550847 
L 118.669286 92.051731 
L 119.865 91.298321 
L 121.459286 89.963089 
L 123.850714 87.888368 
L 125.046429 87.16032 
L 126.242143 86.759621 
L 127.437857 86.661597 
L 129.032143 86.810821 
L 131.025 86.986048 
L 132.619286 86.873941 
L 136.206429 86.395294 
L 137.402143 86.564405 
L 138.597857 87.025406 
L 139.793571 87.77161 
L 141.387857 89.106721 
L 148.163571 95.591321 
L 149.757857 97.371922 
L 154.540714 103.144464 
L 155.736429 104.064866 
L 156.932143 104.615248 
L 158.127857 104.833651 
L 159.323571 104.806495 
L 163.309286 104.37985 
L 164.106429 104.519285 
L 164.903571 104.823538 
L 165.700714 105.319143 
L 166.497857 106.019758 
L 167.693571 107.448002 
L 168.889286 109.263666 
L 170.882143 112.783678 
L 173.273571 116.933826 
L 174.867857 119.244368 
L 176.063571 120.663272 
L 177.259286 121.799513 
L 178.455 122.633371 
L 179.650714 123.126797 
L 180.447857 123.242202 
L 181.245 123.170795 
L 182.042143 122.904262 
L 182.839286 122.441671 
L 184.035 121.398176 
L 185.230714 119.98506 
L 186.825 117.656108 
L 189.216429 113.616111 
L 192.405 108.241451 
L 194.796429 104.702232 
L 197.586429 100.607547 
L 199.579286 97.190285 
L 203.963571 89.157179 
L 205.159286 87.511571 
L 206.355 86.297187 
L 207.550714 85.510049 
L 208.746429 85.083067 
L 209.942143 84.916137 
L 211.536429 84.940246 
L 213.130714 85.154068 
L 214.725 85.57989 
L 216.319286 86.255057 
L 220.305 88.197676 
L 221.500714 88.40303 
L 222.297857 88.355039 
L 223.493571 87.999777 
L 224.689286 87.364816 
L 228.675 84.967131 
L 230.269286 84.472554 
L 233.059286 83.816539 
L 234.255 83.252554 
L 235.450714 82.374731 
L 236.646429 81.183731 
L 238.240714 79.252072 
L 240.632143 76.298121 
L 241.827857 75.119071 
L 243.023571 74.276998 
L 244.219286 73.786413 
L 245.415 73.578568 
L 249.002143 73.285612 
L 250.197857 72.908709 
L 251.792143 72.118189 
L 255.379286 70.094766 
L 256.575 69.682449 
L 257.770714 69.50234 
L 258.966429 69.562559 
L 260.162143 69.835888 
L 262.155 70.589117 
L 264.546429 71.473577 
L 266.140714 71.781825 
L 267.735 71.830372 
L 271.322143 71.774198 
L 272.916429 72.066502 
L 274.510714 72.59793 
L 280.090714 74.729666 
L 281.685 74.990801 
L 283.279286 74.985579 
L 285.272143 74.682237 
L 288.460714 74.132022 
L 293.243571 73.524389 
L 295.236429 72.952148 
L 297.229286 72.14201 
L 298.823571 71.288082 
L 303.606429 68.430959 
L 304.802143 68.199491 
L 305.599286 68.240061 
L 306.795 68.57758 
L 307.990714 69.189921 
L 309.585 70.315155 
L 311.179286 71.70725 
L 313.172143 73.77731 
L 318.353571 79.522374 
L 320.346429 81.241434 
L 323.136429 83.271576 
L 325.926429 85.244463 
L 325.926429 85.244463 
" clip-path="url(#p8fd0fac961)" style="fill: none; stroke: #000000; stroke-width: 1.5; stroke-linecap: round"/>
   </g>
   <g id="patch_3">
    <path d="M 47.325 177.098906 
L 47.325 10.778906 
" style="fill: none; stroke: #cccccc; stroke-width: 0.8; stroke-linejoin: miter; stroke-linecap: square"/>
   </g>
   <g id="patch_4">
    <path d="M 326.325 177.098906 
L 326.325 10.778906 
" style="fill: none; stroke: #cccccc; stroke-width: 0.8; stroke-linejoin: miter; stroke-linecap: square"/>
   </g>
   <g id="patch_5">
    <path d="M 47.325 177.098906 
L 326.325 177.098906 
" style="fill: none; stroke: #cccccc; stroke-width: 0.8; stroke-linejoin: miter; stroke-linecap: square"/>
   </g>
   <g id="patch_6">
    <path d="M 47.325 10.778906 
L 326.325 10.778906 
" style="fill: none; stroke: #cccccc; stroke-width: 0.8; stroke-linejoin: miter; stroke-linecap: square"/>
   </g>
   <g id="legend_1">
    <g id="patch_7">
     <path d="M 333.325 104.532031 
L 458.259375 104.532031 
Q 460.259375 104.532031 460.259375 102.532031 
L 460.259375 17.778906 
Q 460.259375 15.778906 458.259375 15.778906 
L 333.325 15.778906 
Q 331.325 15.778906 331.325 17.778906 
L 331.325 102.532031 
Q 331.325 104.532031 333.325 104.532031 
z
" style="fill: #ffffff; opacity: 0.8; stroke: #cccccc; stroke-linejoin: miter"/>
    </g>
    <g id="line2d_20">
     <path d="M 335.325 23.466406 
L 345.325 23.466406 
L 355.325 23.466406 
" style="fill: none; stroke: #1f77b4; stroke-opacity: 0.5; stroke-width: 1.5; stroke-linecap: round"/>
    </g>
    <g id="text_16">
     <!-- Finger 1, var = 0.003 -->
     <g style="fill: #262626" transform="translate(363.325 26.966406) scale(0.1 -0.1)">
      <defs>
       <path id="ArialMT-46" d="M 525 0 
L 525 4581 
L 3616 4581 
L 3616 4041 
L 1131 4041 
L 1131 2622 
L 3281 2622 
L 3281 2081 
L 1131 2081 
L 1131 0 
L 525 0 
z
" transform="scale(0.015625)"/>
       <path id="ArialMT-6e" d="M 422 0 
L 422 3319 
L 928 3319 
L 928 2847 
Q 1294 3394 1984 3394 
Q 2284 3394 2536 3286 
Q 2788 3178 2913 3003 
Q 3038 2828 3088 2588 
Q 3119 2431 3119 2041 
L 3119 0 
L 2556 0 
L 2556 2019 
Q 2556 2363 2490 2533 
Q 2425 2703 2258 2804 
Q 2091 2906 1866 2906 
Q 1506 2906 1245 2678 
Q 984 2450 984 1813 
L 984 0 
L 422 0 
z
" transform="scale(0.015625)"/>
       <path id="ArialMT-67" d="M 319 -275 
L 866 -356 
Q 900 -609 1056 -725 
Q 1266 -881 1628 -881 
Q 2019 -881 2231 -725 
Q 2444 -569 2519 -288 
Q 2563 -116 2559 434 
Q 2191 0 1641 0 
Q 956 0 581 494 
Q 206 988 206 1678 
Q 206 2153 378 2554 
Q 550 2956 876 3175 
Q 1203 3394 1644 3394 
Q 2231 3394 2613 2919 
L 2613 3319 
L 3131 3319 
L 3131 450 
Q 3131 -325 2973 -648 
Q 2816 -972 2473 -1159 
Q 2131 -1347 1631 -1347 
Q 1038 -1347 672 -1080 
Q 306 -813 319 -275 
z
M 784 1719 
Q 784 1066 1043 766 
Q 1303 466 1694 466 
Q 2081 466 2343 764 
Q 2606 1063 2606 1700 
Q 2606 2309 2336 2618 
Q 2066 2928 1684 2928 
Q 1309 2928 1046 2623 
Q 784 2319 784 1719 
z
" transform="scale(0.015625)"/>
       <path id="ArialMT-2c" d="M 569 0 
L 569 641 
L 1209 641 
L 1209 0 
Q 1209 -353 1084 -570 
Q 959 -788 688 -906 
L 531 -666 
Q 709 -588 793 -436 
Q 878 -284 888 0 
L 569 0 
z
" transform="scale(0.015625)"/>
       <path id="ArialMT-76" d="M 1344 0 
L 81 3319 
L 675 3319 
L 1388 1331 
Q 1503 1009 1600 663 
Q 1675 925 1809 1294 
L 2547 3319 
L 3125 3319 
L 1869 0 
L 1344 0 
z
" transform="scale(0.015625)"/>
       <path id="ArialMT-61" d="M 2588 409 
Q 2275 144 1986 34 
Q 1697 -75 1366 -75 
Q 819 -75 525 192 
Q 231 459 231 875 
Q 231 1119 342 1320 
Q 453 1522 633 1644 
Q 813 1766 1038 1828 
Q 1203 1872 1538 1913 
Q 2219 1994 2541 2106 
Q 2544 2222 2544 2253 
Q 2544 2597 2384 2738 
Q 2169 2928 1744 2928 
Q 1347 2928 1158 2789 
Q 969 2650 878 2297 
L 328 2372 
Q 403 2725 575 2942 
Q 747 3159 1072 3276 
Q 1397 3394 1825 3394 
Q 2250 3394 2515 3294 
Q 2781 3194 2906 3042 
Q 3031 2891 3081 2659 
Q 3109 2516 3109 2141 
L 3109 1391 
Q 3109 606 3145 398 
Q 3181 191 3288 0 
L 2700 0 
Q 2613 175 2588 409 
z
M 2541 1666 
Q 2234 1541 1622 1453 
Q 1275 1403 1131 1340 
Q 988 1278 909 1158 
Q 831 1038 831 891 
Q 831 666 1001 516 
Q 1172 366 1500 366 
Q 1825 366 2078 508 
Q 2331 650 2450 897 
Q 2541 1088 2541 1459 
L 2541 1666 
z
" transform="scale(0.015625)"/>
       <path id="ArialMT-3d" d="M 3381 2694 
L 356 2694 
L 356 3219 
L 3381 3219 
L 3381 2694 
z
M 3381 1303 
L 356 1303 
L 356 1828 
L 3381 1828 
L 3381 1303 
z
" transform="scale(0.015625)"/>
      </defs>
      <use xlink:href="#ArialMT-46"/>
      <use xlink:href="#ArialMT-69" x="61.083984"/>
      <use xlink:href="#ArialMT-6e" x="83.300781"/>
      <use xlink:href="#ArialMT-67" x="138.916016"/>
      <use xlink:href="#ArialMT-65" x="194.53125"/>
      <use xlink:href="#ArialMT-72" x="250.146484"/>
      <use xlink:href="#ArialMT-20" x="283.447266"/>
      <use xlink:href="#ArialMT-31" x="311.230469"/>
      <use xlink:href="#ArialMT-2c" x="366.845703"/>
      <use xlink:href="#ArialMT-20" x="394.628906"/>
      <use xlink:href="#ArialMT-76" x="422.412109"/>
      <use xlink:href="#ArialMT-61" x="472.412109"/>
      <use xlink:href="#ArialMT-72" x="528.027344"/>
      <use xlink:href="#ArialMT-20" x="561.328125"/>
      <use xlink:href="#ArialMT-3d" x="589.111328"/>
      <use xlink:href="#ArialMT-20" x="647.509766"/>
      <use xlink:href="#ArialMT-30" x="675.292969"/>
      <use xlink:href="#ArialMT-2e" x="730.908203"/>
      <use xlink:href="#ArialMT-30" x="758.691406"/>
      <use xlink:href="#ArialMT-30" x="814.306641"/>
      <use xlink:href="#ArialMT-33" x="869.921875"/>
     </g>
    </g>
    <g id="line2d_21">
     <path d="M 335.325 37.758594 
L 345.325 37.758594 
L 355.325 37.758594 
" style="fill: none; stroke: #ff7f0e; stroke-opacity: 0.5; stroke-width: 1.5; stroke-linecap: round"/>
    </g>
    <g id="text_17">
     <!-- Finger 2, var = 0.003 -->
     <g style="fill: #262626" transform="translate(363.325 41.258594) scale(0.1 -0.1)">
      <use xlink:href="#ArialMT-46"/>
      <use xlink:href="#ArialMT-69" x="61.083984"/>
      <use xlink:href="#ArialMT-6e" x="83.300781"/>
      <use xlink:href="#ArialMT-67" x="138.916016"/>
      <use xlink:href="#ArialMT-65" x="194.53125"/>
      <use xlink:href="#ArialMT-72" x="250.146484"/>
      <use xlink:href="#ArialMT-20" x="283.447266"/>
      <use xlink:href="#ArialMT-32" x="311.230469"/>
      <use xlink:href="#ArialMT-2c" x="366.845703"/>
      <use xlink:href="#ArialMT-20" x="394.628906"/>
      <use xlink:href="#ArialMT-76" x="422.412109"/>
      <use xlink:href="#ArialMT-61" x="472.412109"/>
      <use xlink:href="#ArialMT-72" x="528.027344"/>
      <use xlink:href="#ArialMT-20" x="561.328125"/>
      <use xlink:href="#ArialMT-3d" x="589.111328"/>
      <use xlink:href="#ArialMT-20" x="647.509766"/>
      <use xlink:href="#ArialMT-30" x="675.292969"/>
      <use xlink:href="#ArialMT-2e" x="730.908203"/>
      <use xlink:href="#ArialMT-30" x="758.691406"/>
      <use xlink:href="#ArialMT-30" x="814.306641"/>
      <use xlink:href="#ArialMT-33" x="869.921875"/>
     </g>
    </g>
    <g id="line2d_22">
     <path d="M 335.325 52.050781 
L 345.325 52.050781 
L 355.325 52.050781 
" style="fill: none; stroke: #2ca02c; stroke-opacity: 0.5; stroke-width: 1.5; stroke-linecap: round"/>
    </g>
    <g id="text_18">
     <!-- Finger 3, var = 0.004 -->
     <g style="fill: #262626" transform="translate(363.325 55.550781) scale(0.1 -0.1)">
      <defs>
       <path id="ArialMT-34" d="M 2069 0 
L 2069 1097 
L 81 1097 
L 81 1613 
L 2172 4581 
L 2631 4581 
L 2631 1613 
L 3250 1613 
L 3250 1097 
L 2631 1097 
L 2631 0 
L 2069 0 
z
M 2069 1613 
L 2069 3678 
L 634 1613 
L 2069 1613 
z
" transform="scale(0.015625)"/>
      </defs>
      <use xlink:href="#ArialMT-46"/>
      <use xlink:href="#ArialMT-69" x="61.083984"/>
      <use xlink:href="#ArialMT-6e" x="83.300781"/>
      <use xlink:href="#ArialMT-67" x="138.916016"/>
      <use xlink:href="#ArialMT-65" x="194.53125"/>
      <use xlink:href="#ArialMT-72" x="250.146484"/>
      <use xlink:href="#ArialMT-20" x="283.447266"/>
      <use xlink:href="#ArialMT-33" x="311.230469"/>
      <use xlink:href="#ArialMT-2c" x="366.845703"/>
      <use xlink:href="#ArialMT-20" x="394.628906"/>
      <use xlink:href="#ArialMT-76" x="422.412109"/>
      <use xlink:href="#ArialMT-61" x="472.412109"/>
      <use xlink:href="#ArialMT-72" x="528.027344"/>
      <use xlink:href="#ArialMT-20" x="561.328125"/>
      <use xlink:href="#ArialMT-3d" x="589.111328"/>
      <use xlink:href="#ArialMT-20" x="647.509766"/>
      <use xlink:href="#ArialMT-30" x="675.292969"/>
      <use xlink:href="#ArialMT-2e" x="730.908203"/>
      <use xlink:href="#ArialMT-30" x="758.691406"/>
      <use xlink:href="#ArialMT-30" x="814.306641"/>
      <use xlink:href="#ArialMT-34" x="869.921875"/>
     </g>
    </g>
    <g id="line2d_23">
     <path d="M 335.325 66.342969 
L 345.325 66.342969 
L 355.325 66.342969 
" style="fill: none; stroke: #d62728; stroke-opacity: 0.5; stroke-width: 1.5; stroke-linecap: round"/>
    </g>
    <g id="text_19">
     <!-- Finger 4, var = 0.002 -->
     <g style="fill: #262626" transform="translate(363.325 69.842969) scale(0.1 -0.1)">
      <use xlink:href="#ArialMT-46"/>
      <use xlink:href="#ArialMT-69" x="61.083984"/>
      <use xlink:href="#ArialMT-6e" x="83.300781"/>
      <use xlink:href="#ArialMT-67" x="138.916016"/>
      <use xlink:href="#ArialMT-65" x="194.53125"/>
      <use xlink:href="#ArialMT-72" x="250.146484"/>
      <use xlink:href="#ArialMT-20" x="283.447266"/>
      <use xlink:href="#ArialMT-34" x="311.230469"/>
      <use xlink:href="#ArialMT-2c" x="366.845703"/>
      <use xlink:href="#ArialMT-20" x="394.628906"/>
      <use xlink:href="#ArialMT-76" x="422.412109"/>
      <use xlink:href="#ArialMT-61" x="472.412109"/>
      <use xlink:href="#ArialMT-72" x="528.027344"/>
      <use xlink:href="#ArialMT-20" x="561.328125"/>
      <use xlink:href="#ArialMT-3d" x="589.111328"/>
      <use xlink:href="#ArialMT-20" x="647.509766"/>
      <use xlink:href="#ArialMT-30" x="675.292969"/>
      <use xlink:href="#ArialMT-2e" x="730.908203"/>
      <use xlink:href="#ArialMT-30" x="758.691406"/>
      <use xlink:href="#ArialMT-30" x="814.306641"/>
      <use xlink:href="#ArialMT-32" x="869.921875"/>
     </g>
    </g>
    <g id="line2d_24">
     <path d="M 335.325 80.635156 
L 345.325 80.635156 
L 355.325 80.635156 
" style="fill: none; stroke: #9467bd; stroke-opacity: 0.5; stroke-width: 1.5; stroke-linecap: round"/>
    </g>
    <g id="text_20">
     <!-- Finger 5, var = 0.002 -->
     <g style="fill: #262626" transform="translate(363.325 84.135156) scale(0.1 -0.1)">
      <use xlink:href="#ArialMT-46"/>
      <use xlink:href="#ArialMT-69" x="61.083984"/>
      <use xlink:href="#ArialMT-6e" x="83.300781"/>
      <use xlink:href="#ArialMT-67" x="138.916016"/>
      <use xlink:href="#ArialMT-65" x="194.53125"/>
      <use xlink:href="#ArialMT-72" x="250.146484"/>
      <use xlink:href="#ArialMT-20" x="283.447266"/>
      <use xlink:href="#ArialMT-35" x="311.230469"/>
      <use xlink:href="#ArialMT-2c" x="366.845703"/>
      <use xlink:href="#ArialMT-20" x="394.628906"/>
      <use xlink:href="#ArialMT-76" x="422.412109"/>
      <use xlink:href="#ArialMT-61" x="472.412109"/>
      <use xlink:href="#ArialMT-72" x="528.027344"/>
      <use xlink:href="#ArialMT-20" x="561.328125"/>
      <use xlink:href="#ArialMT-3d" x="589.111328"/>
      <use xlink:href="#ArialMT-20" x="647.509766"/>
      <use xlink:href="#ArialMT-30" x="675.292969"/>
      <use xlink:href="#ArialMT-2e" x="730.908203"/>
      <use xlink:href="#ArialMT-30" x="758.691406"/>
      <use xlink:href="#ArialMT-30" x="814.306641"/>
      <use xlink:href="#ArialMT-32" x="869.921875"/>
     </g>
    </g>
    <g id="line2d_25">
     <path d="M 335.325 94.927344 
L 345.325 94.927344 
L 355.325 94.927344 
" style="fill: none; stroke: #000000; stroke-width: 1.5; stroke-linecap: round"/>
    </g>
    <g id="text_21">
     <!-- Average, var = 0.002 -->
     <g style="fill: #262626" transform="translate(363.325 98.427344) scale(0.1 -0.1)">
      <defs>
       <path id="ArialMT-41" d="M -9 0 
L 1750 4581 
L 2403 4581 
L 4278 0 
L 3588 0 
L 3053 1388 
L 1138 1388 
L 634 0 
L -9 0 
z
M 1313 1881 
L 2866 1881 
L 2388 3150 
Q 2169 3728 2063 4100 
Q 1975 3659 1816 3225 
L 1313 1881 
z
" transform="scale(0.015625)"/>
      </defs>
      <use xlink:href="#ArialMT-41"/>
      <use xlink:href="#ArialMT-76" x="64.949219"/>
      <use xlink:href="#ArialMT-65" x="114.949219"/>
      <use xlink:href="#ArialMT-72" x="170.564453"/>
      <use xlink:href="#ArialMT-61" x="203.865234"/>
      <use xlink:href="#ArialMT-67" x="259.480469"/>
      <use xlink:href="#ArialMT-65" x="315.095703"/>
      <use xlink:href="#ArialMT-2c" x="370.710938"/>
      <use xlink:href="#ArialMT-20" x="398.494141"/>
      <use xlink:href="#ArialMT-76" x="426.277344"/>
      <use xlink:href="#ArialMT-61" x="476.277344"/>
      <use xlink:href="#ArialMT-72" x="531.892578"/>
      <use xlink:href="#ArialMT-20" x="565.193359"/>
      <use xlink:href="#ArialMT-3d" x="592.976562"/>
      <use xlink:href="#ArialMT-20" x="651.375"/>
      <use xlink:href="#ArialMT-30" x="679.158203"/>
      <use xlink:href="#ArialMT-2e" x="734.773438"/>
      <use xlink:href="#ArialMT-30" x="762.556641"/>
      <use xlink:href="#ArialMT-30" x="818.171875"/>
      <use xlink:href="#ArialMT-32" x="873.787109"/>
     </g>
    </g>
   </g>
  </g>
 </g>
 <defs>
  <clipPath id="p8fd0fac961">
   <rect x="47.325" y="10.778906" width="279" height="166.32"/>
  </clipPath>
 </defs>
</svg>
