<?xml version="1.0" encoding="utf-8" standalone="no"?>
<!DOCTYPE svg PUBLIC "-//W3C//DTD SVG 1.1//EN"
  "http://www.w3.org/Graphics/SVG/1.1/DTD/svg11.dtd">
<svg xmlns:xlink="http://www.w3.org/1999/xlink" width="467.071875pt" height="213.828594pt" viewBox="0 0 467.071875 213.828594" xmlns="http://www.w3.org/2000/svg" version="1.1">
 <metadata>
  <rdf:RDF xmlns:dc="http://purl.org/dc/elements/1.1/" xmlns:cc="http://creativecommons.org/ns#" xmlns:rdf="http://www.w3.org/1999/02/22-rdf-syntax-ns#">
   <cc:Work>
    <dc:type rdf:resource="http://purl.org/dc/dcmitype/StillImage"/>
    <dc:date>2024-02-16T17:37:16.576862</dc:date>
    <dc:format>image/svg+xml</dc:format>
    <dc:creator>
     <cc:Agent>
      <dc:title>Matplotlib v3.7.2, https://matplotlib.org/</dc:title>
     </cc:Agent>
    </dc:creator>
   </cc:Work>
  </rdf:RDF>
 </metadata>
 <defs>
  <style type="text/css">*{stroke-linejoin: round; stroke-linecap: butt}</style>
 </defs>
 <g id="figure_1">
  <g id="patch_1">
   <path d="M 0 213.828594 
L 467.071875 213.828594 
L 467.071875 0 
L 0 0 
z
" style="fill: #ffffff"/>
  </g>
  <g id="axes_1">
   <g id="patch_2">
    <path d="M 47.325 177.098906 
L 326.325 177.098906 
L 326.325 10.778906 
L 47.325 10.778906 
z
" style="fill: #ffffff"/>
   </g>
   <g id="matplotlib.axis_1">
    <g id="xtick_1">
     <g id="line2d_1">
      <path d="M 67.253571 177.098906 
L 67.253571 10.778906 
" clip-path="url(#pd601fa5dc5)" style="fill: none; stroke: #cccccc; stroke-width: 0.8; stroke-linecap: round"/>
     </g>
     <g id="text_1">
      <!-- −1.5 -->
      <g style="fill: #262626" transform="translate(57.383259 191.256719) scale(0.1 -0.1)">
       <defs>
        <path id="ArialMT-2212" d="M 3381 1997 
L 356 1997 
L 356 2522 
L 3381 2522 
L 3381 1997 
z
" transform="scale(0.015625)"/>
        <path id="ArialMT-31" d="M 2384 0 
L 1822 0 
L 1822 3584 
Q 1619 3391 1289 3197 
Q 959 3003 697 2906 
L 697 3450 
Q 1169 3672 1522 3987 
Q 1875 4303 2022 4600 
L 2384 4600 
L 2384 0 
z
" transform="scale(0.015625)"/>
        <path id="ArialMT-2e" d="M 581 0 
L 581 641 
L 1222 641 
L 1222 0 
L 581 0 
z
" transform="scale(0.015625)"/>
        <path id="ArialMT-35" d="M 266 1200 
L 856 1250 
Q 922 819 1161 601 
Q 1400 384 1738 384 
Q 2144 384 2425 690 
Q 2706 997 2706 1503 
Q 2706 1984 2436 2262 
Q 2166 2541 1728 2541 
Q 1456 2541 1237 2417 
Q 1019 2294 894 2097 
L 366 2166 
L 809 4519 
L 3088 4519 
L 3088 3981 
L 1259 3981 
L 1013 2750 
Q 1425 3038 1878 3038 
Q 2478 3038 2890 2622 
Q 3303 2206 3303 1553 
Q 3303 931 2941 478 
Q 2500 -78 1738 -78 
Q 1113 -78 717 272 
Q 322 622 266 1200 
z
" transform="scale(0.015625)"/>
       </defs>
       <use xlink:href="#ArialMT-2212"/>
       <use xlink:href="#ArialMT-31" x="58.398438"/>
       <use xlink:href="#ArialMT-2e" x="114.013672"/>
       <use xlink:href="#ArialMT-35" x="141.796875"/>
      </g>
     </g>
    </g>
    <g id="xtick_2">
     <g id="line2d_2">
      <path d="M 107.110714 177.098906 
L 107.110714 10.778906 
" clip-path="url(#pd601fa5dc5)" style="fill: none; stroke: #cccccc; stroke-width: 0.8; stroke-linecap: round"/>
     </g>
     <g id="text_2">
      <!-- −1.0 -->
      <g style="fill: #262626" transform="translate(97.240402 191.256719) scale(0.1 -0.1)">
       <defs>
        <path id="ArialMT-30" d="M 266 2259 
Q 266 3072 433 3567 
Q 600 4063 929 4331 
Q 1259 4600 1759 4600 
Q 2128 4600 2406 4451 
Q 2684 4303 2865 4023 
Q 3047 3744 3150 3342 
Q 3253 2941 3253 2259 
Q 3253 1453 3087 958 
Q 2922 463 2592 192 
Q 2263 -78 1759 -78 
Q 1097 -78 719 397 
Q 266 969 266 2259 
z
M 844 2259 
Q 844 1131 1108 757 
Q 1372 384 1759 384 
Q 2147 384 2411 759 
Q 2675 1134 2675 2259 
Q 2675 3391 2411 3762 
Q 2147 4134 1753 4134 
Q 1366 4134 1134 3806 
Q 844 3388 844 2259 
z
" transform="scale(0.015625)"/>
       </defs>
       <use xlink:href="#ArialMT-2212"/>
       <use xlink:href="#ArialMT-31" x="58.398438"/>
       <use xlink:href="#ArialMT-2e" x="114.013672"/>
       <use xlink:href="#ArialMT-30" x="141.796875"/>
      </g>
     </g>
    </g>
    <g id="xtick_3">
     <g id="line2d_3">
      <path d="M 146.967857 177.098906 
L 146.967857 10.778906 
" clip-path="url(#pd601fa5dc5)" style="fill: none; stroke: #cccccc; stroke-width: 0.8; stroke-linecap: round"/>
     </g>
     <g id="text_3">
      <!-- −0.5 -->
      <g style="fill: #262626" transform="translate(137.097545 191.256719) scale(0.1 -0.1)">
       <use xlink:href="#ArialMT-2212"/>
       <use xlink:href="#ArialMT-30" x="58.398438"/>
       <use xlink:href="#ArialMT-2e" x="114.013672"/>
       <use xlink:href="#ArialMT-35" x="141.796875"/>
      </g>
     </g>
    </g>
    <g id="xtick_4">
     <g id="line2d_4">
      <path d="M 186.825 177.098906 
L 186.825 10.778906 
" clip-path="url(#pd601fa5dc5)" style="fill: none; stroke: #cccccc; stroke-width: 0.8; stroke-linecap: round"/>
     </g>
     <g id="text_4">
      <!-- 0.0 -->
      <g style="fill: #262626" transform="translate(179.875 191.256719) scale(0.1 -0.1)">
       <use xlink:href="#ArialMT-30"/>
       <use xlink:href="#ArialMT-2e" x="55.615234"/>
       <use xlink:href="#ArialMT-30" x="83.398438"/>
      </g>
     </g>
    </g>
    <g id="xtick_5">
     <g id="line2d_5">
      <path d="M 226.682143 177.098906 
L 226.682143 10.778906 
" clip-path="url(#pd601fa5dc5)" style="fill: none; stroke: #cccccc; stroke-width: 0.8; stroke-linecap: round"/>
     </g>
     <g id="text_5">
      <!-- 0.5 -->
      <g style="fill: #262626" transform="translate(219.732143 191.256719) scale(0.1 -0.1)">
       <use xlink:href="#ArialMT-30"/>
       <use xlink:href="#ArialMT-2e" x="55.615234"/>
       <use xlink:href="#ArialMT-35" x="83.398438"/>
      </g>
     </g>
    </g>
    <g id="xtick_6">
     <g id="line2d_6">
      <path d="M 266.539286 177.098906 
L 266.539286 10.778906 
" clip-path="url(#pd601fa5dc5)" style="fill: none; stroke: #cccccc; stroke-width: 0.8; stroke-linecap: round"/>
     </g>
     <g id="text_6">
      <!-- 1.0 -->
      <g style="fill: #262626" transform="translate(259.589286 191.256719) scale(0.1 -0.1)">
       <use xlink:href="#ArialMT-31"/>
       <use xlink:href="#ArialMT-2e" x="55.615234"/>
       <use xlink:href="#ArialMT-30" x="83.398438"/>
      </g>
     </g>
    </g>
    <g id="xtick_7">
     <g id="line2d_7">
      <path d="M 306.396429 177.098906 
L 306.396429 10.778906 
" clip-path="url(#pd601fa5dc5)" style="fill: none; stroke: #cccccc; stroke-width: 0.8; stroke-linecap: round"/>
     </g>
     <g id="text_7">
      <!-- 1.5 -->
      <g style="fill: #262626" transform="translate(299.446429 191.256719) scale(0.1 -0.1)">
       <use xlink:href="#ArialMT-31"/>
       <use xlink:href="#ArialMT-2e" x="55.615234"/>
       <use xlink:href="#ArialMT-35" x="83.398438"/>
      </g>
     </g>
    </g>
    <g id="text_8">
     <!-- Times (s) -->
     <g style="fill: #262626" transform="translate(166.183594 204.523906) scale(0.1 -0.1)">
      <defs>
       <path id="ArialMT-54" d="M 1659 0 
L 1659 4041 
L 150 4041 
L 150 4581 
L 3781 4581 
L 3781 4041 
L 2266 4041 
L 2266 0 
L 1659 0 
z
" transform="scale(0.015625)"/>
       <path id="ArialMT-69" d="M 425 3934 
L 425 4581 
L 988 4581 
L 988 3934 
L 425 3934 
z
M 425 0 
L 425 3319 
L 988 3319 
L 988 0 
L 425 0 
z
" transform="scale(0.015625)"/>
       <path id="ArialMT-6d" d="M 422 0 
L 422 3319 
L 925 3319 
L 925 2853 
Q 1081 3097 1340 3245 
Q 1600 3394 1931 3394 
Q 2300 3394 2536 3241 
Q 2772 3088 2869 2813 
Q 3263 3394 3894 3394 
Q 4388 3394 4653 3120 
Q 4919 2847 4919 2278 
L 4919 0 
L 4359 0 
L 4359 2091 
Q 4359 2428 4304 2576 
Q 4250 2725 4106 2815 
Q 3963 2906 3769 2906 
Q 3419 2906 3187 2673 
Q 2956 2441 2956 1928 
L 2956 0 
L 2394 0 
L 2394 2156 
Q 2394 2531 2256 2718 
Q 2119 2906 1806 2906 
Q 1569 2906 1367 2781 
Q 1166 2656 1075 2415 
Q 984 2175 984 1722 
L 984 0 
L 422 0 
z
" transform="scale(0.015625)"/>
       <path id="ArialMT-65" d="M 2694 1069 
L 3275 997 
Q 3138 488 2766 206 
Q 2394 -75 1816 -75 
Q 1088 -75 661 373 
Q 234 822 234 1631 
Q 234 2469 665 2931 
Q 1097 3394 1784 3394 
Q 2450 3394 2872 2941 
Q 3294 2488 3294 1666 
Q 3294 1616 3291 1516 
L 816 1516 
Q 847 969 1125 678 
Q 1403 388 1819 388 
Q 2128 388 2347 550 
Q 2566 713 2694 1069 
z
M 847 1978 
L 2700 1978 
Q 2663 2397 2488 2606 
Q 2219 2931 1791 2931 
Q 1403 2931 1139 2672 
Q 875 2413 847 1978 
z
" transform="scale(0.015625)"/>
       <path id="ArialMT-73" d="M 197 991 
L 753 1078 
Q 800 744 1014 566 
Q 1228 388 1613 388 
Q 2000 388 2187 545 
Q 2375 703 2375 916 
Q 2375 1106 2209 1216 
Q 2094 1291 1634 1406 
Q 1016 1563 777 1677 
Q 538 1791 414 1992 
Q 291 2194 291 2438 
Q 291 2659 392 2848 
Q 494 3038 669 3163 
Q 800 3259 1026 3326 
Q 1253 3394 1513 3394 
Q 1903 3394 2198 3281 
Q 2494 3169 2634 2976 
Q 2775 2784 2828 2463 
L 2278 2388 
Q 2241 2644 2061 2787 
Q 1881 2931 1553 2931 
Q 1166 2931 1000 2803 
Q 834 2675 834 2503 
Q 834 2394 903 2306 
Q 972 2216 1119 2156 
Q 1203 2125 1616 2013 
Q 2213 1853 2448 1751 
Q 2684 1650 2818 1456 
Q 2953 1263 2953 975 
Q 2953 694 2789 445 
Q 2625 197 2315 61 
Q 2006 -75 1616 -75 
Q 969 -75 630 194 
Q 291 463 197 991 
z
" transform="scale(0.015625)"/>
       <path id="ArialMT-20" transform="scale(0.015625)"/>
       <path id="ArialMT-28" d="M 1497 -1347 
Q 1031 -759 709 28 
Q 388 816 388 1659 
Q 388 2403 628 3084 
Q 909 3875 1497 4659 
L 1900 4659 
Q 1522 4009 1400 3731 
Q 1209 3300 1100 2831 
Q 966 2247 966 1656 
Q 966 153 1900 -1347 
L 1497 -1347 
z
" transform="scale(0.015625)"/>
       <path id="ArialMT-29" d="M 791 -1347 
L 388 -1347 
Q 1322 153 1322 1656 
Q 1322 2244 1188 2822 
Q 1081 3291 891 3722 
Q 769 4003 388 4659 
L 791 4659 
Q 1378 3875 1659 3084 
Q 1900 2403 1900 1659 
Q 1900 816 1576 28 
Q 1253 -759 791 -1347 
z
" transform="scale(0.015625)"/>
      </defs>
      <use xlink:href="#ArialMT-54"/>
      <use xlink:href="#ArialMT-69" x="57.333984"/>
      <use xlink:href="#ArialMT-6d" x="79.550781"/>
      <use xlink:href="#ArialMT-65" x="162.851562"/>
      <use xlink:href="#ArialMT-73" x="218.466797"/>
      <use xlink:href="#ArialMT-20" x="268.466797"/>
      <use xlink:href="#ArialMT-28" x="296.25"/>
      <use xlink:href="#ArialMT-73" x="329.550781"/>
      <use xlink:href="#ArialMT-29" x="379.550781"/>
     </g>
    </g>
   </g>
   <g id="matplotlib.axis_2">
    <g id="ytick_1">
     <g id="line2d_8">
      <path d="M 47.325 161.978906 
L 326.325 161.978906 
" clip-path="url(#pd601fa5dc5)" style="fill: none; stroke: #cccccc; stroke-width: 0.8; stroke-linecap: round"/>
     </g>
     <g id="text_9">
      <!-- −0.3 -->
      <g style="fill: #262626" transform="translate(20.584375 165.557813) scale(0.1 -0.1)">
       <defs>
        <path id="ArialMT-33" d="M 269 1209 
L 831 1284 
Q 928 806 1161 595 
Q 1394 384 1728 384 
Q 2125 384 2398 659 
Q 2672 934 2672 1341 
Q 2672 1728 2419 1979 
Q 2166 2231 1775 2231 
Q 1616 2231 1378 2169 
L 1441 2663 
Q 1497 2656 1531 2656 
Q 1891 2656 2178 2843 
Q 2466 3031 2466 3422 
Q 2466 3731 2256 3934 
Q 2047 4138 1716 4138 
Q 1388 4138 1169 3931 
Q 950 3725 888 3313 
L 325 3413 
Q 428 3978 793 4289 
Q 1159 4600 1703 4600 
Q 2078 4600 2393 4439 
Q 2709 4278 2876 4000 
Q 3044 3722 3044 3409 
Q 3044 3113 2884 2869 
Q 2725 2625 2413 2481 
Q 2819 2388 3044 2092 
Q 3269 1797 3269 1353 
Q 3269 753 2831 336 
Q 2394 -81 1725 -81 
Q 1122 -81 723 278 
Q 325 638 269 1209 
z
" transform="scale(0.015625)"/>
       </defs>
       <use xlink:href="#ArialMT-2212"/>
       <use xlink:href="#ArialMT-30" x="58.398438"/>
       <use xlink:href="#ArialMT-2e" x="114.013672"/>
       <use xlink:href="#ArialMT-33" x="141.796875"/>
      </g>
     </g>
    </g>
    <g id="ytick_2">
     <g id="line2d_9">
      <path d="M 47.325 131.738906 
L 326.325 131.738906 
" clip-path="url(#pd601fa5dc5)" style="fill: none; stroke: #cccccc; stroke-width: 0.8; stroke-linecap: round"/>
     </g>
     <g id="text_10">
      <!-- −0.2 -->
      <g style="fill: #262626" transform="translate(20.584375 135.317813) scale(0.1 -0.1)">
       <defs>
        <path id="ArialMT-32" d="M 3222 541 
L 3222 0 
L 194 0 
Q 188 203 259 391 
Q 375 700 629 1000 
Q 884 1300 1366 1694 
Q 2113 2306 2375 2664 
Q 2638 3022 2638 3341 
Q 2638 3675 2398 3904 
Q 2159 4134 1775 4134 
Q 1369 4134 1125 3890 
Q 881 3647 878 3216 
L 300 3275 
Q 359 3922 746 4261 
Q 1134 4600 1788 4600 
Q 2447 4600 2831 4234 
Q 3216 3869 3216 3328 
Q 3216 3053 3103 2787 
Q 2991 2522 2730 2228 
Q 2469 1934 1863 1422 
Q 1356 997 1212 845 
Q 1069 694 975 541 
L 3222 541 
z
" transform="scale(0.015625)"/>
       </defs>
       <use xlink:href="#ArialMT-2212"/>
       <use xlink:href="#ArialMT-30" x="58.398438"/>
       <use xlink:href="#ArialMT-2e" x="114.013672"/>
       <use xlink:href="#ArialMT-32" x="141.796875"/>
      </g>
     </g>
    </g>
    <g id="ytick_3">
     <g id="line2d_10">
      <path d="M 47.325 101.498906 
L 326.325 101.498906 
" clip-path="url(#pd601fa5dc5)" style="fill: none; stroke: #cccccc; stroke-width: 0.8; stroke-linecap: round"/>
     </g>
     <g id="text_11">
      <!-- −0.1 -->
      <g style="fill: #262626" transform="translate(20.584375 105.077813) scale(0.1 -0.1)">
       <use xlink:href="#ArialMT-2212"/>
       <use xlink:href="#ArialMT-30" x="58.398438"/>
       <use xlink:href="#ArialMT-2e" x="114.013672"/>
       <use xlink:href="#ArialMT-31" x="141.796875"/>
      </g>
     </g>
    </g>
    <g id="ytick_4">
     <g id="line2d_11">
      <path d="M 47.325 71.258906 
L 326.325 71.258906 
" clip-path="url(#pd601fa5dc5)" style="fill: none; stroke: #cccccc; stroke-width: 0.8; stroke-linecap: round"/>
     </g>
     <g id="text_12">
      <!-- 0.0 -->
      <g style="fill: #262626" transform="translate(26.425 74.837813) scale(0.1 -0.1)">
       <use xlink:href="#ArialMT-30"/>
       <use xlink:href="#ArialMT-2e" x="55.615234"/>
       <use xlink:href="#ArialMT-30" x="83.398438"/>
      </g>
     </g>
    </g>
    <g id="ytick_5">
     <g id="line2d_12">
      <path d="M 47.325 41.018906 
L 326.325 41.018906 
" clip-path="url(#pd601fa5dc5)" style="fill: none; stroke: #cccccc; stroke-width: 0.8; stroke-linecap: round"/>
     </g>
     <g id="text_13">
      <!-- 0.1 -->
      <g style="fill: #262626" transform="translate(26.425 44.597813) scale(0.1 -0.1)">
       <use xlink:href="#ArialMT-30"/>
       <use xlink:href="#ArialMT-2e" x="55.615234"/>
       <use xlink:href="#ArialMT-31" x="83.398438"/>
      </g>
     </g>
    </g>
    <g id="ytick_6">
     <g id="line2d_13">
      <path d="M 47.325 10.778906 
L 326.325 10.778906 
" clip-path="url(#pd601fa5dc5)" style="fill: none; stroke: #cccccc; stroke-width: 0.8; stroke-linecap: round"/>
     </g>
     <g id="text_14">
      <!-- 0.2 -->
      <g style="fill: #262626" transform="translate(26.425 14.357812) scale(0.1 -0.1)">
       <use xlink:href="#ArialMT-30"/>
       <use xlink:href="#ArialMT-2e" x="55.615234"/>
       <use xlink:href="#ArialMT-32" x="83.398438"/>
      </g>
     </g>
    </g>
    <g id="text_15">
     <!-- Power (dB) -->
     <g style="fill: #262626" transform="translate(14.479687 118.945156) rotate(-90) scale(0.1 -0.1)">
      <defs>
       <path id="ArialMT-50" d="M 494 0 
L 494 4581 
L 2222 4581 
Q 2678 4581 2919 4538 
Q 3256 4481 3484 4323 
Q 3713 4166 3852 3881 
Q 3991 3597 3991 3256 
Q 3991 2672 3619 2267 
Q 3247 1863 2275 1863 
L 1100 1863 
L 1100 0 
L 494 0 
z
M 1100 2403 
L 2284 2403 
Q 2872 2403 3119 2622 
Q 3366 2841 3366 3238 
Q 3366 3525 3220 3729 
Q 3075 3934 2838 4000 
Q 2684 4041 2272 4041 
L 1100 4041 
L 1100 2403 
z
" transform="scale(0.015625)"/>
       <path id="ArialMT-6f" d="M 213 1659 
Q 213 2581 725 3025 
Q 1153 3394 1769 3394 
Q 2453 3394 2887 2945 
Q 3322 2497 3322 1706 
Q 3322 1066 3130 698 
Q 2938 331 2570 128 
Q 2203 -75 1769 -75 
Q 1072 -75 642 372 
Q 213 819 213 1659 
z
M 791 1659 
Q 791 1022 1069 705 
Q 1347 388 1769 388 
Q 2188 388 2466 706 
Q 2744 1025 2744 1678 
Q 2744 2294 2464 2611 
Q 2184 2928 1769 2928 
Q 1347 2928 1069 2612 
Q 791 2297 791 1659 
z
" transform="scale(0.015625)"/>
       <path id="ArialMT-77" d="M 1034 0 
L 19 3319 
L 600 3319 
L 1128 1403 
L 1325 691 
Q 1338 744 1497 1375 
L 2025 3319 
L 2603 3319 
L 3100 1394 
L 3266 759 
L 3456 1400 
L 4025 3319 
L 4572 3319 
L 3534 0 
L 2950 0 
L 2422 1988 
L 2294 2553 
L 1622 0 
L 1034 0 
z
" transform="scale(0.015625)"/>
       <path id="ArialMT-72" d="M 416 0 
L 416 3319 
L 922 3319 
L 922 2816 
Q 1116 3169 1280 3281 
Q 1444 3394 1641 3394 
Q 1925 3394 2219 3213 
L 2025 2691 
Q 1819 2813 1613 2813 
Q 1428 2813 1281 2702 
Q 1134 2591 1072 2394 
Q 978 2094 978 1738 
L 978 0 
L 416 0 
z
" transform="scale(0.015625)"/>
       <path id="ArialMT-64" d="M 2575 0 
L 2575 419 
Q 2259 -75 1647 -75 
Q 1250 -75 917 144 
Q 584 363 401 755 
Q 219 1147 219 1656 
Q 219 2153 384 2558 
Q 550 2963 881 3178 
Q 1213 3394 1622 3394 
Q 1922 3394 2156 3267 
Q 2391 3141 2538 2938 
L 2538 4581 
L 3097 4581 
L 3097 0 
L 2575 0 
z
M 797 1656 
Q 797 1019 1065 703 
Q 1334 388 1700 388 
Q 2069 388 2326 689 
Q 2584 991 2584 1609 
Q 2584 2291 2321 2609 
Q 2059 2928 1675 2928 
Q 1300 2928 1048 2622 
Q 797 2316 797 1656 
z
" transform="scale(0.015625)"/>
       <path id="ArialMT-42" d="M 469 0 
L 469 4581 
L 2188 4581 
Q 2713 4581 3030 4442 
Q 3347 4303 3526 4014 
Q 3706 3725 3706 3409 
Q 3706 3116 3547 2856 
Q 3388 2597 3066 2438 
Q 3481 2316 3704 2022 
Q 3928 1728 3928 1328 
Q 3928 1006 3792 729 
Q 3656 453 3456 303 
Q 3256 153 2954 76 
Q 2653 0 2216 0 
L 469 0 
z
M 1075 2656 
L 2066 2656 
Q 2469 2656 2644 2709 
Q 2875 2778 2992 2937 
Q 3109 3097 3109 3338 
Q 3109 3566 3000 3739 
Q 2891 3913 2687 3977 
Q 2484 4041 1991 4041 
L 1075 4041 
L 1075 2656 
z
M 1075 541 
L 2216 541 
Q 2509 541 2628 563 
Q 2838 600 2978 687 
Q 3119 775 3209 942 
Q 3300 1109 3300 1328 
Q 3300 1584 3169 1773 
Q 3038 1963 2805 2039 
Q 2572 2116 2134 2116 
L 1075 2116 
L 1075 541 
z
" transform="scale(0.015625)"/>
      </defs>
      <use xlink:href="#ArialMT-50"/>
      <use xlink:href="#ArialMT-6f" x="66.699219"/>
      <use xlink:href="#ArialMT-77" x="122.314453"/>
      <use xlink:href="#ArialMT-65" x="194.53125"/>
      <use xlink:href="#ArialMT-72" x="250.146484"/>
      <use xlink:href="#ArialMT-20" x="283.447266"/>
      <use xlink:href="#ArialMT-28" x="311.230469"/>
      <use xlink:href="#ArialMT-64" x="344.53125"/>
      <use xlink:href="#ArialMT-42" x="400.146484"/>
      <use xlink:href="#ArialMT-29" x="466.845703"/>
     </g>
    </g>
   </g>
   <g id="PolyCollection_1"/>
   <g id="PolyCollection_2"/>
   <g id="PolyCollection_3"/>
   <g id="PolyCollection_4"/>
   <g id="PolyCollection_5"/>
   <g id="PolyCollection_6"/>
   <g id="line2d_14">
    <path d="M 47.723571 88.010711 
L 48.919286 85.909061 
L 50.115 83.258068 
L 53.303571 75.70356 
L 54.100714 74.344907 
L 54.897857 73.414747 
L 55.695 72.972725 
L 56.093571 72.941353 
L 56.492143 73.033857 
L 57.289286 73.564593 
L 58.086429 74.485915 
L 59.282143 76.346073 
L 61.673571 80.251585 
L 62.869286 81.75021 
L 64.065 82.901442 
L 65.659286 84.113672 
L 68.050714 85.651294 
L 69.645 86.460927 
L 72.833571 87.901855 
L 73.630714 88.510661 
L 74.427857 89.332278 
L 75.623571 91.006643 
L 76.819286 93.133493 
L 79.609286 98.28718 
L 80.406429 99.364466 
L 81.203571 100.143995 
L 82.000714 100.614689 
L 82.797857 100.79803 
L 83.595 100.737812 
L 84.392143 100.487229 
L 85.587857 99.861938 
L 87.182143 98.723439 
L 88.776429 97.270288 
L 89.972143 95.908964 
L 91.566429 93.675306 
L 95.552143 87.579627 
L 96.349286 86.78405 
L 97.146429 86.293545 
L 97.943571 86.161736 
L 98.740714 86.426267 
L 99.537857 87.106248 
L 100.335 88.201291 
L 101.132143 89.69203 
L 102.327857 92.584357 
L 103.922143 97.357781 
L 108.705 112.621171 
L 109.900714 115.61336 
L 111.096429 117.963936 
L 111.893571 119.102063 
L 112.690714 119.857942 
L 113.487857 120.217209 
L 114.285 120.188849 
L 115.082143 119.805258 
L 115.879286 119.11821 
L 117.075 117.667466 
L 121.060714 112.229639 
L 122.256429 111.139056 
L 123.452143 110.393849 
L 124.647857 109.922761 
L 126.242143 109.563946 
L 127.836429 109.399373 
L 129.032143 109.424261 
L 130.227857 109.654747 
L 131.423571 110.183412 
L 132.220714 110.744113 
L 133.017857 111.493997 
L 134.213571 112.996618 
L 135.409286 114.947128 
L 137.003571 118.135244 
L 141.387857 127.629704 
L 142.583571 129.597341 
L 143.779286 131.111375 
L 144.975 132.213003 
L 146.569286 133.259325 
L 148.960714 134.750437 
L 150.156429 135.751844 
L 152.149286 137.812502 
L 153.743571 139.44567 
L 154.939286 140.37363 
L 155.736429 140.771585 
L 156.533571 140.976976 
L 157.729286 140.970781 
L 160.120714 140.63723 
L 160.917857 140.756235 
L 161.715 141.126114 
L 162.512143 141.792624 
L 163.309286 142.766594 
L 164.505 144.741331 
L 166.099286 147.974202 
L 168.092143 151.924311 
L 169.287857 153.713748 
L 170.085 154.535435 
L 170.882143 155.023954 
L 171.679286 155.172313 
L 172.476429 154.99104 
L 173.273571 154.505661 
L 174.070714 153.754481 
L 175.266429 152.230014 
L 176.860714 149.698816 
L 179.252143 145.376585 
L 182.042143 139.840412 
L 188.020714 127.522215 
L 190.013571 124.222983 
L 199.977857 108.718493 
L 203.166429 103.473201 
L 204.760714 101.243661 
L 206.355 99.415715 
L 207.949286 97.948286 
L 209.543571 96.746277 
L 211.137857 95.8049 
L 212.333571 95.394277 
L 213.130714 95.355386 
L 213.927857 95.574431 
L 214.725 96.105816 
L 215.522143 96.986648 
L 216.319286 98.226737 
L 217.515 100.697312 
L 219.109286 104.722985 
L 220.703571 108.693028 
L 221.500714 110.31128 
L 222.297857 111.519322 
L 223.095 112.225597 
L 223.493571 112.37194 
L 223.892143 112.375394 
L 224.290714 112.235253 
L 224.689286 111.953019 
L 225.486429 110.978665 
L 226.283571 109.502865 
L 227.080714 107.5991 
L 228.276429 104.13242 
L 230.269286 97.442736 
L 235.052143 81.054647 
L 237.443571 73.47496 
L 239.037857 69.11248 
L 240.233571 66.508125 
L 241.030714 65.163461 
L 241.827857 64.138334 
L 242.625 63.403373 
L 243.422143 62.900872 
L 244.617857 62.410281 
L 246.212143 61.80945 
L 247.407857 61.116217 
L 248.603571 60.113836 
L 250.197857 58.410361 
L 251.792143 56.710023 
L 252.589286 56.053774 
L 253.386429 55.625346 
L 254.183571 55.477468 
L 254.980714 55.634977 
L 255.777857 56.089665 
L 256.575 56.799716 
L 257.770714 58.183509 
L 259.763571 60.58348 
L 260.959286 61.665617 
L 262.155 62.354652 
L 263.350714 62.704614 
L 264.945 62.853069 
L 268.133571 63.03315 
L 269.329286 63.315747 
L 270.525 63.804648 
L 272.119286 64.757691 
L 274.510714 66.262654 
L 275.307857 66.54913 
L 276.105 66.627194 
L 276.902143 66.458643 
L 277.699286 66.032107 
L 278.496429 65.366603 
L 279.692143 64.026953 
L 282.880714 60.079437 
L 284.076429 58.969903 
L 285.272143 58.166216 
L 286.467857 57.661205 
L 287.663571 57.450589 
L 288.859286 57.550508 
L 290.055 57.983517 
L 291.250714 58.743774 
L 292.845 60.146487 
L 295.635 62.72053 
L 296.830714 63.519587 
L 298.425 64.286756 
L 300.019286 65.068788 
L 301.215 65.955475 
L 302.410714 67.236601 
L 304.005 69.451881 
L 305.599286 71.709513 
L 306.396429 72.606471 
L 307.193571 73.231983 
L 307.990714 73.533583 
L 308.787857 73.496709 
L 309.585 73.14504 
L 310.382143 72.535112 
L 311.976429 70.872212 
L 313.570714 69.239086 
L 314.367857 68.643675 
L 315.165 68.275117 
L 315.962143 68.168336 
L 316.759286 68.338698 
L 317.556429 68.783972 
L 318.353571 69.486709 
L 319.549286 70.949949 
L 321.143571 73.381703 
L 322.737857 75.795366 
L 323.535 76.759226 
L 324.332143 77.436686 
L 325.129286 77.752081 
L 325.926429 77.651817 
L 325.926429 77.651817 
" clip-path="url(#pd601fa5dc5)" style="fill: none; stroke: #1f77b4; stroke-opacity: 0.5; stroke-width: 1.5; stroke-linecap: round"/>
   </g>
   <g id="line2d_15">
    <path d="M 47.723571 76.503666 
L 48.919286 75.651315 
L 50.513571 74.172233 
L 52.905 71.855796 
L 53.702143 71.364574 
L 54.499286 71.141829 
L 55.296429 71.23308 
L 56.093571 71.652354 
L 56.890714 72.382628 
L 57.687857 73.381703 
L 58.883571 75.255314 
L 61.673571 80.323602 
L 63.666429 83.718858 
L 65.260714 86.050936 
L 67.253571 88.556142 
L 69.645 91.236178 
L 70.840714 92.317233 
L 71.637857 92.80598 
L 72.435 93.017999 
L 73.232143 92.888648 
L 74.029286 92.385186 
L 74.826429 91.519994 
L 76.022143 89.693557 
L 78.413571 85.721923 
L 79.210714 84.843801 
L 80.007857 84.394145 
L 80.406429 84.353867 
L 80.805 84.443955 
L 81.203571 84.666425 
L 82.000714 85.503128 
L 82.797857 86.829337 
L 83.595 88.578216 
L 84.790714 91.797998 
L 87.182143 99.198217 
L 89.175 105.038744 
L 90.370714 107.957215 
L 91.566429 110.233297 
L 92.363571 111.341592 
L 93.160714 112.113017 
L 93.957857 112.565782 
L 94.755 112.742152 
L 95.552143 112.705209 
L 97.146429 112.306486 
L 98.740714 111.979285 
L 99.936429 112.007296 
L 101.530714 112.372969 
L 103.125 112.728839 
L 103.922143 112.733638 
L 104.719286 112.549893 
L 105.516429 112.150959 
L 106.313571 111.537827 
L 107.509286 110.280355 
L 109.502143 107.710946 
L 111.495 105.23213 
L 113.089286 103.59616 
L 114.683571 102.293033 
L 116.277857 101.3188 
L 117.473571 100.847793 
L 118.669286 100.662916 
L 119.466429 100.726581 
L 120.263571 100.953611 
L 121.060714 101.349071 
L 122.256429 102.25235 
L 123.452143 103.496323 
L 125.046429 105.595766 
L 126.640714 108.120704 
L 128.235 111.096943 
L 129.829286 114.569982 
L 133.416429 122.737876 
L 134.612143 124.736716 
L 135.409286 125.726335 
L 136.206429 126.456133 
L 137.402143 127.172285 
L 141.387857 128.942983 
L 142.583571 129.922429 
L 143.779286 131.245537 
L 144.975 132.894631 
L 149.757857 140.054228 
L 150.953571 141.300177 
L 152.946429 142.97438 
L 156.135 145.353445 
L 157.330714 145.995519 
L 158.526429 146.346491 
L 159.722143 146.395632 
L 161.316429 146.162232 
L 162.910714 145.959864 
L 164.106429 146.086728 
L 164.903571 146.389984 
L 165.700714 146.908436 
L 166.497857 147.665797 
L 167.295 148.673746 
L 168.490714 150.645599 
L 169.686429 153.095218 
L 172.476429 159.648003 
L 174.070714 163.017798 
L 175.266429 164.989173 
L 176.063571 165.967031 
L 176.860714 166.653451 
L 177.657857 167.04143 
L 178.455 167.133234 
L 179.252143 166.940399 
L 180.049286 166.480988 
L 180.846429 165.775865 
L 182.042143 164.301378 
L 183.237857 162.368093 
L 184.433571 159.993259 
L 185.629286 157.170075 
L 187.223571 152.714682 
L 189.216429 146.29439 
L 191.607857 138.589941 
L 192.803571 135.377802 
L 193.999286 132.887842 
L 194.796429 131.675415 
L 195.593571 130.812096 
L 196.390714 130.259655 
L 197.187857 129.957271 
L 198.383571 129.802259 
L 200.376429 129.676102 
L 201.572143 129.345487 
L 202.767857 128.699625 
L 203.963571 127.704236 
L 205.159286 126.325695 
L 206.355 124.518433 
L 207.550714 122.25721 
L 209.145 118.631284 
L 212.333571 111.043174 
L 213.529286 108.817318 
L 214.725 107.122636 
L 215.920714 105.889631 
L 217.515 104.689429 
L 221.102143 102.463673 
L 225.087857 100.050275 
L 226.283571 99.084915 
L 227.479286 97.860808 
L 228.675 96.324746 
L 229.870714 94.451688 
L 231.066429 92.235998 
L 232.660714 88.749209 
L 234.255 84.645943 
L 235.849286 79.955704 
L 241.030714 63.925067 
L 242.625 60.026686 
L 244.219286 56.67763 
L 246.212143 52.974528 
L 247.806429 50.476713 
L 249.002143 49.090243 
L 249.799286 48.472881 
L 250.596429 48.112214 
L 251.393571 47.979958 
L 252.589286 48.061041 
L 254.183571 48.165832 
L 254.980714 47.983834 
L 255.777857 47.543262 
L 256.575 46.810979 
L 257.372143 45.791707 
L 258.567857 43.80904 
L 260.162143 40.620561 
L 264.546429 31.491345 
L 266.140714 28.642047 
L 267.336429 26.90648 
L 268.133571 26.043236 
L 268.930714 25.489991 
L 269.727857 25.30944 
L 270.525 25.552995 
L 271.322143 26.252246 
L 272.119286 27.412319 
L 272.916429 29.007515 
L 274.112143 32.08186 
L 276.105 38.187905 
L 277.699286 42.879268 
L 278.895 45.757126 
L 280.090714 47.918994 
L 280.887857 48.975327 
L 281.685 49.77064 
L 282.880714 50.603007 
L 284.475 51.36124 
L 286.467857 52.304138 
L 287.663571 53.06566 
L 288.859286 54.054041 
L 290.055 55.296669 
L 291.649286 57.305939 
L 294.040714 60.459618 
L 295.236429 61.641875 
L 296.033571 62.148375 
L 296.830714 62.401066 
L 297.627857 62.413974 
L 298.823571 62.096925 
L 300.816429 61.390404 
L 301.613571 61.324968 
L 302.410714 61.500173 
L 303.207857 61.955962 
L 304.005 62.694893 
L 305.200714 64.243638 
L 307.990714 68.243182 
L 308.787857 68.945588 
L 309.585 69.259674 
L 309.983571 69.251783 
L 310.780714 68.892089 
L 311.577857 68.090925 
L 312.375 66.909959 
L 313.570714 64.657382 
L 315.563571 60.731185 
L 316.759286 58.932403 
L 317.556429 58.110894 
L 318.353571 57.597118 
L 319.150714 57.351437 
L 319.947857 57.308333 
L 321.143571 57.466103 
L 323.136429 57.96918 
L 324.332143 58.437282 
L 325.527857 59.159 
L 325.926429 59.464987 
L 325.926429 59.464987 
" clip-path="url(#pd601fa5dc5)" style="fill: none; stroke: #ff7f0e; stroke-opacity: 0.5; stroke-width: 1.5; stroke-linecap: round"/>
   </g>
   <g id="line2d_16">
    <path d="M 47.723571 83.974183 
L 50.513571 89.103164 
L 51.709286 90.716768 
L 52.905 91.834341 
L 54.100714 92.590285 
L 56.093571 93.73032 
L 57.289286 94.728642 
L 58.485 96.106535 
L 60.079286 98.445564 
L 62.869286 102.715295 
L 64.065 104.073642 
L 64.862143 104.701619 
L 65.659286 105.074945 
L 66.456429 105.181086 
L 67.253571 105.023519 
L 68.050714 104.624133 
L 69.246429 103.667454 
L 72.435 100.704045 
L 73.232143 100.293302 
L 74.029286 100.141052 
L 74.826429 100.278564 
L 75.623571 100.712859 
L 76.420714 101.426687 
L 77.616429 102.929273 
L 79.609286 106.052121 
L 81.203571 108.484851 
L 82.399286 109.96244 
L 83.196429 110.696578 
L 83.993571 111.187676 
L 84.790714 111.409981 
L 85.587857 111.351569 
L 86.385 111.018656 
L 87.182143 110.436641 
L 88.377857 109.187737 
L 89.972143 107.079849 
L 96.349286 97.842666 
L 97.943571 95.185014 
L 99.936429 91.407039 
L 102.327857 86.878641 
L 103.523571 84.979107 
L 104.719286 83.46881 
L 105.915 82.401455 
L 106.712143 81.953907 
L 107.509286 81.731276 
L 108.306429 81.748458 
L 109.103571 82.020847 
L 109.900714 82.559431 
L 110.697857 83.365151 
L 111.893571 85.036016 
L 113.487857 87.885545 
L 115.879286 92.31409 
L 117.075 94.115893 
L 118.270714 95.556913 
L 121.459286 99.079791 
L 122.256429 100.343761 
L 123.452143 102.770002 
L 124.647857 105.80009 
L 127.836429 114.569362 
L 128.633571 116.240743 
L 129.430714 117.497904 
L 130.227857 118.303919 
L 131.025 118.67076 
L 131.822143 118.655396 
L 132.619286 118.349736 
L 134.213571 117.322899 
L 135.409286 116.628694 
L 136.206429 116.36547 
L 137.003571 116.31777 
L 137.800714 116.496236 
L 138.597857 116.879558 
L 139.793571 117.72881 
L 142.185 119.561474 
L 143.380714 120.171167 
L 144.975 120.637291 
L 146.569286 121.118025 
L 147.366429 121.549356 
L 148.163571 122.190529 
L 148.960714 123.074848 
L 150.156429 124.85964 
L 151.750714 127.894303 
L 154.142143 132.584036 
L 155.337857 134.349157 
L 156.135 135.170455 
L 156.932143 135.684118 
L 157.729286 135.897777 
L 158.526429 135.837886 
L 159.323571 135.543649 
L 160.519286 134.764324 
L 162.113571 133.359971 
L 164.106429 131.654732 
L 164.903571 131.19715 
L 165.700714 130.976102 
L 166.497857 131.062938 
L 167.295 131.520536 
L 168.092143 132.396863 
L 168.889286 133.719308 
L 169.686429 135.490082 
L 170.882143 138.921553 
L 172.476429 144.581399 
L 175.266429 155.00835 
L 176.462143 158.647755 
L 177.259286 160.574628 
L 178.056429 162.052786 
L 178.853571 163.072278 
L 179.650714 163.648631 
L 180.447857 163.815895 
L 181.245 163.616084 
L 182.042143 163.089612 
L 182.839286 162.268735 
L 183.636429 161.174257 
L 184.832143 159.046036 
L 186.027857 156.37686 
L 187.622143 152.169997 
L 190.412143 144.552035 
L 191.607857 141.880587 
L 192.803571 139.855975 
L 193.600714 138.907495 
L 194.397857 138.278863 
L 195.195 137.94723 
L 195.992143 137.873398 
L 196.789286 138.007704 
L 197.985 138.481298 
L 201.970714 140.395306 
L 202.767857 140.50604 
L 203.565 140.418284 
L 204.362143 140.079887 
L 205.159286 139.439469 
L 205.956429 138.450645 
L 206.753571 137.078209 
L 207.550714 135.306725 
L 208.746429 131.933031 
L 209.942143 127.846638 
L 214.725 110.306433 
L 215.920714 106.950029 
L 217.116429 104.219764 
L 218.312143 102.032243 
L 219.906429 99.666431 
L 223.095 95.147315 
L 225.087857 91.764523 
L 228.675 85.018182 
L 232.262143 78.373102 
L 233.856429 75.911627 
L 235.052143 74.410201 
L 236.646429 72.803467 
L 239.835 69.84851 
L 241.030714 68.412576 
L 242.226429 66.659356 
L 243.820714 63.840965 
L 250.995 49.754548 
L 252.589286 46.232571 
L 256.575 36.953933 
L 257.372143 35.63906 
L 258.169286 34.700339 
L 258.966429 34.18554 
L 259.763571 34.112282 
L 260.560714 34.464736 
L 261.357857 35.192836 
L 262.553571 36.801171 
L 264.945 40.35737 
L 265.742143 41.158151 
L 266.539286 41.593098 
L 267.336429 41.620011 
L 268.133571 41.252245 
L 268.930714 40.559202 
L 272.119286 37.162546 
L 272.916429 36.853187 
L 273.713571 36.953271 
L 274.510714 37.485252 
L 275.307857 38.424336 
L 276.105 39.703172 
L 277.699286 42.865179 
L 279.692143 46.791499 
L 280.887857 48.638429 
L 282.083571 49.975318 
L 282.880714 50.583643 
L 283.677857 50.973537 
L 284.475 51.145325 
L 285.272143 51.086533 
L 286.069286 50.771155 
L 286.866429 50.163061 
L 287.663571 49.223312 
L 288.460714 47.922778 
L 289.257857 46.257631 
L 290.453571 43.162678 
L 294.040714 33.05145 
L 294.837857 31.439639 
L 295.635 30.211055 
L 296.432143 29.343472 
L 297.229286 28.76672 
L 298.823571 28.041703 
L 300.019286 27.396892 
L 300.816429 26.739154 
L 301.613571 25.849726 
L 302.809286 24.12899 
L 305.200714 20.443618 
L 305.997857 19.635912 
L 306.795 19.267798 
L 307.193571 19.283045 
L 307.592143 19.44523 
L 307.990714 19.761796 
L 308.787857 20.87451 
L 309.585 22.626742 
L 310.382143 24.97986 
L 311.577857 29.449183 
L 313.570714 38.286333 
L 315.165 45.139666 
L 316.360714 49.370118 
L 317.157857 51.589628 
L 317.955 53.30863 
L 318.752143 54.571818 
L 319.549286 55.469594 
L 320.745 56.393931 
L 322.737857 57.807115 
L 323.933571 59.045377 
L 325.129286 60.67225 
L 325.926429 61.901234 
L 325.926429 61.901234 
" clip-path="url(#pd601fa5dc5)" style="fill: none; stroke: #2ca02c; stroke-opacity: 0.5; stroke-width: 1.5; stroke-linecap: round"/>
   </g>
   <g id="line2d_17">
    <path d="M 47.723571 93.687396 
L 48.520714 94.682139 
L 49.317857 95.208889 
L 49.716429 95.292251 
L 50.115 95.258048 
L 50.912143 94.857834 
L 51.709286 94.070547 
L 52.905 92.365742 
L 55.695 87.963534 
L 56.492143 87.110209 
L 57.289286 86.599188 
L 58.086429 86.474721 
L 58.883571 86.744912 
L 59.680714 87.37987 
L 60.477857 88.313779 
L 62.072143 90.679181 
L 63.666429 92.929898 
L 64.463571 93.75488 
L 65.260714 94.300472 
L 66.057857 94.560239 
L 66.855 94.569439 
L 68.050714 94.265299 
L 70.043571 93.616684 
L 70.840714 93.520372 
L 71.637857 93.587362 
L 72.435 93.838882 
L 73.232143 94.280575 
L 74.427857 95.282231 
L 75.623571 96.626562 
L 80.406429 102.541027 
L 81.602143 103.439497 
L 82.797857 104.018436 
L 84.392143 104.446199 
L 86.783571 104.989779 
L 87.979286 105.483683 
L 89.175 106.208177 
L 90.769286 107.469381 
L 92.762143 109.067466 
L 93.559286 109.509533 
L 94.356429 109.724547 
L 95.153571 109.636074 
L 95.950714 109.177009 
L 96.747857 108.298211 
L 97.545 106.977409 
L 98.342143 105.227165 
L 99.537857 101.921014 
L 103.523571 89.76367 
L 104.320714 88.059964 
L 105.117857 86.785892 
L 105.915 85.955694 
L 106.712143 85.555393 
L 107.509286 85.551599 
L 108.306429 85.900717 
L 109.103571 86.557551 
L 109.900714 87.482062 
L 111.096429 89.304251 
L 112.292143 91.588088 
L 113.886429 95.263568 
L 115.879286 100.605072 
L 118.270714 107.084591 
L 119.466429 109.741808 
L 120.263571 111.097964 
L 121.060714 112.042877 
L 121.857857 112.543694 
L 122.655 112.611142 
L 123.452143 112.304888 
L 124.249286 111.730283 
L 126.242143 110.077999 
L 127.039286 109.740984 
L 127.836429 109.790176 
L 128.235 109.98775 
L 129.032143 110.758762 
L 129.829286 112.031186 
L 130.626429 113.757195 
L 131.822143 116.967468 
L 134.213571 123.670168 
L 135.010714 125.390186 
L 135.807857 126.662596 
L 136.605 127.454116 
L 137.402143 127.789807 
L 138.199286 127.742981 
L 138.996429 127.419797 
L 142.185 125.723849 
L 142.982143 125.671222 
L 143.779286 125.863303 
L 144.576429 126.292559 
L 145.772143 127.297445 
L 147.765 129.445572 
L 149.757857 131.485823 
L 151.352143 132.763609 
L 152.547857 133.446162 
L 153.743571 133.837411 
L 154.939286 133.899583 
L 156.135 133.64518 
L 157.729286 132.982006 
L 159.323571 132.35562 
L 160.120714 132.237537 
L 160.917857 132.353623 
L 161.715 132.773749 
L 162.512143 133.549296 
L 163.309286 134.703619 
L 164.106429 136.225329 
L 165.302143 139.081846 
L 169.287857 149.546308 
L 170.483571 151.807569 
L 171.679286 153.475318 
L 172.875 154.636936 
L 174.070714 155.430935 
L 175.665 156.171882 
L 177.657857 157.063203 
L 178.853571 157.8015 
L 180.049286 158.788421 
L 181.643571 160.47674 
L 184.035 163.11678 
L 184.832143 163.696492 
L 185.629286 163.953057 
L 186.027857 163.930227 
L 186.426429 163.79375 
L 187.223571 163.155079 
L 188.020714 162.016791 
L 188.817857 160.408775 
L 190.013571 157.296053 
L 193.600714 147.074945 
L 194.796429 144.707689 
L 195.593571 143.560785 
L 196.390714 142.71276 
L 197.586429 141.822456 
L 199.579286 140.53989 
L 200.775 139.473011 
L 201.970714 138.088834 
L 204.362143 134.814174 
L 209.145 128.135842 
L 210.340714 125.849335 
L 211.935 122.171436 
L 214.725 115.403287 
L 215.920714 113.057898 
L 217.116429 111.260171 
L 218.312143 109.967149 
L 219.906429 108.724747 
L 221.500714 107.49894 
L 222.696429 106.278911 
L 223.892143 104.675382 
L 225.087857 102.700457 
L 227.080714 98.905887 
L 230.269286 92.852997 
L 231.863571 89.759936 
L 233.059286 86.97539 
L 234.255 83.478718 
L 235.450714 79.141175 
L 237.045 72.2828 
L 239.835 60.054427 
L 241.030714 55.921213 
L 241.827857 53.773673 
L 242.625 52.154505 
L 243.422143 51.062313 
L 244.219286 50.468228 
L 245.016429 50.323467 
L 245.813571 50.567126 
L 246.610714 51.132293 
L 247.407857 51.950779 
L 248.603571 53.508985 
L 252.190714 58.555365 
L 252.987857 59.35805 
L 253.785 59.927829 
L 254.582143 60.22655 
L 255.379286 60.227226 
L 256.176429 59.916379 
L 256.973571 59.296411 
L 257.770714 58.384646 
L 258.966429 56.53571 
L 260.162143 54.222882 
L 261.756429 50.627446 
L 264.147857 44.583396 
L 266.539286 38.596352 
L 267.735 36.117963 
L 268.532143 34.818299 
L 269.329286 33.874454 
L 270.126429 33.334301 
L 270.923571 33.226244 
L 271.720714 33.557969 
L 272.517857 34.316523 
L 273.315 35.466799 
L 274.510714 37.80016 
L 276.105 41.65621 
L 280.090714 51.761906 
L 282.083571 56.086489 
L 283.279286 58.279536 
L 284.475 60.072663 
L 285.670714 61.413566 
L 286.866429 62.309076 
L 288.062143 62.822985 
L 289.257857 63.048521 
L 290.852143 63.054524 
L 293.243571 62.769973 
L 296.432143 62.41304 
L 301.613571 62.017347 
L 302.809286 61.671722 
L 304.005 61.12257 
L 305.200714 60.361235 
L 306.795 59.071336 
L 309.186429 56.784697 
L 315.165 50.869274 
L 315.962143 50.391926 
L 316.759286 50.135674 
L 317.556429 50.148642 
L 318.353571 50.458705 
L 319.150714 51.065623 
L 319.947857 51.937604 
L 321.143571 53.599267 
L 323.535 57.064422 
L 324.730714 58.31278 
L 325.527857 58.861007 
L 325.926429 59.044276 
L 325.926429 59.044276 
" clip-path="url(#pd601fa5dc5)" style="fill: none; stroke: #d62728; stroke-opacity: 0.5; stroke-width: 1.5; stroke-linecap: round"/>
   </g>
   <g id="line2d_18">
    <path d="M 47.723571 91.27588 
L 49.317857 92.576389 
L 51.310714 93.942324 
L 52.905 94.779276 
L 54.499286 95.320505 
L 57.289286 96.133497 
L 58.086429 96.589452 
L 58.883571 97.24315 
L 59.680714 98.121754 
L 60.876429 99.847397 
L 62.869286 103.369016 
L 64.463571 106.009485 
L 65.659286 107.513808 
L 66.855 108.545866 
L 68.050714 109.198799 
L 69.246429 109.596837 
L 70.442143 109.784453 
L 71.239286 109.75718 
L 72.036429 109.553378 
L 72.833571 109.119442 
L 73.630714 108.413359 
L 74.427857 107.418735 
L 75.623571 105.434265 
L 77.616429 101.386248 
L 79.210714 98.298104 
L 80.406429 96.453265 
L 81.602143 95.122511 
L 82.399286 94.512737 
L 83.196429 94.099106 
L 83.993571 93.856421 
L 85.189286 93.778189 
L 85.986429 93.917725 
L 86.783571 94.232987 
L 87.580714 94.756683 
L 88.377857 95.52363 
L 89.175 96.558642 
L 90.370714 98.612473 
L 91.965 102.054011 
L 93.957857 106.408322 
L 94.755 107.791829 
L 95.552143 108.833856 
L 96.349286 109.502914 
L 97.146429 109.824688 
L 97.943571 109.879034 
L 100.335 109.700989 
L 101.132143 109.933648 
L 101.929286 110.431312 
L 102.726429 111.188062 
L 103.922143 112.666536 
L 105.516429 114.660086 
L 106.313571 115.345763 
L 107.110714 115.644263 
L 107.509286 115.615327 
L 107.907857 115.454983 
L 108.306429 115.157618 
L 109.103571 114.145711 
L 109.900714 112.60184 
L 110.697857 110.599999 
L 112.292143 105.722268 
L 114.285 99.590241 
L 115.082143 97.609738 
L 115.879286 96.078039 
L 116.676429 95.075642 
L 117.075 94.789736 
L 117.473571 94.652452 
L 117.872143 94.665233 
L 118.270714 94.827604 
L 118.669286 95.13729 
L 119.466429 96.180145 
L 120.263571 97.738736 
L 121.459286 100.852709 
L 125.445 112.610655 
L 126.242143 114.174392 
L 127.039286 115.260563 
L 127.836429 115.870656 
L 128.633571 116.062724 
L 129.430714 115.944 
L 131.822143 115.163044 
L 132.619286 115.217249 
L 133.416429 115.585566 
L 134.213571 116.300239 
L 135.010714 117.351296 
L 136.206429 119.448488 
L 140.590714 128.100124 
L 141.786429 129.711339 
L 142.982143 130.905869 
L 144.576429 132.069694 
L 146.569286 133.489441 
L 147.765 134.710125 
L 148.960714 136.415631 
L 150.156429 138.670817 
L 151.352143 141.426332 
L 153.345 146.731098 
L 156.135 154.227903 
L 157.729286 157.814119 
L 158.925 159.887287 
L 159.722143 160.896136 
L 160.519286 161.566161 
L 161.316429 161.874991 
L 162.113571 161.815991 
L 162.910714 161.399592 
L 163.707857 160.652583 
L 164.505 159.619123 
L 165.700714 157.671457 
L 168.490714 152.777038 
L 169.287857 151.700037 
L 170.085 150.898317 
L 170.882143 150.403651 
L 171.679286 150.213806 
L 172.476429 150.29077 
L 173.672143 150.739939 
L 175.266429 151.383753 
L 176.063571 151.447695 
L 176.860714 151.193361 
L 177.657857 150.54868 
L 178.455 149.484943 
L 179.252143 148.020699 
L 180.447857 145.220309 
L 184.433571 135.065876 
L 185.629286 132.983408 
L 186.426429 131.972631 
L 187.223571 131.251184 
L 188.020714 130.790748 
L 188.817857 130.554474 
L 189.615 130.501509 
L 190.810714 130.677896 
L 192.405 131.206287 
L 195.992143 132.748303 
L 197.985 133.795014 
L 199.579286 134.911672 
L 201.572143 136.661545 
L 203.963571 138.755046 
L 205.159286 139.506314 
L 206.355 139.941034 
L 207.550714 140.050813 
L 208.746429 139.89272 
L 210.340714 139.422103 
L 215.522143 137.67998 
L 216.717857 137.519597 
L 217.913571 137.565465 
L 219.109286 137.822546 
L 222.297857 138.680594 
L 223.095 138.643313 
L 223.892143 138.411649 
L 224.689286 137.961555 
L 225.486429 137.285045 
L 226.682143 135.871471 
L 228.276429 133.437294 
L 231.465 128.32669 
L 234.653571 123.577445 
L 235.849286 121.398832 
L 237.443571 117.944922 
L 239.037857 113.94598 
L 241.030714 108.289336 
L 243.023571 101.883802 
L 245.813571 92.758825 
L 247.009286 89.591044 
L 247.806429 87.926323 
L 248.603571 86.657522 
L 249.400714 85.77238 
L 250.197857 85.218156 
L 250.995 84.906987 
L 253.386429 84.269751 
L 254.183571 83.797771 
L 254.980714 83.092724 
L 256.176429 81.621669 
L 260.162143 75.964021 
L 261.357857 74.873449 
L 262.553571 74.107604 
L 269.727857 70.461699 
L 271.322143 70.03331 
L 272.916429 69.908456 
L 274.510714 70.075663 
L 276.902143 70.677045 
L 278.097857 70.894639 
L 278.895 70.894058 
L 279.692143 70.718181 
L 280.489286 70.331355 
L 281.286429 69.721303 
L 282.482143 68.436732 
L 285.272143 65.019292 
L 286.069286 64.39692 
L 286.866429 64.105975 
L 287.663571 64.201776 
L 288.460714 64.705063 
L 289.257857 65.602202 
L 290.055 66.84914 
L 291.250714 69.225438 
L 296.033571 79.690559 
L 297.229286 81.503237 
L 298.425 82.852409 
L 299.620714 83.823612 
L 301.215 84.756889 
L 304.802143 86.675694 
L 308.787857 89.034041 
L 310.382143 89.609579 
L 312.375 90.010665 
L 315.962143 90.460788 
L 317.157857 90.425187 
L 318.353571 90.187162 
L 319.947857 89.611965 
L 321.542143 89.054528 
L 322.339286 88.927913 
L 323.136429 88.966313 
L 323.933571 89.190953 
L 325.129286 89.841713 
L 325.926429 90.393225 
L 325.926429 90.393225 
" clip-path="url(#pd601fa5dc5)" style="fill: none; stroke: #9467bd; stroke-opacity: 0.5; stroke-width: 1.5; stroke-linecap: round"/>
   </g>
   <g id="line2d_19">
    <path d="M 47.723571 86.690367 
L 48.520714 86.957514 
L 49.317857 87.043466 
L 50.115 86.940295 
L 50.912143 86.66105 
L 52.107857 85.99426 
L 54.499286 84.560247 
L 55.296429 84.321507 
L 56.093571 84.306543 
L 56.890714 84.55122 
L 57.687857 85.067261 
L 58.485 85.841422 
L 59.680714 87.402801 
L 61.673571 90.566143 
L 63.267857 92.993524 
L 64.463571 94.468143 
L 65.659286 95.549758 
L 66.855 96.249321 
L 68.050714 96.645079 
L 69.645 96.875969 
L 72.036429 96.927915 
L 76.819286 96.908839 
L 78.413571 97.237315 
L 80.007857 97.824696 
L 82.000714 98.817857 
L 87.979286 101.983458 
L 91.167857 103.452463 
L 92.363571 103.826727 
L 93.559286 103.973518 
L 94.755 103.816905 
L 95.950714 103.325132 
L 97.146429 102.535272 
L 101.132143 99.550738 
L 101.929286 99.254137 
L 102.726429 99.122186 
L 103.922143 99.209466 
L 105.117857 99.550014 
L 109.103571 100.928803 
L 111.096429 101.257868 
L 115.480714 101.83373 
L 117.075 102.297918 
L 118.669286 103.03469 
L 119.865 103.80716 
L 121.459286 105.14345 
L 123.452143 107.208586 
L 128.235 112.388136 
L 131.822143 116.105159 
L 138.597857 123.661045 
L 140.989286 125.830314 
L 143.779286 128.012731 
L 146.170714 129.925255 
L 147.765 131.456937 
L 149.359286 133.292683 
L 151.352143 135.978993 
L 154.142143 139.824407 
L 155.337857 141.157481 
L 156.533571 142.147315 
L 157.729286 142.762438 
L 158.925 143.047557 
L 160.519286 143.112826 
L 162.512143 143.193111 
L 163.707857 143.478148 
L 164.903571 144.034731 
L 166.099286 144.880537 
L 167.295 145.996595 
L 168.889286 147.837533 
L 170.882143 150.527507 
L 173.672143 154.305086 
L 174.867857 155.580721 
L 175.665 156.217089 
L 176.462143 156.646554 
L 177.259286 156.850791 
L 178.056429 156.82408 
L 178.853571 156.573862 
L 179.650714 156.119401 
L 180.846429 155.11616 
L 182.042143 153.817915 
L 183.636429 151.7583 
L 185.230714 149.371885 
L 186.825 146.621936 
L 188.817857 142.706916 
L 191.607857 137.142516 
L 192.803571 135.143824 
L 193.999286 133.555345 
L 195.195 132.416275 
L 196.390714 131.684447 
L 197.586429 131.249894 
L 201.970714 130.009714 
L 203.565 129.14959 
L 204.760714 128.285983 
L 205.956429 127.193196 
L 207.152143 125.821547 
L 208.347857 124.137067 
L 209.942143 121.442363 
L 213.529286 114.989841 
L 214.725 113.362499 
L 215.522143 112.540787 
L 216.319286 111.940667 
L 217.116429 111.550562 
L 218.312143 111.290623 
L 219.906429 111.287152 
L 221.500714 111.21967 
L 222.297857 111.010567 
L 223.095 110.623053 
L 223.892143 110.030313 
L 224.689286 109.222738 
L 225.885 107.625845 
L 227.080714 105.634532 
L 229.073571 101.7428 
L 232.262143 94.921596 
L 234.255 90.287262 
L 236.247857 85.094875 
L 240.632143 73.278202 
L 242.226429 69.75234 
L 243.820714 66.784767 
L 245.415 64.313063 
L 247.009286 62.320433 
L 248.205 61.157535 
L 249.400714 60.276168 
L 250.995 59.445505 
L 254.183571 57.980281 
L 255.777857 56.895172 
L 258.169286 54.866777 
L 260.560714 52.903237 
L 262.952143 51.258409 
L 265.343571 49.579596 
L 268.930714 46.867355 
L 269.727857 46.486829 
L 270.525 46.296386 
L 271.322143 46.336177 
L 272.119286 46.630331 
L 272.916429 47.183316 
L 273.713571 47.977488 
L 274.909286 49.52958 
L 278.496429 54.707464 
L 279.692143 55.926923 
L 280.887857 56.745472 
L 282.083571 57.206471 
L 283.279286 57.399548 
L 284.873571 57.415877 
L 288.460714 57.346277 
L 290.453571 57.558073 
L 292.047857 57.928289 
L 294.040714 58.634504 
L 296.830714 59.657245 
L 298.425 59.980564 
L 300.417857 60.08814 
L 303.207857 60.203295 
L 304.802143 60.517848 
L 306.795 61.18027 
L 309.983571 62.263955 
L 311.976429 62.677757 
L 315.563571 63.324434 
L 317.157857 63.826163 
L 318.752143 64.546384 
L 320.346429 65.498594 
L 322.339286 66.959149 
L 325.926429 69.691108 
L 325.926429 69.691108 
" clip-path="url(#pd601fa5dc5)" style="fill: none; stroke: #000000; stroke-width: 1.5; stroke-linecap: round"/>
   </g>
   <g id="patch_3">
    <path d="M 47.325 177.098906 
L 47.325 10.778906 
" style="fill: none; stroke: #cccccc; stroke-width: 0.8; stroke-linejoin: miter; stroke-linecap: square"/>
   </g>
   <g id="patch_4">
    <path d="M 326.325 177.098906 
L 326.325 10.778906 
" style="fill: none; stroke: #cccccc; stroke-width: 0.8; stroke-linejoin: miter; stroke-linecap: square"/>
   </g>
   <g id="patch_5">
    <path d="M 47.325 177.098906 
L 326.325 177.098906 
" style="fill: none; stroke: #cccccc; stroke-width: 0.8; stroke-linejoin: miter; stroke-linecap: square"/>
   </g>
   <g id="patch_6">
    <path d="M 47.325 10.778906 
L 326.325 10.778906 
" style="fill: none; stroke: #cccccc; stroke-width: 0.8; stroke-linejoin: miter; stroke-linecap: square"/>
   </g>
   <g id="legend_1">
    <g id="patch_7">
     <path d="M 333.325 104.532031 
L 457.871875 104.532031 
Q 459.871875 104.532031 459.871875 102.532031 
L 459.871875 17.778906 
Q 459.871875 15.778906 457.871875 15.778906 
L 333.325 15.778906 
Q 331.325 15.778906 331.325 17.778906 
L 331.325 102.532031 
Q 331.325 104.532031 333.325 104.532031 
z
" style="fill: #ffffff; opacity: 0.8; stroke: #cccccc; stroke-linejoin: miter"/>
    </g>
    <g id="line2d_20">
     <path d="M 335.325 23.466406 
L 345.325 23.466406 
L 355.325 23.466406 
" style="fill: none; stroke: #1f77b4; stroke-opacity: 0.5; stroke-width: 1.5; stroke-linecap: round"/>
    </g>
    <g id="text_16">
     <!-- Finger 1, var = 0.009 -->
     <g style="fill: #262626" transform="translate(363.325 26.966406) scale(0.1 -0.1)">
      <defs>
       <path id="ArialMT-46" d="M 525 0 
L 525 4581 
L 3616 4581 
L 3616 4041 
L 1131 4041 
L 1131 2622 
L 3281 2622 
L 3281 2081 
L 1131 2081 
L 1131 0 
L 525 0 
z
" transform="scale(0.015625)"/>
       <path id="ArialMT-6e" d="M 422 0 
L 422 3319 
L 928 3319 
L 928 2847 
Q 1294 3394 1984 3394 
Q 2284 3394 2536 3286 
Q 2788 3178 2913 3003 
Q 3038 2828 3088 2588 
Q 3119 2431 3119 2041 
L 3119 0 
L 2556 0 
L 2556 2019 
Q 2556 2363 2490 2533 
Q 2425 2703 2258 2804 
Q 2091 2906 1866 2906 
Q 1506 2906 1245 2678 
Q 984 2450 984 1813 
L 984 0 
L 422 0 
z
" transform="scale(0.015625)"/>
       <path id="ArialMT-67" d="M 319 -275 
L 866 -356 
Q 900 -609 1056 -725 
Q 1266 -881 1628 -881 
Q 2019 -881 2231 -725 
Q 2444 -569 2519 -288 
Q 2563 -116 2559 434 
Q 2191 0 1641 0 
Q 956 0 581 494 
Q 206 988 206 1678 
Q 206 2153 378 2554 
Q 550 2956 876 3175 
Q 1203 3394 1644 3394 
Q 2231 3394 2613 2919 
L 2613 3319 
L 3131 3319 
L 3131 450 
Q 3131 -325 2973 -648 
Q 2816 -972 2473 -1159 
Q 2131 -1347 1631 -1347 
Q 1038 -1347 672 -1080 
Q 306 -813 319 -275 
z
M 784 1719 
Q 784 1066 1043 766 
Q 1303 466 1694 466 
Q 2081 466 2343 764 
Q 2606 1063 2606 1700 
Q 2606 2309 2336 2618 
Q 2066 2928 1684 2928 
Q 1309 2928 1046 2623 
Q 784 2319 784 1719 
z
" transform="scale(0.015625)"/>
       <path id="ArialMT-2c" d="M 569 0 
L 569 641 
L 1209 641 
L 1209 0 
Q 1209 -353 1084 -570 
Q 959 -788 688 -906 
L 531 -666 
Q 709 -588 793 -436 
Q 878 -284 888 0 
L 569 0 
z
" transform="scale(0.015625)"/>
       <path id="ArialMT-76" d="M 1344 0 
L 81 3319 
L 675 3319 
L 1388 1331 
Q 1503 1009 1600 663 
Q 1675 925 1809 1294 
L 2547 3319 
L 3125 3319 
L 1869 0 
L 1344 0 
z
" transform="scale(0.015625)"/>
       <path id="ArialMT-61" d="M 2588 409 
Q 2275 144 1986 34 
Q 1697 -75 1366 -75 
Q 819 -75 525 192 
Q 231 459 231 875 
Q 231 1119 342 1320 
Q 453 1522 633 1644 
Q 813 1766 1038 1828 
Q 1203 1872 1538 1913 
Q 2219 1994 2541 2106 
Q 2544 2222 2544 2253 
Q 2544 2597 2384 2738 
Q 2169 2928 1744 2928 
Q 1347 2928 1158 2789 
Q 969 2650 878 2297 
L 328 2372 
Q 403 2725 575 2942 
Q 747 3159 1072 3276 
Q 1397 3394 1825 3394 
Q 2250 3394 2515 3294 
Q 2781 3194 2906 3042 
Q 3031 2891 3081 2659 
Q 3109 2516 3109 2141 
L 3109 1391 
Q 3109 606 3145 398 
Q 3181 191 3288 0 
L 2700 0 
Q 2613 175 2588 409 
z
M 2541 1666 
Q 2234 1541 1622 1453 
Q 1275 1403 1131 1340 
Q 988 1278 909 1158 
Q 831 1038 831 891 
Q 831 666 1001 516 
Q 1172 366 1500 366 
Q 1825 366 2078 508 
Q 2331 650 2450 897 
Q 2541 1088 2541 1459 
L 2541 1666 
z
" transform="scale(0.015625)"/>
       <path id="ArialMT-3d" d="M 3381 2694 
L 356 2694 
L 356 3219 
L 3381 3219 
L 3381 2694 
z
M 3381 1303 
L 356 1303 
L 356 1828 
L 3381 1828 
L 3381 1303 
z
" transform="scale(0.015625)"/>
       <path id="ArialMT-39" d="M 350 1059 
L 891 1109 
Q 959 728 1153 556 
Q 1347 384 1650 384 
Q 1909 384 2104 503 
Q 2300 622 2425 820 
Q 2550 1019 2634 1356 
Q 2719 1694 2719 2044 
Q 2719 2081 2716 2156 
Q 2547 1888 2255 1720 
Q 1963 1553 1622 1553 
Q 1053 1553 659 1965 
Q 266 2378 266 3053 
Q 266 3750 677 4175 
Q 1088 4600 1706 4600 
Q 2153 4600 2523 4359 
Q 2894 4119 3086 3673 
Q 3278 3228 3278 2384 
Q 3278 1506 3087 986 
Q 2897 466 2520 194 
Q 2144 -78 1638 -78 
Q 1100 -78 759 220 
Q 419 519 350 1059 
z
M 2653 3081 
Q 2653 3566 2395 3850 
Q 2138 4134 1775 4134 
Q 1400 4134 1122 3828 
Q 844 3522 844 3034 
Q 844 2597 1108 2323 
Q 1372 2050 1759 2050 
Q 2150 2050 2401 2323 
Q 2653 2597 2653 3081 
z
" transform="scale(0.015625)"/>
      </defs>
      <use xlink:href="#ArialMT-46"/>
      <use xlink:href="#ArialMT-69" x="61.083984"/>
      <use xlink:href="#ArialMT-6e" x="83.300781"/>
      <use xlink:href="#ArialMT-67" x="138.916016"/>
      <use xlink:href="#ArialMT-65" x="194.53125"/>
      <use xlink:href="#ArialMT-72" x="250.146484"/>
      <use xlink:href="#ArialMT-20" x="283.447266"/>
      <use xlink:href="#ArialMT-31" x="311.230469"/>
      <use xlink:href="#ArialMT-2c" x="366.845703"/>
      <use xlink:href="#ArialMT-20" x="394.628906"/>
      <use xlink:href="#ArialMT-76" x="422.412109"/>
      <use xlink:href="#ArialMT-61" x="472.412109"/>
      <use xlink:href="#ArialMT-72" x="528.027344"/>
      <use xlink:href="#ArialMT-20" x="561.328125"/>
      <use xlink:href="#ArialMT-3d" x="589.111328"/>
      <use xlink:href="#ArialMT-20" x="647.509766"/>
      <use xlink:href="#ArialMT-30" x="675.292969"/>
      <use xlink:href="#ArialMT-2e" x="730.908203"/>
      <use xlink:href="#ArialMT-30" x="758.691406"/>
      <use xlink:href="#ArialMT-30" x="814.306641"/>
      <use xlink:href="#ArialMT-39" x="869.921875"/>
     </g>
    </g>
    <g id="line2d_21">
     <path d="M 335.325 37.758594 
L 345.325 37.758594 
L 355.325 37.758594 
" style="fill: none; stroke: #ff7f0e; stroke-opacity: 0.5; stroke-width: 1.5; stroke-linecap: round"/>
    </g>
    <g id="text_17">
     <!-- Finger 2, var = 0.015 -->
     <g style="fill: #262626" transform="translate(363.325 41.258594) scale(0.1 -0.1)">
      <use xlink:href="#ArialMT-46"/>
      <use xlink:href="#ArialMT-69" x="61.083984"/>
      <use xlink:href="#ArialMT-6e" x="83.300781"/>
      <use xlink:href="#ArialMT-67" x="138.916016"/>
      <use xlink:href="#ArialMT-65" x="194.53125"/>
      <use xlink:href="#ArialMT-72" x="250.146484"/>
      <use xlink:href="#ArialMT-20" x="283.447266"/>
      <use xlink:href="#ArialMT-32" x="311.230469"/>
      <use xlink:href="#ArialMT-2c" x="366.845703"/>
      <use xlink:href="#ArialMT-20" x="394.628906"/>
      <use xlink:href="#ArialMT-76" x="422.412109"/>
      <use xlink:href="#ArialMT-61" x="472.412109"/>
      <use xlink:href="#ArialMT-72" x="528.027344"/>
      <use xlink:href="#ArialMT-20" x="561.328125"/>
      <use xlink:href="#ArialMT-3d" x="589.111328"/>
      <use xlink:href="#ArialMT-20" x="647.509766"/>
      <use xlink:href="#ArialMT-30" x="675.292969"/>
      <use xlink:href="#ArialMT-2e" x="730.908203"/>
      <use xlink:href="#ArialMT-30" x="758.691406"/>
      <use xlink:href="#ArialMT-31" x="814.306641"/>
      <use xlink:href="#ArialMT-35" x="869.921875"/>
     </g>
    </g>
    <g id="line2d_22">
     <path d="M 335.325 52.050781 
L 345.325 52.050781 
L 355.325 52.050781 
" style="fill: none; stroke: #2ca02c; stroke-opacity: 0.5; stroke-width: 1.5; stroke-linecap: round"/>
    </g>
    <g id="text_18">
     <!-- Finger 3, var = 0.016 -->
     <g style="fill: #262626" transform="translate(363.325 55.550781) scale(0.1 -0.1)">
      <defs>
       <path id="ArialMT-36" d="M 3184 3459 
L 2625 3416 
Q 2550 3747 2413 3897 
Q 2184 4138 1850 4138 
Q 1581 4138 1378 3988 
Q 1113 3794 959 3422 
Q 806 3050 800 2363 
Q 1003 2672 1297 2822 
Q 1591 2972 1913 2972 
Q 2475 2972 2870 2558 
Q 3266 2144 3266 1488 
Q 3266 1056 3080 686 
Q 2894 316 2569 119 
Q 2244 -78 1831 -78 
Q 1128 -78 684 439 
Q 241 956 241 2144 
Q 241 3472 731 4075 
Q 1159 4600 1884 4600 
Q 2425 4600 2770 4297 
Q 3116 3994 3184 3459 
z
M 888 1484 
Q 888 1194 1011 928 
Q 1134 663 1356 523 
Q 1578 384 1822 384 
Q 2178 384 2434 671 
Q 2691 959 2691 1453 
Q 2691 1928 2437 2201 
Q 2184 2475 1800 2475 
Q 1419 2475 1153 2201 
Q 888 1928 888 1484 
z
" transform="scale(0.015625)"/>
      </defs>
      <use xlink:href="#ArialMT-46"/>
      <use xlink:href="#ArialMT-69" x="61.083984"/>
      <use xlink:href="#ArialMT-6e" x="83.300781"/>
      <use xlink:href="#ArialMT-67" x="138.916016"/>
      <use xlink:href="#ArialMT-65" x="194.53125"/>
      <use xlink:href="#ArialMT-72" x="250.146484"/>
      <use xlink:href="#ArialMT-20" x="283.447266"/>
      <use xlink:href="#ArialMT-33" x="311.230469"/>
      <use xlink:href="#ArialMT-2c" x="366.845703"/>
      <use xlink:href="#ArialMT-20" x="394.628906"/>
      <use xlink:href="#ArialMT-76" x="422.412109"/>
      <use xlink:href="#ArialMT-61" x="472.412109"/>
      <use xlink:href="#ArialMT-72" x="528.027344"/>
      <use xlink:href="#ArialMT-20" x="561.328125"/>
      <use xlink:href="#ArialMT-3d" x="589.111328"/>
      <use xlink:href="#ArialMT-20" x="647.509766"/>
      <use xlink:href="#ArialMT-30" x="675.292969"/>
      <use xlink:href="#ArialMT-2e" x="730.908203"/>
      <use xlink:href="#ArialMT-30" x="758.691406"/>
      <use xlink:href="#ArialMT-31" x="814.306641"/>
      <use xlink:href="#ArialMT-36" x="869.921875"/>
     </g>
    </g>
    <g id="line2d_23">
     <path d="M 335.325 66.342969 
L 345.325 66.342969 
L 355.325 66.342969 
" style="fill: none; stroke: #d62728; stroke-opacity: 0.5; stroke-width: 1.5; stroke-linecap: round"/>
    </g>
    <g id="text_19">
     <!-- Finger 4, var = 0.014 -->
     <g style="fill: #262626" transform="translate(363.325 69.842969) scale(0.1 -0.1)">
      <defs>
       <path id="ArialMT-34" d="M 2069 0 
L 2069 1097 
L 81 1097 
L 81 1613 
L 2172 4581 
L 2631 4581 
L 2631 1613 
L 3250 1613 
L 3250 1097 
L 2631 1097 
L 2631 0 
L 2069 0 
z
M 2069 1613 
L 2069 3678 
L 634 1613 
L 2069 1613 
z
" transform="scale(0.015625)"/>
      </defs>
      <use xlink:href="#ArialMT-46"/>
      <use xlink:href="#ArialMT-69" x="61.083984"/>
      <use xlink:href="#ArialMT-6e" x="83.300781"/>
      <use xlink:href="#ArialMT-67" x="138.916016"/>
      <use xlink:href="#ArialMT-65" x="194.53125"/>
      <use xlink:href="#ArialMT-72" x="250.146484"/>
      <use xlink:href="#ArialMT-20" x="283.447266"/>
      <use xlink:href="#ArialMT-34" x="311.230469"/>
      <use xlink:href="#ArialMT-2c" x="366.845703"/>
      <use xlink:href="#ArialMT-20" x="394.628906"/>
      <use xlink:href="#ArialMT-76" x="422.412109"/>
      <use xlink:href="#ArialMT-61" x="472.412109"/>
      <use xlink:href="#ArialMT-72" x="528.027344"/>
      <use xlink:href="#ArialMT-20" x="561.328125"/>
      <use xlink:href="#ArialMT-3d" x="589.111328"/>
      <use xlink:href="#ArialMT-20" x="647.509766"/>
      <use xlink:href="#ArialMT-30" x="675.292969"/>
      <use xlink:href="#ArialMT-2e" x="730.908203"/>
      <use xlink:href="#ArialMT-30" x="758.691406"/>
      <use xlink:href="#ArialMT-31" x="814.306641"/>
      <use xlink:href="#ArialMT-34" x="869.921875"/>
     </g>
    </g>
    <g id="line2d_24">
     <path d="M 335.325 80.635156 
L 345.325 80.635156 
L 355.325 80.635156 
" style="fill: none; stroke: #9467bd; stroke-opacity: 0.5; stroke-width: 1.5; stroke-linecap: round"/>
    </g>
    <g id="text_20">
     <!-- Finger 5, var = 0.007 -->
     <g style="fill: #262626" transform="translate(363.325 84.135156) scale(0.1 -0.1)">
      <defs>
       <path id="ArialMT-37" d="M 303 3981 
L 303 4522 
L 3269 4522 
L 3269 4084 
Q 2831 3619 2401 2847 
Q 1972 2075 1738 1259 
Q 1569 684 1522 0 
L 944 0 
Q 953 541 1156 1306 
Q 1359 2072 1739 2783 
Q 2119 3494 2547 3981 
L 303 3981 
z
" transform="scale(0.015625)"/>
      </defs>
      <use xlink:href="#ArialMT-46"/>
      <use xlink:href="#ArialMT-69" x="61.083984"/>
      <use xlink:href="#ArialMT-6e" x="83.300781"/>
      <use xlink:href="#ArialMT-67" x="138.916016"/>
      <use xlink:href="#ArialMT-65" x="194.53125"/>
      <use xlink:href="#ArialMT-72" x="250.146484"/>
      <use xlink:href="#ArialMT-20" x="283.447266"/>
      <use xlink:href="#ArialMT-35" x="311.230469"/>
      <use xlink:href="#ArialMT-2c" x="366.845703"/>
      <use xlink:href="#ArialMT-20" x="394.628906"/>
      <use xlink:href="#ArialMT-76" x="422.412109"/>
      <use xlink:href="#ArialMT-61" x="472.412109"/>
      <use xlink:href="#ArialMT-72" x="528.027344"/>
      <use xlink:href="#ArialMT-20" x="561.328125"/>
      <use xlink:href="#ArialMT-3d" x="589.111328"/>
      <use xlink:href="#ArialMT-20" x="647.509766"/>
      <use xlink:href="#ArialMT-30" x="675.292969"/>
      <use xlink:href="#ArialMT-2e" x="730.908203"/>
      <use xlink:href="#ArialMT-30" x="758.691406"/>
      <use xlink:href="#ArialMT-30" x="814.306641"/>
      <use xlink:href="#ArialMT-37" x="869.921875"/>
     </g>
    </g>
    <g id="line2d_25">
     <path d="M 335.325 94.927344 
L 345.325 94.927344 
L 355.325 94.927344 
" style="fill: none; stroke: #000000; stroke-width: 1.5; stroke-linecap: round"/>
    </g>
    <g id="text_21">
     <!-- Average, var = 0.011 -->
     <g style="fill: #262626" transform="translate(363.325 98.427344) scale(0.1 -0.1)">
      <defs>
       <path id="ArialMT-41" d="M -9 0 
L 1750 4581 
L 2403 4581 
L 4278 0 
L 3588 0 
L 3053 1388 
L 1138 1388 
L 634 0 
L -9 0 
z
M 1313 1881 
L 2866 1881 
L 2388 3150 
Q 2169 3728 2063 4100 
Q 1975 3659 1816 3225 
L 1313 1881 
z
" transform="scale(0.015625)"/>
      </defs>
      <use xlink:href="#ArialMT-41"/>
      <use xlink:href="#ArialMT-76" x="64.949219"/>
      <use xlink:href="#ArialMT-65" x="114.949219"/>
      <use xlink:href="#ArialMT-72" x="170.564453"/>
      <use xlink:href="#ArialMT-61" x="203.865234"/>
      <use xlink:href="#ArialMT-67" x="259.480469"/>
      <use xlink:href="#ArialMT-65" x="315.095703"/>
      <use xlink:href="#ArialMT-2c" x="370.710938"/>
      <use xlink:href="#ArialMT-20" x="398.494141"/>
      <use xlink:href="#ArialMT-76" x="426.277344"/>
      <use xlink:href="#ArialMT-61" x="476.277344"/>
      <use xlink:href="#ArialMT-72" x="531.892578"/>
      <use xlink:href="#ArialMT-20" x="565.193359"/>
      <use xlink:href="#ArialMT-3d" x="592.976562"/>
      <use xlink:href="#ArialMT-20" x="651.375"/>
      <use xlink:href="#ArialMT-30" x="679.158203"/>
      <use xlink:href="#ArialMT-2e" x="734.773438"/>
      <use xlink:href="#ArialMT-30" x="762.556641"/>
      <use xlink:href="#ArialMT-31" x="818.171875"/>
      <use xlink:href="#ArialMT-31" x="866.412109"/>
     </g>
    </g>
   </g>
  </g>
 </g>
 <defs>
  <clipPath id="pd601fa5dc5">
   <rect x="47.325" y="10.778906" width="279" height="166.32"/>
  </clipPath>
 </defs>
</svg>
